%TF.GenerationSoftware,KiCad,Pcbnew,(6.0.7)*%
%TF.CreationDate,2024-06-12T19:26:07+01:00*%
%TF.ProjectId,BaroAxel_Brain,4261726f-4178-4656-9c5f-427261696e2e,1.0*%
%TF.SameCoordinates,Original*%
%TF.FileFunction,Copper,L1,Top*%
%TF.FilePolarity,Positive*%
%FSLAX46Y46*%
G04 Gerber Fmt 4.6, Leading zero omitted, Abs format (unit mm)*
G04 Created by KiCad (PCBNEW (6.0.7)) date 2024-06-12 19:26:07*
%MOMM*%
%LPD*%
G01*
G04 APERTURE LIST*
G04 Aperture macros list*
%AMRoundRect*
0 Rectangle with rounded corners*
0 $1 Rounding radius*
0 $2 $3 $4 $5 $6 $7 $8 $9 X,Y pos of 4 corners*
0 Add a 4 corners polygon primitive as box body*
4,1,4,$2,$3,$4,$5,$6,$7,$8,$9,$2,$3,0*
0 Add four circle primitives for the rounded corners*
1,1,$1+$1,$2,$3*
1,1,$1+$1,$4,$5*
1,1,$1+$1,$6,$7*
1,1,$1+$1,$8,$9*
0 Add four rect primitives between the rounded corners*
20,1,$1+$1,$2,$3,$4,$5,0*
20,1,$1+$1,$4,$5,$6,$7,0*
20,1,$1+$1,$6,$7,$8,$9,0*
20,1,$1+$1,$8,$9,$2,$3,0*%
%AMOutline4P*
0 Free polygon, 4 corners , with rotation*
0 The origin of the aperture is its center*
0 number of corners: always 4*
0 $1 to $8 corner X, Y*
0 $9 Rotation angle, in degrees counterclockwise*
0 create outline with 4 corners*
4,1,4,$1,$2,$3,$4,$5,$6,$7,$8,$1,$2,$9*%
%AMFreePoly0*
4,1,14,0.230680,0.111820,0.364320,-0.021821,0.377500,-0.053642,0.377500,-0.080000,0.364320,-0.111820,0.332500,-0.125000,-0.332500,-0.125000,-0.364320,-0.111820,-0.377500,-0.080000,-0.377500,0.080000,-0.364320,0.111820,-0.332500,0.125000,0.198860,0.125000,0.230680,0.111820,0.230680,0.111820,$1*%
%AMFreePoly1*
4,1,14,0.364320,0.111820,0.377500,0.080000,0.377501,0.053640,0.364318,0.021819,0.230680,-0.111820,0.198860,-0.125000,-0.332500,-0.125000,-0.364320,-0.111820,-0.377500,-0.080000,-0.377500,0.080000,-0.364320,0.111820,-0.332500,0.125000,0.332500,0.125000,0.364320,0.111820,0.364320,0.111820,$1*%
%AMFreePoly2*
4,1,15,0.053642,0.377500,0.080000,0.377500,0.111820,0.364320,0.125000,0.332500,0.125000,-0.332500,0.111820,-0.364320,0.080000,-0.377500,-0.080000,-0.377500,-0.111820,-0.364320,-0.125000,-0.332500,-0.125000,0.198860,-0.111820,0.230680,0.021820,0.364320,0.053640,0.377501,0.053642,0.377500,0.053642,0.377500,$1*%
%AMFreePoly3*
4,1,14,-0.021820,0.364320,0.111820,0.230679,0.125000,0.198858,0.125000,-0.332500,0.111820,-0.364320,0.080000,-0.377500,-0.080000,-0.377500,-0.111820,-0.364320,-0.125000,-0.332500,-0.125000,0.332500,-0.111820,0.364320,-0.080000,0.377500,-0.053640,0.377500,-0.021820,0.364320,-0.021820,0.364320,$1*%
%AMFreePoly4*
4,1,14,0.364320,0.111820,0.377500,0.080000,0.377500,-0.080000,0.364320,-0.111820,0.332500,-0.125000,-0.198860,-0.125001,-0.230681,-0.111818,-0.364320,0.021820,-0.377500,0.053640,-0.377500,0.080000,-0.364320,0.111820,-0.332500,0.125000,0.332500,0.125000,0.364320,0.111820,0.364320,0.111820,$1*%
%AMFreePoly5*
4,1,15,-0.198858,0.125000,0.332500,0.125000,0.364320,0.111820,0.377500,0.080000,0.377500,-0.080000,0.364320,-0.111820,0.332500,-0.125000,-0.332500,-0.125000,-0.364320,-0.111820,-0.377500,-0.080000,-0.377500,-0.053640,-0.364320,-0.021820,-0.230680,0.111820,-0.198860,0.125001,-0.198858,0.125000,-0.198858,0.125000,$1*%
%AMFreePoly6*
4,1,14,0.111820,0.364320,0.125000,0.332500,0.125001,-0.198860,0.111818,-0.230681,-0.021820,-0.364320,-0.053640,-0.377500,-0.080000,-0.377500,-0.111820,-0.364320,-0.125000,-0.332500,-0.125000,0.332500,-0.111820,0.364320,-0.080000,0.377500,0.080000,0.377500,0.111820,0.364320,0.111820,0.364320,$1*%
%AMFreePoly7*
4,1,14,0.111820,0.364320,0.125000,0.332500,0.125000,-0.332500,0.111820,-0.364320,0.080000,-0.377500,0.053640,-0.377501,0.021819,-0.364318,-0.111820,-0.230680,-0.125000,-0.198860,-0.125000,0.332500,-0.111820,0.364320,-0.080000,0.377500,0.080000,0.377500,0.111820,0.364320,0.111820,0.364320,$1*%
G04 Aperture macros list end*
%TA.AperFunction,ComponentPad*%
%ADD10RoundRect,0.250000X-0.725000X0.600000X-0.725000X-0.600000X0.725000X-0.600000X0.725000X0.600000X0*%
%TD*%
%TA.AperFunction,ComponentPad*%
%ADD11O,1.950000X1.700000*%
%TD*%
%TA.AperFunction,SMDPad,CuDef*%
%ADD12RoundRect,0.135000X0.135000X0.185000X-0.135000X0.185000X-0.135000X-0.185000X0.135000X-0.185000X0*%
%TD*%
%TA.AperFunction,SMDPad,CuDef*%
%ADD13FreePoly0,180.000000*%
%TD*%
%TA.AperFunction,SMDPad,CuDef*%
%ADD14RoundRect,0.062500X0.375000X0.062500X-0.375000X0.062500X-0.375000X-0.062500X0.375000X-0.062500X0*%
%TD*%
%TA.AperFunction,SMDPad,CuDef*%
%ADD15FreePoly1,180.000000*%
%TD*%
%TA.AperFunction,SMDPad,CuDef*%
%ADD16FreePoly2,180.000000*%
%TD*%
%TA.AperFunction,SMDPad,CuDef*%
%ADD17RoundRect,0.062500X0.062500X0.375000X-0.062500X0.375000X-0.062500X-0.375000X0.062500X-0.375000X0*%
%TD*%
%TA.AperFunction,SMDPad,CuDef*%
%ADD18FreePoly3,180.000000*%
%TD*%
%TA.AperFunction,SMDPad,CuDef*%
%ADD19FreePoly4,180.000000*%
%TD*%
%TA.AperFunction,SMDPad,CuDef*%
%ADD20FreePoly5,180.000000*%
%TD*%
%TA.AperFunction,SMDPad,CuDef*%
%ADD21FreePoly6,180.000000*%
%TD*%
%TA.AperFunction,SMDPad,CuDef*%
%ADD22FreePoly7,180.000000*%
%TD*%
%TA.AperFunction,SMDPad,CuDef*%
%ADD23RoundRect,0.140000X-0.140000X-0.170000X0.140000X-0.170000X0.140000X0.170000X-0.140000X0.170000X0*%
%TD*%
%TA.AperFunction,SMDPad,CuDef*%
%ADD24RoundRect,0.135000X-0.185000X0.135000X-0.185000X-0.135000X0.185000X-0.135000X0.185000X0.135000X0*%
%TD*%
%TA.AperFunction,SMDPad,CuDef*%
%ADD25R,0.500000X0.350000*%
%TD*%
%TA.AperFunction,SMDPad,CuDef*%
%ADD26RoundRect,0.140000X0.140000X0.170000X-0.140000X0.170000X-0.140000X-0.170000X0.140000X-0.170000X0*%
%TD*%
%TA.AperFunction,SMDPad,CuDef*%
%ADD27RoundRect,0.250000X-0.375000X-0.625000X0.375000X-0.625000X0.375000X0.625000X-0.375000X0.625000X0*%
%TD*%
%TA.AperFunction,SMDPad,CuDef*%
%ADD28RoundRect,0.075000X-0.350000X-0.075000X0.350000X-0.075000X0.350000X0.075000X-0.350000X0.075000X0*%
%TD*%
%TA.AperFunction,SMDPad,CuDef*%
%ADD29Outline4P,-1.250000X-1.250000X1.250000X-1.250000X1.250000X1.250000X-1.250000X1.250000X0.000000*%
%TD*%
%TA.AperFunction,SMDPad,CuDef*%
%ADD30RoundRect,0.075000X0.075000X-0.350000X0.075000X0.350000X-0.075000X0.350000X-0.075000X-0.350000X0*%
%TD*%
%TA.AperFunction,SMDPad,CuDef*%
%ADD31R,1.700000X0.900000*%
%TD*%
%TA.AperFunction,ComponentPad*%
%ADD32RoundRect,0.250000X0.600000X0.725000X-0.600000X0.725000X-0.600000X-0.725000X0.600000X-0.725000X0*%
%TD*%
%TA.AperFunction,ComponentPad*%
%ADD33O,1.700000X1.950000*%
%TD*%
%TA.AperFunction,SMDPad,CuDef*%
%ADD34R,1.600000X1.500000*%
%TD*%
%TA.AperFunction,SMDPad,CuDef*%
%ADD35RoundRect,0.140000X0.170000X-0.140000X0.170000X0.140000X-0.170000X0.140000X-0.170000X-0.140000X0*%
%TD*%
%TA.AperFunction,SMDPad,CuDef*%
%ADD36RoundRect,0.135000X0.185000X-0.135000X0.185000X0.135000X-0.185000X0.135000X-0.185000X-0.135000X0*%
%TD*%
%TA.AperFunction,ComponentPad*%
%ADD37C,0.900000*%
%TD*%
%TA.AperFunction,ComponentPad*%
%ADD38C,8.600000*%
%TD*%
%TA.AperFunction,SMDPad,CuDef*%
%ADD39RoundRect,0.218750X-0.218750X-0.256250X0.218750X-0.256250X0.218750X0.256250X-0.218750X0.256250X0*%
%TD*%
%TA.AperFunction,SMDPad,CuDef*%
%ADD40RoundRect,0.225000X0.225000X0.250000X-0.225000X0.250000X-0.225000X-0.250000X0.225000X-0.250000X0*%
%TD*%
%TA.AperFunction,SMDPad,CuDef*%
%ADD41RoundRect,0.140000X-0.170000X0.140000X-0.170000X-0.140000X0.170000X-0.140000X0.170000X0.140000X0*%
%TD*%
%TA.AperFunction,SMDPad,CuDef*%
%ADD42R,0.800000X1.000000*%
%TD*%
%TA.AperFunction,SMDPad,CuDef*%
%ADD43R,1.500000X0.700000*%
%TD*%
%TA.AperFunction,SMDPad,CuDef*%
%ADD44RoundRect,0.225000X-0.250000X0.225000X-0.250000X-0.225000X0.250000X-0.225000X0.250000X0.225000X0*%
%TD*%
%TA.AperFunction,ComponentPad*%
%ADD45RoundRect,0.250000X0.750000X-0.600000X0.750000X0.600000X-0.750000X0.600000X-0.750000X-0.600000X0*%
%TD*%
%TA.AperFunction,ComponentPad*%
%ADD46O,2.000000X1.700000*%
%TD*%
%TA.AperFunction,SMDPad,CuDef*%
%ADD47RoundRect,0.135000X-0.135000X-0.185000X0.135000X-0.185000X0.135000X0.185000X-0.135000X0.185000X0*%
%TD*%
%TA.AperFunction,SMDPad,CuDef*%
%ADD48RoundRect,0.218750X0.218750X0.256250X-0.218750X0.256250X-0.218750X-0.256250X0.218750X-0.256250X0*%
%TD*%
%TA.AperFunction,SMDPad,CuDef*%
%ADD49RoundRect,0.218750X0.256250X-0.218750X0.256250X0.218750X-0.256250X0.218750X-0.256250X-0.218750X0*%
%TD*%
%TA.AperFunction,SMDPad,CuDef*%
%ADD50RoundRect,0.243750X-0.243750X-0.456250X0.243750X-0.456250X0.243750X0.456250X-0.243750X0.456250X0*%
%TD*%
%TA.AperFunction,SMDPad,CuDef*%
%ADD51R,1.500000X2.000000*%
%TD*%
%TA.AperFunction,SMDPad,CuDef*%
%ADD52R,3.800000X2.000000*%
%TD*%
%TA.AperFunction,ViaPad*%
%ADD53C,0.450000*%
%TD*%
%TA.AperFunction,ViaPad*%
%ADD54C,0.700000*%
%TD*%
%TA.AperFunction,Conductor*%
%ADD55C,0.560000*%
%TD*%
%TA.AperFunction,Conductor*%
%ADD56C,0.300000*%
%TD*%
%TA.AperFunction,Conductor*%
%ADD57C,0.800000*%
%TD*%
%TA.AperFunction,Conductor*%
%ADD58C,0.350000*%
%TD*%
%TA.AperFunction,Conductor*%
%ADD59C,0.250000*%
%TD*%
%TA.AperFunction,Conductor*%
%ADD60C,1.000000*%
%TD*%
G04 APERTURE END LIST*
D10*
%TO.P,J102,1,Pin_1*%
%TO.N,+3.3V*%
X128270000Y-106280000D03*
D11*
%TO.P,J102,2,Pin_2*%
%TO.N,/Microcontroller/SWDIO*%
X128270000Y-108780000D03*
%TO.P,J102,3,Pin_3*%
%TO.N,GND*%
X128270000Y-111280000D03*
%TO.P,J102,4,Pin_4*%
%TO.N,/Microcontroller/SWDCLK*%
X128270000Y-113780000D03*
%TD*%
D12*
%TO.P,R204,1*%
%TO.N,GND*%
X136890000Y-104130000D03*
%TO.P,R204,2*%
%TO.N,Net-(D202-Pad1)*%
X135870000Y-104130000D03*
%TD*%
D13*
%TO.P,U201,1,VDD*%
%TO.N,+3.3V*%
X148717500Y-106830000D03*
D14*
%TO.P,U201,2,PC14*%
%TO.N,unconnected-(U201-Pad2)*%
X148657500Y-106330000D03*
%TO.P,U201,3,PC15*%
%TO.N,unconnected-(U201-Pad3)*%
X148657500Y-105830000D03*
%TO.P,U201,4,NRST*%
%TO.N,/Microcontroller/NRST*%
X148657500Y-105330000D03*
%TO.P,U201,5,VDDA*%
%TO.N,+3.3VA*%
X148657500Y-104830000D03*
%TO.P,U201,6,PA0*%
%TO.N,/Microcontroller/OSC_IN*%
X148657500Y-104330000D03*
D15*
%TO.P,U201,7,PA1*%
%TO.N,unconnected-(U201-Pad7)*%
X148717500Y-103830000D03*
D16*
%TO.P,U201,8,PA2*%
%TO.N,/Microcontroller/UART2_TX*%
X148220000Y-103332500D03*
D17*
%TO.P,U201,9,PA3*%
%TO.N,/Microcontroller/UART2_RX*%
X147720000Y-103392500D03*
%TO.P,U201,10,PA4*%
%TO.N,unconnected-(U201-Pad10)*%
X147220000Y-103392500D03*
%TO.P,U201,11,PA5*%
%TO.N,unconnected-(U201-Pad11)*%
X146720000Y-103392500D03*
%TO.P,U201,12,PA6*%
%TO.N,/Microcontroller/PWM1*%
X146220000Y-103392500D03*
%TO.P,U201,13,PA7*%
%TO.N,/Microcontroller/PWM2*%
X145720000Y-103392500D03*
D18*
%TO.P,U201,14,PB0*%
%TO.N,/Microcontroller/ADC1*%
X145220000Y-103332500D03*
D19*
%TO.P,U201,15,PB1*%
%TO.N,/Microcontroller/ADC2*%
X144722500Y-103830000D03*
D14*
%TO.P,U201,16,VSS*%
%TO.N,GND*%
X144782500Y-104330000D03*
%TO.P,U201,17,VDD*%
%TO.N,+3.3V*%
X144782500Y-104830000D03*
%TO.P,U201,18,PA8*%
%TO.N,/Microcontroller/USR_LED1*%
X144782500Y-105330000D03*
%TO.P,U201,19,PA9*%
%TO.N,/Microcontroller/USR_LED2*%
X144782500Y-105830000D03*
%TO.P,U201,20,PA10*%
%TO.N,unconnected-(U201-Pad20)*%
X144782500Y-106330000D03*
D20*
%TO.P,U201,21,PA13*%
%TO.N,/Microcontroller/SWDIO*%
X144722500Y-106830000D03*
D21*
%TO.P,U201,22,PA14*%
%TO.N,/Microcontroller/SWDCLK*%
X145220000Y-107327500D03*
D17*
%TO.P,U201,23,PA15*%
%TO.N,unconnected-(U201-Pad23)*%
X145720000Y-107267500D03*
%TO.P,U201,24,PB3*%
%TO.N,unconnected-(U201-Pad24)*%
X146220000Y-107267500D03*
%TO.P,U201,25,PB6*%
%TO.N,/Microcontroller/I2C1_SCL*%
X146720000Y-107267500D03*
%TO.P,U201,26,PB7*%
%TO.N,/Microcontroller/I2C1_SDA*%
X147220000Y-107267500D03*
%TO.P,U201,27,BOOT0*%
%TO.N,/Microcontroller/BOOT0*%
X147720000Y-107267500D03*
D22*
%TO.P,U201,28,VSS*%
%TO.N,GND*%
X148220000Y-107327500D03*
%TD*%
D23*
%TO.P,C305,1*%
%TO.N,Net-(C305-Pad1)*%
X148540000Y-113530000D03*
%TO.P,C305,2*%
%TO.N,GND*%
X149500000Y-113530000D03*
%TD*%
D24*
%TO.P,R202,1*%
%TO.N,Net-(R202-Pad1)*%
X167410000Y-112990000D03*
%TO.P,R202,2*%
%TO.N,/Microcontroller/BOOT0*%
X167410000Y-114010000D03*
%TD*%
D25*
%TO.P,U301,1,GND*%
%TO.N,GND*%
X139680000Y-111415000D03*
%TO.P,U301,2,CSB*%
%TO.N,Net-(R301-Pad2)*%
X139680000Y-112065000D03*
%TO.P,U301,3,SDI*%
%TO.N,/Microcontroller/I2C1_SDA*%
X139680000Y-112715000D03*
%TO.P,U301,4,SCK*%
%TO.N,/Microcontroller/I2C1_SCL*%
X139680000Y-113365000D03*
%TO.P,U301,5,SDO*%
%TO.N,unconnected-(U301-Pad5)*%
X138080000Y-113365000D03*
%TO.P,U301,6,VDDIO*%
%TO.N,+3.3V*%
X138080000Y-112715000D03*
%TO.P,U301,7,GND*%
%TO.N,GND*%
X138080000Y-112065000D03*
%TO.P,U301,8,VDD*%
%TO.N,+3.3V*%
X138080000Y-111415000D03*
%TD*%
D12*
%TO.P,R205,1*%
%TO.N,/Microcontroller/I2C1_SCL*%
X146290000Y-109930000D03*
%TO.P,R205,2*%
%TO.N,+3.3V*%
X145270000Y-109930000D03*
%TD*%
D26*
%TO.P,C301,1*%
%TO.N,+3.3V*%
X147060000Y-119930000D03*
%TO.P,C301,2*%
%TO.N,GND*%
X146100000Y-119930000D03*
%TD*%
D27*
%TO.P,D101,1,K*%
%TO.N,Net-(D101-Pad1)*%
X160950000Y-128580000D03*
%TO.P,D101,2,A*%
%TO.N,+5V*%
X163750000Y-128580000D03*
%TD*%
D12*
%TO.P,R203,1*%
%TO.N,GND*%
X136920000Y-101070000D03*
%TO.P,R203,2*%
%TO.N,Net-(D201-Pad1)*%
X135900000Y-101070000D03*
%TD*%
D24*
%TO.P,R201,1*%
%TO.N,/Microcontroller/NRST*%
X160030000Y-107940000D03*
%TO.P,R201,2*%
%TO.N,+3.3V*%
X160030000Y-108960000D03*
%TD*%
D23*
%TO.P,C304,1*%
%TO.N,Net-(C304-Pad1)*%
X148070000Y-119930000D03*
%TO.P,C304,2*%
%TO.N,GND*%
X149030000Y-119930000D03*
%TD*%
D28*
%TO.P,U302,1,CLKIN*%
%TO.N,GND*%
X145870000Y-115480000D03*
D29*
X147820000Y-116730000D03*
D28*
%TO.P,U302,2,NC*%
%TO.N,unconnected-(U302-Pad2)*%
X145870000Y-115980000D03*
%TO.P,U302,3,NC*%
%TO.N,unconnected-(U302-Pad3)*%
X145870000Y-116480000D03*
%TO.P,U302,4,NC*%
%TO.N,unconnected-(U302-Pad4)*%
X145870000Y-116980000D03*
%TO.P,U302,5,NC*%
%TO.N,unconnected-(U302-Pad5)*%
X145870000Y-117480000D03*
%TO.P,U302,6,AUX_SDA*%
%TO.N,unconnected-(U302-Pad6)*%
X145870000Y-117980000D03*
D30*
%TO.P,U302,7,AUX_SCL*%
%TO.N,unconnected-(U302-Pad7)*%
X146570000Y-118680000D03*
%TO.P,U302,8,VDDIO*%
%TO.N,+3.3V*%
X147070000Y-118680000D03*
%TO.P,U302,9,AD0*%
%TO.N,unconnected-(U302-Pad9)*%
X147570000Y-118680000D03*
%TO.P,U302,10,REGOUT*%
%TO.N,Net-(C304-Pad1)*%
X148070000Y-118680000D03*
%TO.P,U302,11,FSYNC*%
%TO.N,GND*%
X148570000Y-118680000D03*
%TO.P,U302,12,INT*%
%TO.N,unconnected-(U302-Pad12)*%
X149070000Y-118680000D03*
D28*
%TO.P,U302,13,VDD*%
%TO.N,+3.3V*%
X149770000Y-117980000D03*
%TO.P,U302,14,NC*%
%TO.N,unconnected-(U302-Pad14)*%
X149770000Y-117480000D03*
%TO.P,U302,15,NC*%
%TO.N,unconnected-(U302-Pad15)*%
X149770000Y-116980000D03*
%TO.P,U302,16,NC*%
%TO.N,unconnected-(U302-Pad16)*%
X149770000Y-116480000D03*
%TO.P,U302,17,NC*%
%TO.N,unconnected-(U302-Pad17)*%
X149770000Y-115980000D03*
%TO.P,U302,18,GND*%
%TO.N,GND*%
X149770000Y-115480000D03*
D30*
%TO.P,U302,19,NC*%
%TO.N,unconnected-(U302-Pad19)*%
X149070000Y-114780000D03*
%TO.P,U302,20,CPOUT*%
%TO.N,Net-(C305-Pad1)*%
X148570000Y-114780000D03*
%TO.P,U302,21,NC*%
%TO.N,unconnected-(U302-Pad21)*%
X148070000Y-114780000D03*
%TO.P,U302,22,NC*%
%TO.N,unconnected-(U302-Pad22)*%
X147570000Y-114780000D03*
%TO.P,U302,23,SCL*%
%TO.N,/Microcontroller/I2C1_SCL*%
X147070000Y-114780000D03*
%TO.P,U302,24,SDA*%
%TO.N,/Microcontroller/I2C1_SDA*%
X146570000Y-114780000D03*
%TD*%
D31*
%TO.P,SW201,1,1*%
%TO.N,/Microcontroller/NRST*%
X162260000Y-107940000D03*
%TO.P,SW201,2,2*%
%TO.N,GND*%
X162260000Y-111340000D03*
%TD*%
D32*
%TO.P,J103,1,Pin_1*%
%TO.N,+3.3V*%
X144870000Y-97080000D03*
D33*
%TO.P,J103,2,Pin_2*%
%TO.N,/Microcontroller/ADC1*%
X142370000Y-97080000D03*
%TO.P,J103,3,Pin_3*%
%TO.N,GND*%
X139870000Y-97080000D03*
%TO.P,J103,4,Pin_4*%
%TO.N,/Microcontroller/ADC2*%
X137370000Y-97080000D03*
%TD*%
D34*
%TO.P,X201,1,~{ST}*%
%TO.N,unconnected-(X201-Pad1)*%
X153990000Y-101370000D03*
%TO.P,X201,2,GND*%
%TO.N,GND*%
X151450000Y-101370000D03*
%TO.P,X201,3,OUT*%
%TO.N,/Microcontroller/OSC_IN*%
X151450000Y-103570000D03*
%TO.P,X201,4,VCC*%
%TO.N,+3.3V*%
X153990000Y-103570000D03*
%TD*%
D32*
%TO.P,J104,1,Pin_1*%
%TO.N,+3.3V*%
X158270000Y-97080000D03*
D33*
%TO.P,J104,2,Pin_2*%
%TO.N,/Microcontroller/PWM1*%
X155770000Y-97080000D03*
%TO.P,J104,3,Pin_3*%
%TO.N,GND*%
X153270000Y-97080000D03*
%TO.P,J104,4,Pin_4*%
%TO.N,/Microcontroller/PWM2*%
X150770000Y-97080000D03*
%TD*%
D35*
%TO.P,C303,1*%
%TO.N,+3.3V*%
X136980000Y-112710000D03*
%TO.P,C303,2*%
%TO.N,GND*%
X136980000Y-111750000D03*
%TD*%
D24*
%TO.P,R301,1*%
%TO.N,+3.3V*%
X140790000Y-111050000D03*
%TO.P,R301,2*%
%TO.N,Net-(R301-Pad2)*%
X140790000Y-112070000D03*
%TD*%
D36*
%TO.P,R101,1*%
%TO.N,Net-(D102-Pad1)*%
X154890000Y-128910000D03*
%TO.P,R101,2*%
%TO.N,GND*%
X154890000Y-127890000D03*
%TD*%
D37*
%TO.P,H103,1,1*%
%TO.N,GND*%
X167820000Y-139955000D03*
X165539581Y-139010419D03*
X171045000Y-136730000D03*
X167820000Y-133505000D03*
X170100419Y-139010419D03*
X164595000Y-136730000D03*
D38*
X167820000Y-136730000D03*
D37*
X170100419Y-134449581D03*
X165539581Y-134449581D03*
%TD*%
D39*
%TO.P,D202,1,K*%
%TO.N,Net-(D202-Pad1)*%
X135872500Y-105460000D03*
%TO.P,D202,2,A*%
%TO.N,/Microcontroller/USR_LED2*%
X137447500Y-105460000D03*
%TD*%
D40*
%TO.P,C101,1*%
%TO.N,/Power Supply & Connectors/AMS_IN*%
X159755000Y-124620000D03*
%TO.P,C101,2*%
%TO.N,GND*%
X158205000Y-124620000D03*
%TD*%
D37*
%TO.P,H102,1,1*%
%TO.N,GND*%
X164595000Y-96730000D03*
X171045000Y-96730000D03*
X167820000Y-99955000D03*
X170100419Y-94449581D03*
X170100419Y-99010419D03*
D38*
X167820000Y-96730000D03*
D37*
X165539581Y-99010419D03*
X167820000Y-93505000D03*
X165539581Y-94449581D03*
%TD*%
D39*
%TO.P,D201,1,K*%
%TO.N,Net-(D201-Pad1)*%
X135892500Y-102410000D03*
%TO.P,D201,2,A*%
%TO.N,/Microcontroller/USR_LED1*%
X137467500Y-102410000D03*
%TD*%
D41*
%TO.P,C201,1*%
%TO.N,+3.3V*%
X150870000Y-107850000D03*
%TO.P,C201,2*%
%TO.N,GND*%
X150870000Y-108810000D03*
%TD*%
D42*
%TO.P,SW202,*%
%TO.N,*%
X169710000Y-110080000D03*
X169710000Y-117380000D03*
X171920000Y-117380000D03*
X171920000Y-110080000D03*
D43*
%TO.P,SW202,1,A*%
%TO.N,GND*%
X169060000Y-115980000D03*
%TO.P,SW202,2,B*%
%TO.N,Net-(R202-Pad1)*%
X169060000Y-112980000D03*
%TO.P,SW202,3,C*%
%TO.N,+3.3V*%
X169060000Y-111480000D03*
%TD*%
D44*
%TO.P,C102,1*%
%TO.N,+3.3V*%
X154530000Y-119205000D03*
%TO.P,C102,2*%
%TO.N,GND*%
X154530000Y-120755000D03*
%TD*%
D45*
%TO.P,J101,1,Pin_1*%
%TO.N,+5V*%
X167470000Y-128580000D03*
D46*
%TO.P,J101,2,Pin_2*%
%TO.N,GND*%
X167470000Y-126080000D03*
%TD*%
D47*
%TO.P,R206,1*%
%TO.N,/Microcontroller/I2C1_SDA*%
X147220000Y-109930000D03*
%TO.P,R206,2*%
%TO.N,+3.3V*%
X148240000Y-109930000D03*
%TD*%
D35*
%TO.P,C207,1*%
%TO.N,+3.3V*%
X156220000Y-103580000D03*
%TO.P,C207,2*%
%TO.N,GND*%
X156220000Y-102620000D03*
%TD*%
D26*
%TO.P,C203,1*%
%TO.N,+3.3V*%
X143590000Y-104630000D03*
%TO.P,C203,2*%
%TO.N,GND*%
X142630000Y-104630000D03*
%TD*%
D41*
%TO.P,C202,1*%
%TO.N,+3.3V*%
X149870000Y-107850000D03*
%TO.P,C202,2*%
%TO.N,GND*%
X149870000Y-108810000D03*
%TD*%
D48*
%TO.P,FB201,1*%
%TO.N,+3.3V*%
X153757500Y-105520000D03*
%TO.P,FB201,2*%
%TO.N,+3.3VA*%
X152182500Y-105520000D03*
%TD*%
D37*
%TO.P,H101,1,1*%
%TO.N,GND*%
X124595000Y-96730000D03*
X130100419Y-94449581D03*
X131045000Y-96730000D03*
D38*
X127820000Y-96730000D03*
D37*
X125539581Y-99010419D03*
X127820000Y-99955000D03*
X125539581Y-94449581D03*
X127820000Y-93505000D03*
X130100419Y-99010419D03*
%TD*%
D49*
%TO.P,D102,1,K*%
%TO.N,Net-(D102-Pad1)*%
X153530000Y-128907500D03*
%TO.P,D102,2,A*%
%TO.N,+3.3V*%
X153530000Y-127332500D03*
%TD*%
D41*
%TO.P,C302,1*%
%TO.N,+3.3V*%
X151020000Y-117950000D03*
%TO.P,C302,2*%
%TO.N,GND*%
X151020000Y-118910000D03*
%TD*%
D50*
%TO.P,F101,1*%
%TO.N,Net-(D101-Pad1)*%
X160952500Y-126380000D03*
%TO.P,F101,2*%
%TO.N,Net-(F101-Pad2)*%
X162827500Y-126380000D03*
%TD*%
D41*
%TO.P,C205,1*%
%TO.N,+3.3VA*%
X150920000Y-105240000D03*
%TO.P,C205,2*%
%TO.N,GND*%
X150920000Y-106200000D03*
%TD*%
D48*
%TO.P,FB101,1*%
%TO.N,Net-(F101-Pad2)*%
X162827500Y-124620000D03*
%TO.P,FB101,2*%
%TO.N,/Power Supply & Connectors/AMS_IN*%
X161252500Y-124620000D03*
%TD*%
D37*
%TO.P,H104,1,1*%
%TO.N,GND*%
X125539581Y-134449581D03*
X130100419Y-134449581D03*
X127820000Y-139955000D03*
D38*
X127820000Y-136730000D03*
D37*
X130100419Y-139010419D03*
X131045000Y-136730000D03*
X124595000Y-136730000D03*
X125539581Y-139010419D03*
X127820000Y-133505000D03*
%TD*%
D51*
%TO.P,U101,1,GND*%
%TO.N,GND*%
X156660000Y-122540000D03*
D52*
%TO.P,U101,2,VO*%
%TO.N,+3.3V*%
X158960000Y-116240000D03*
D51*
X158960000Y-122540000D03*
%TO.P,U101,3,VI*%
%TO.N,/Power Supply & Connectors/AMS_IN*%
X161260000Y-122540000D03*
%TD*%
D10*
%TO.P,J105,1,Pin_1*%
%TO.N,+3.3V*%
X128270000Y-119680000D03*
D11*
%TO.P,J105,2,Pin_2*%
%TO.N,/Microcontroller/UART2_RX*%
X128270000Y-122180000D03*
%TO.P,J105,3,Pin_3*%
%TO.N,GND*%
X128270000Y-124680000D03*
%TO.P,J105,4,Pin_4*%
%TO.N,/Microcontroller/UART2_TX*%
X128270000Y-127180000D03*
%TD*%
D41*
%TO.P,C206,1*%
%TO.N,+3.3VA*%
X149920000Y-105240000D03*
%TO.P,C206,2*%
%TO.N,GND*%
X149920000Y-106200000D03*
%TD*%
D26*
%TO.P,C204,1*%
%TO.N,+3.3V*%
X153350000Y-106770000D03*
%TO.P,C204,2*%
%TO.N,GND*%
X152390000Y-106770000D03*
%TD*%
D53*
%TO.N,GND*%
X166490000Y-101700000D03*
X135240000Y-122450000D03*
X125490000Y-124950000D03*
X142490000Y-120200000D03*
X137990000Y-120200000D03*
X131820000Y-120220000D03*
X131490000Y-122950000D03*
X142520000Y-131170000D03*
X135240000Y-120200000D03*
X148620000Y-115930000D03*
X137990000Y-115700000D03*
D54*
X150730000Y-115460000D03*
D53*
X164990000Y-118950000D03*
X162420000Y-131170000D03*
X144480000Y-122440000D03*
D54*
X150920000Y-109720000D03*
D53*
X168740000Y-106200000D03*
X133490000Y-112700000D03*
X155240000Y-110450000D03*
D54*
X145320000Y-119930000D03*
X151020000Y-119830000D03*
D53*
X162420000Y-139970000D03*
X156320000Y-136970000D03*
X159420000Y-133970000D03*
X138420000Y-135970000D03*
X147720000Y-131170000D03*
X147720000Y-128970000D03*
D54*
X150220000Y-113530000D03*
D53*
X152740000Y-114700000D03*
X156320000Y-133970000D03*
X142460000Y-114040000D03*
D54*
X162260000Y-112370000D03*
X149884500Y-109740000D03*
D53*
X156990000Y-111950000D03*
X147820000Y-117530000D03*
X169490000Y-120950000D03*
X156990000Y-110450000D03*
X137990000Y-122450000D03*
D54*
X149020000Y-120880000D03*
D53*
X155240000Y-108950000D03*
X135320000Y-131170000D03*
X133620000Y-128970000D03*
D54*
X155700000Y-127900000D03*
D53*
X150320000Y-128970000D03*
X140740000Y-120200000D03*
D54*
X154390000Y-124600000D03*
D53*
X150240000Y-122450000D03*
D54*
X152370000Y-107670000D03*
D53*
X170990000Y-106200000D03*
X125490000Y-108700000D03*
D54*
X167600000Y-115980000D03*
D53*
X145710000Y-104330000D03*
D54*
X154390000Y-123300000D03*
D53*
X147020000Y-117530000D03*
X159420000Y-139970000D03*
X155990000Y-94450000D03*
X158990000Y-111950000D03*
X135320000Y-135970000D03*
X145740000Y-94450000D03*
D54*
X137680000Y-104110000D03*
D53*
X168740000Y-103950000D03*
X139990000Y-99200000D03*
X155240000Y-113200000D03*
X135320000Y-138970000D03*
X162420000Y-133970000D03*
X133489012Y-115698024D03*
X156990000Y-108950000D03*
X131820000Y-117970000D03*
X135790000Y-111060000D03*
X152740000Y-122450000D03*
X166490000Y-106200000D03*
X142490000Y-117950000D03*
X148620000Y-116730000D03*
X139680000Y-110590000D03*
X160740000Y-106200000D03*
X125450000Y-130950000D03*
X135240000Y-115700000D03*
X142490000Y-115700000D03*
X133620000Y-138970000D03*
X140740000Y-106700000D03*
X148620000Y-117530000D03*
X144420000Y-128970000D03*
X159420000Y-136970000D03*
D54*
X144970000Y-115480000D03*
X155690000Y-124600000D03*
D53*
X133620000Y-131170000D03*
X125490000Y-105450000D03*
X170990000Y-101700000D03*
X136490000Y-94450000D03*
X147020000Y-116730000D03*
X133490000Y-120220000D03*
X147020000Y-115930000D03*
X125490000Y-121950000D03*
X170240000Y-124950000D03*
D54*
X157020000Y-102620000D03*
D53*
X136740000Y-106700000D03*
X156990000Y-113200000D03*
X142490000Y-122450000D03*
D54*
X154890000Y-127150000D03*
D53*
X142520000Y-128970000D03*
X140740000Y-108450000D03*
X138740000Y-108450000D03*
X162240000Y-114700000D03*
X131740000Y-112700000D03*
X142520000Y-133370000D03*
X152870000Y-108620000D03*
X147740000Y-122450000D03*
X144490000Y-120210000D03*
X158728145Y-106190332D03*
X164990000Y-116700000D03*
X142240000Y-94450000D03*
X139240000Y-104200000D03*
D54*
X149920000Y-119930000D03*
D53*
X164990000Y-114700000D03*
X139740000Y-94450000D03*
X133490000Y-117970000D03*
X149740000Y-94450000D03*
X131740000Y-106700000D03*
D54*
X154390000Y-122100000D03*
D53*
X167240000Y-118950000D03*
X137990000Y-117950000D03*
X125490000Y-118450000D03*
X125450000Y-102250000D03*
X159420000Y-131170000D03*
X158990000Y-113200000D03*
X147120000Y-105670000D03*
X164990000Y-113200000D03*
X150320000Y-131170000D03*
X170990000Y-103950000D03*
X125490000Y-114700000D03*
D54*
X156990000Y-124600000D03*
D53*
X125490000Y-128200000D03*
X153233862Y-94445949D03*
D54*
X136980000Y-110970000D03*
D53*
X135320000Y-133370000D03*
X156320000Y-131170000D03*
X144490000Y-117950000D03*
X170240000Y-129700000D03*
X167240000Y-120950000D03*
X155240000Y-111950000D03*
X134240000Y-108450000D03*
X133560000Y-110040000D03*
X125490000Y-111450000D03*
X153240000Y-118200000D03*
X171740000Y-120950000D03*
X147820000Y-116730000D03*
X138420000Y-138970000D03*
X164990000Y-120950000D03*
X133620000Y-133370000D03*
X140740000Y-115700000D03*
X138700000Y-112070000D03*
X131740000Y-115700000D03*
X168740000Y-101700000D03*
X155990000Y-114700000D03*
X145240000Y-111930000D03*
D54*
X137670000Y-101070000D03*
D53*
X151570000Y-106570000D03*
X140740000Y-122450000D03*
X144420000Y-131170000D03*
X133520000Y-122470000D03*
X148520000Y-108170000D03*
X166490000Y-103950000D03*
X150220000Y-101370000D03*
X135240000Y-117950000D03*
X135320000Y-128970000D03*
X162420000Y-136970000D03*
D54*
X149520000Y-112730000D03*
D53*
X145540000Y-108700000D03*
X148220000Y-101630000D03*
X147820000Y-115930000D03*
X142630000Y-103920000D03*
X166490000Y-108200000D03*
X147160000Y-111890000D03*
X140740000Y-114050000D03*
X142520000Y-135970000D03*
X159240000Y-94450000D03*
X133620000Y-135970000D03*
X140740000Y-117950000D03*
X134240000Y-106700000D03*
D54*
%TO.N,+3.3V*%
X158890000Y-119000000D03*
X167540000Y-111480000D03*
X144520000Y-109930000D03*
X147010000Y-120920000D03*
X157090000Y-120000000D03*
D53*
X143390000Y-103800000D03*
D54*
X153370000Y-107670000D03*
X157090000Y-118000000D03*
X136980000Y-113430000D03*
D53*
X138730000Y-111260000D03*
D54*
X150880000Y-107164500D03*
X160790000Y-118000000D03*
D53*
X147920000Y-109270000D03*
D54*
X160790000Y-120000000D03*
X160030000Y-109820000D03*
X153540000Y-126210000D03*
X141550000Y-111050000D03*
X156220000Y-104470000D03*
X151010000Y-117000000D03*
D53*
%TO.N,/Microcontroller/UART2_RX*%
X147720000Y-102070000D03*
X134510000Y-110090000D03*
%TO.N,/Microcontroller/UART2_TX*%
X135720000Y-110300000D03*
X148730000Y-102160000D03*
%TO.N,/Microcontroller/NRST*%
X147870000Y-105330000D03*
X152000000Y-109680000D03*
%TO.N,/Microcontroller/I2C1_SDA*%
X146980000Y-111150000D03*
X145810000Y-112320000D03*
%TD*%
D55*
%TO.N,GND*%
X151020000Y-119530000D02*
X151020000Y-119830000D01*
X149020000Y-120880000D02*
X149020000Y-120830000D01*
X146100000Y-119930000D02*
X145320000Y-119930000D01*
D56*
X149770000Y-115480000D02*
X150710000Y-115480000D01*
D55*
X156220000Y-102620000D02*
X157020000Y-102620000D01*
X149500000Y-113530000D02*
X150220000Y-113530000D01*
X142630000Y-104630000D02*
X142630000Y-103920000D01*
D56*
X148570000Y-119206041D02*
X149030000Y-119666041D01*
D57*
X152349999Y-107649999D02*
X152349999Y-106770000D01*
D55*
X136980000Y-111750000D02*
X136980000Y-110970000D01*
D58*
X139680000Y-111415000D02*
X139680000Y-110590000D01*
D56*
X149030000Y-119666041D02*
X149030000Y-119930000D01*
D55*
X155690000Y-127890000D02*
X155700000Y-127900000D01*
X149030000Y-119930000D02*
X149920000Y-119930000D01*
X149020000Y-119940000D02*
X149030000Y-119930000D01*
X154950000Y-127150000D02*
X155700000Y-127900000D01*
X151200000Y-106200000D02*
X150920000Y-106200000D01*
X169060000Y-115980000D02*
X167600000Y-115980000D01*
X150870000Y-108810000D02*
X150814500Y-108810000D01*
X154890000Y-127890000D02*
X155690000Y-127890000D01*
X149500000Y-112750000D02*
X149520000Y-112730000D01*
X149020000Y-120830000D02*
X149920000Y-119930000D01*
X149904500Y-109720000D02*
X149884500Y-109740000D01*
X154890000Y-127150000D02*
X154950000Y-127150000D01*
X137660000Y-104130000D02*
X136890000Y-104130000D01*
X149500000Y-113530000D02*
X149500000Y-112750000D01*
X149020000Y-120880000D02*
X149020000Y-119940000D01*
X152390000Y-106770000D02*
X151770000Y-106770000D01*
D57*
X162260000Y-111340000D02*
X162260000Y-112370000D01*
D56*
X145870000Y-115480000D02*
X144970000Y-115480000D01*
X148570000Y-118680000D02*
X148570000Y-119206041D01*
D55*
X150870000Y-108810000D02*
X150870000Y-109670000D01*
X150220000Y-101370000D02*
X151450000Y-101370000D01*
X150870000Y-109670000D02*
X150920000Y-109720000D01*
X149520000Y-112730000D02*
X149520000Y-112830000D01*
X150920000Y-109720000D02*
X149904500Y-109720000D01*
X149884500Y-108824500D02*
X149870000Y-108810000D01*
X149870000Y-108810000D02*
X150870000Y-108810000D01*
D56*
X150710000Y-115480000D02*
X150730000Y-115460000D01*
D55*
X136920000Y-101070000D02*
X137670000Y-101070000D01*
D57*
X152370000Y-107670000D02*
X152349999Y-107649999D01*
D55*
X137680000Y-104110000D02*
X137660000Y-104130000D01*
D57*
X149920000Y-106200000D02*
X150920000Y-106200000D01*
D55*
X149884500Y-109740000D02*
X149884500Y-108824500D01*
X154890000Y-127890000D02*
X154890000Y-127150000D01*
X149520000Y-112830000D02*
X150220000Y-113530000D01*
D59*
X145710000Y-104330000D02*
X144782500Y-104330000D01*
D55*
X151770000Y-106770000D02*
X151200000Y-106200000D01*
D59*
X148520000Y-108170000D02*
X148220000Y-107870000D01*
D55*
X150814500Y-108810000D02*
X149884500Y-109740000D01*
D58*
X138080000Y-112065000D02*
X138695000Y-112065000D01*
D55*
X151020000Y-118910000D02*
X151020000Y-119530000D01*
D58*
X138695000Y-112065000D02*
X138700000Y-112070000D01*
D59*
X148220000Y-107870000D02*
X148220000Y-107327500D01*
D58*
%TO.N,+3.3V*%
X138080000Y-112715000D02*
X136985000Y-112715000D01*
D55*
X154000000Y-103580000D02*
X153990000Y-103570000D01*
X150870000Y-107850000D02*
X150870000Y-107174500D01*
X143580000Y-104620000D02*
X143590000Y-104630000D01*
X143580000Y-103990000D02*
X143580000Y-104620000D01*
D59*
X144782500Y-104830000D02*
X144180000Y-104830000D01*
D60*
X153530000Y-126220000D02*
X153540000Y-126210000D01*
D55*
X150870000Y-107174500D02*
X150880000Y-107164500D01*
X151010000Y-117940000D02*
X151020000Y-117950000D01*
X151010000Y-117000000D02*
X151010000Y-117940000D01*
X140790000Y-111050000D02*
X141550000Y-111050000D01*
X148230000Y-109920000D02*
X148240000Y-109930000D01*
D59*
X149870000Y-107480000D02*
X149870000Y-107850000D01*
D55*
X156220000Y-103580000D02*
X154000000Y-103580000D01*
D60*
X153530000Y-127332500D02*
X153530000Y-126220000D01*
D55*
X148230000Y-109580000D02*
X148230000Y-109920000D01*
D58*
X136985000Y-112715000D02*
X136980000Y-112710000D01*
D55*
X147920000Y-109270000D02*
X148230000Y-109580000D01*
D56*
X147070000Y-119920000D02*
X147060000Y-119930000D01*
X147070000Y-118680000D02*
X147070000Y-119920000D01*
D55*
X156220000Y-104470000D02*
X156220000Y-103580000D01*
D56*
X149770000Y-117980000D02*
X150990000Y-117980000D01*
D55*
X147060000Y-120870000D02*
X147060000Y-119930000D01*
D57*
X153370000Y-106790000D02*
X153350000Y-106770000D01*
D59*
X143980000Y-104630000D02*
X143590000Y-104630000D01*
D57*
X153350000Y-105927500D02*
X153757500Y-105520000D01*
D55*
X147010000Y-120920000D02*
X147060000Y-120870000D01*
X136980000Y-112710000D02*
X136980000Y-113430000D01*
D56*
X150990000Y-117980000D02*
X151020000Y-117950000D01*
D59*
X148717500Y-106830000D02*
X149220000Y-106830000D01*
D55*
X150870000Y-107850000D02*
X149870000Y-107850000D01*
X160030000Y-108960000D02*
X160030000Y-109820000D01*
D59*
X144180000Y-104830000D02*
X143980000Y-104630000D01*
X149220000Y-106830000D02*
X149870000Y-107480000D01*
D55*
X145270000Y-109930000D02*
X144520000Y-109930000D01*
D57*
X153370000Y-107670000D02*
X153370000Y-106790000D01*
D55*
X143390000Y-103800000D02*
X143580000Y-103990000D01*
D58*
X138575000Y-111415000D02*
X138080000Y-111415000D01*
D57*
X153350000Y-106770000D02*
X153350000Y-105927500D01*
D58*
X138730000Y-111260000D02*
X138575000Y-111415000D01*
D55*
X169060000Y-111480000D02*
X167540000Y-111480000D01*
%TO.N,+3.3VA*%
X151902500Y-105240000D02*
X152182500Y-105520000D01*
X150920000Y-105240000D02*
X151902500Y-105240000D01*
D59*
X148657500Y-104830000D02*
X149510000Y-104830000D01*
X149510000Y-104830000D02*
X149920000Y-105240000D01*
D55*
X149920000Y-105240000D02*
X150920000Y-105240000D01*
D59*
%TO.N,/Microcontroller/OSC_IN*%
X149360000Y-104330000D02*
X150120000Y-103570000D01*
X150120000Y-103570000D02*
X151450000Y-103570000D01*
X148657500Y-104330000D02*
X149360000Y-104330000D01*
D56*
%TO.N,Net-(C304-Pad1)*%
X148070000Y-118680000D02*
X148070000Y-119930000D01*
%TO.N,Net-(C305-Pad1)*%
X148570000Y-114780000D02*
X148570000Y-113560000D01*
X148570000Y-113560000D02*
X148540000Y-113530000D01*
D60*
%TO.N,Net-(D101-Pad1)*%
X160950000Y-126382500D02*
X160952500Y-126380000D01*
X160950000Y-128580000D02*
X160950000Y-126382500D01*
%TO.N,+5V*%
X166570000Y-128580000D02*
X163750000Y-128580000D01*
D55*
%TO.N,Net-(D102-Pad1)*%
X153530000Y-128907500D02*
X154887500Y-128907500D01*
X154887500Y-128907500D02*
X154890000Y-128910000D01*
D57*
%TO.N,Net-(D201-Pad1)*%
X135892500Y-102410000D02*
X135892500Y-101077500D01*
D59*
%TO.N,/Microcontroller/USR_LED1*%
X142150000Y-105330000D02*
X139230000Y-102410000D01*
X139230000Y-102410000D02*
X137467500Y-102410000D01*
X144782500Y-105330000D02*
X142150000Y-105330000D01*
D57*
%TO.N,Net-(D202-Pad1)*%
X135872500Y-105460000D02*
X135872500Y-104132500D01*
X135872500Y-104132500D02*
X135870000Y-104130000D01*
D59*
%TO.N,/Microcontroller/USR_LED2*%
X144782500Y-105830000D02*
X138780000Y-105830000D01*
X138780000Y-105830000D02*
X138410000Y-105460000D01*
X138410000Y-105460000D02*
X137447500Y-105460000D01*
D60*
%TO.N,Net-(F101-Pad2)*%
X162827500Y-126380000D02*
X162827500Y-124620000D01*
D59*
%TO.N,/Microcontroller/SWDCLK*%
X143780000Y-109200000D02*
X133350000Y-109200000D01*
X133350000Y-109200000D02*
X128770000Y-113780000D01*
X128770000Y-113780000D02*
X128270000Y-113780000D01*
X145220000Y-107760000D02*
X143780000Y-109200000D01*
X145220000Y-107327500D02*
X145220000Y-107760000D01*
%TO.N,/Microcontroller/SWDIO*%
X144722500Y-106830000D02*
X143080000Y-106830000D01*
X142080000Y-107830000D02*
X130820000Y-107830000D01*
X130820000Y-107830000D02*
X129870000Y-108780000D01*
X143080000Y-106830000D02*
X142080000Y-107830000D01*
X129870000Y-108780000D02*
X128270000Y-108780000D01*
%TO.N,/Microcontroller/ADC2*%
X144275600Y-103830000D02*
X141505600Y-101060000D01*
X144722500Y-103830000D02*
X144275600Y-103830000D01*
X139830000Y-101060000D02*
X137370000Y-98600000D01*
X137370000Y-98600000D02*
X137370000Y-97080000D01*
X141505600Y-101060000D02*
X139830000Y-101060000D01*
%TO.N,/Microcontroller/ADC1*%
X142370000Y-98680000D02*
X142370000Y-97080000D01*
X145220000Y-101530000D02*
X142370000Y-98680000D01*
X145220000Y-103332500D02*
X145220000Y-101530000D01*
%TO.N,/Microcontroller/PWM2*%
X147260000Y-100020000D02*
X149230000Y-100020000D01*
X145720000Y-103392500D02*
X145720000Y-101560000D01*
X145720000Y-101560000D02*
X147260000Y-100020000D01*
X149230000Y-100020000D02*
X150770000Y-98480000D01*
X150770000Y-98480000D02*
X150770000Y-97080000D01*
%TO.N,/Microcontroller/PWM1*%
X146220000Y-102160000D02*
X147320000Y-101060000D01*
X155770000Y-98580000D02*
X155770000Y-97080000D01*
X149450000Y-101060000D02*
X151230000Y-99280000D01*
X147320000Y-101060000D02*
X149450000Y-101060000D01*
X155070000Y-99280000D02*
X155770000Y-98580000D01*
X151230000Y-99280000D02*
X155070000Y-99280000D01*
X146220000Y-103392500D02*
X146220000Y-102160000D01*
%TO.N,/Microcontroller/UART2_RX*%
X131530000Y-122180000D02*
X128270000Y-122180000D01*
X132780000Y-111820000D02*
X132780000Y-120930000D01*
X132780000Y-120930000D02*
X131530000Y-122180000D01*
X147720000Y-102070000D02*
X147720000Y-103392500D01*
X134510000Y-110090000D02*
X132780000Y-111820000D01*
%TO.N,/Microcontroller/UART2_TX*%
X135720000Y-110300000D02*
X134240000Y-111780000D01*
X148730000Y-102160000D02*
X148220000Y-102670000D01*
X148220000Y-102670000D02*
X148220000Y-103332500D01*
X134240000Y-124020000D02*
X131080000Y-127180000D01*
X134240000Y-111780000D02*
X134240000Y-124020000D01*
X131080000Y-127180000D02*
X128270000Y-127180000D01*
%TO.N,/Microcontroller/NRST*%
X157340000Y-109680000D02*
X159090000Y-107930000D01*
X148657500Y-105330000D02*
X147870000Y-105330000D01*
X159090000Y-107930000D02*
X160020000Y-107930000D01*
X160020000Y-107930000D02*
X160030000Y-107940000D01*
X152000000Y-109680000D02*
X157340000Y-109680000D01*
D55*
X160030000Y-107940000D02*
X162260000Y-107940000D01*
%TO.N,Net-(R202-Pad1)*%
X167410000Y-112990000D02*
X169050000Y-112990000D01*
X169050000Y-112990000D02*
X169060000Y-112980000D01*
D59*
%TO.N,/Microcontroller/BOOT0*%
X147720000Y-108190000D02*
X148860000Y-109330000D01*
X147720000Y-107267500D02*
X147720000Y-108190000D01*
X148860000Y-110560000D02*
X152310000Y-114010000D01*
X148860000Y-109330000D02*
X148860000Y-110560000D01*
X152310000Y-114010000D02*
X167410000Y-114010000D01*
%TO.N,/Microcontroller/I2C1_SCL*%
X147070000Y-112750000D02*
X146290000Y-111970000D01*
X146290000Y-111030000D02*
X146290000Y-109930000D01*
X139680000Y-113365000D02*
X142855000Y-113365000D01*
X146720000Y-107267500D02*
X146720000Y-107810000D01*
X146720000Y-107810000D02*
X146290000Y-108240000D01*
X146290000Y-111970000D02*
X146290000Y-111030000D01*
X147070000Y-114780000D02*
X147070000Y-112750000D01*
X142855000Y-113365000D02*
X145190000Y-111030000D01*
X146290000Y-108240000D02*
X146290000Y-109930000D01*
X145190000Y-111030000D02*
X146290000Y-111030000D01*
%TO.N,/Microcontroller/I2C1_SDA*%
X146570000Y-113080000D02*
X145810000Y-112320000D01*
X139680000Y-112715000D02*
X139205000Y-112715000D01*
X147220000Y-110910000D02*
X147220000Y-109930000D01*
X143430000Y-114700000D02*
X145810000Y-112320000D01*
X147220000Y-107267500D02*
X147220000Y-109930000D01*
X138910000Y-114100000D02*
X139510000Y-114700000D01*
X139205000Y-112715000D02*
X138910000Y-113010000D01*
X139510000Y-114700000D02*
X143430000Y-114700000D01*
X146570000Y-114780000D02*
X146570000Y-113080000D01*
X146980000Y-111150000D02*
X147220000Y-110910000D01*
X138910000Y-113010000D02*
X138910000Y-114100000D01*
D58*
%TO.N,Net-(R301-Pad2)*%
X140785000Y-112065000D02*
X140790000Y-112070000D01*
X139680000Y-112065000D02*
X140785000Y-112065000D01*
%TD*%
%TA.AperFunction,Conductor*%
%TO.N,GND*%
G36*
X155005931Y-120220002D02*
G01*
X155026905Y-120236905D01*
X155153095Y-120363095D01*
X155187121Y-120425407D01*
X155190000Y-120452190D01*
X155190000Y-121200000D01*
X155390000Y-121400000D01*
X157337810Y-121400000D01*
X157405931Y-121420002D01*
X157426905Y-121436905D01*
X157553095Y-121563095D01*
X157587121Y-121625407D01*
X157590000Y-121652190D01*
X157590000Y-123800000D01*
X157790000Y-124000000D01*
X158537810Y-124000000D01*
X158605931Y-124020002D01*
X158626905Y-124036905D01*
X158753095Y-124163095D01*
X158787121Y-124225407D01*
X158790000Y-124252190D01*
X158790000Y-125047810D01*
X158769998Y-125115931D01*
X158753095Y-125136905D01*
X158626905Y-125263095D01*
X158564593Y-125297121D01*
X158537810Y-125300000D01*
X153957433Y-125300000D01*
X153889312Y-125279998D01*
X153852595Y-125243892D01*
X153711162Y-125031743D01*
X153690000Y-124961851D01*
X153690000Y-120452190D01*
X153710002Y-120384069D01*
X153726905Y-120363095D01*
X153853095Y-120236905D01*
X153915407Y-120202879D01*
X153942190Y-120200000D01*
X154937810Y-120200000D01*
X155005931Y-120220002D01*
G37*
%TD.AperFunction*%
%TD*%
%TA.AperFunction,Conductor*%
%TO.N,/Power Supply & Connectors/AMS_IN*%
G36*
X161935931Y-121400002D02*
G01*
X161956905Y-121416905D01*
X162083095Y-121543095D01*
X162117121Y-121605407D01*
X162120000Y-121632190D01*
X162120000Y-123627810D01*
X162099998Y-123695931D01*
X162083095Y-123716905D01*
X161920000Y-123880000D01*
X161920000Y-125127810D01*
X161899998Y-125195931D01*
X161883095Y-125216905D01*
X161856905Y-125243095D01*
X161794593Y-125277121D01*
X161767810Y-125280000D01*
X159372190Y-125280000D01*
X159304069Y-125259998D01*
X159283095Y-125243095D01*
X159256905Y-125216905D01*
X159222879Y-125154593D01*
X159220000Y-125127810D01*
X159220000Y-124132190D01*
X159240002Y-124064069D01*
X159256905Y-124043095D01*
X159283095Y-124016905D01*
X159345407Y-123982879D01*
X159372190Y-123980000D01*
X160220000Y-123980000D01*
X160420000Y-123880000D01*
X160420000Y-121632190D01*
X160440002Y-121564069D01*
X160456905Y-121543095D01*
X160583095Y-121416905D01*
X160645407Y-121382879D01*
X160672190Y-121380000D01*
X161867810Y-121380000D01*
X161935931Y-121400002D01*
G37*
%TD.AperFunction*%
%TD*%
%TA.AperFunction,Conductor*%
%TO.N,+3.3V*%
G36*
X160935931Y-115000002D02*
G01*
X160956905Y-115016905D01*
X161083095Y-115143095D01*
X161117121Y-115205407D01*
X161120000Y-115232190D01*
X161120000Y-117380000D01*
X161469600Y-117642200D01*
X161512095Y-117699074D01*
X161520000Y-117743000D01*
X161520000Y-120727810D01*
X161499998Y-120795931D01*
X161483095Y-120816905D01*
X161356905Y-120943095D01*
X161294593Y-120977121D01*
X161267810Y-120980000D01*
X160020000Y-120980000D01*
X159820000Y-121180000D01*
X159820000Y-123370255D01*
X159806698Y-123426603D01*
X159754826Y-123530348D01*
X159706471Y-123582333D01*
X159642128Y-123600000D01*
X158267872Y-123600000D01*
X158199751Y-123579998D01*
X158155174Y-123530348D01*
X158103302Y-123426603D01*
X158090000Y-123370255D01*
X158090000Y-121180000D01*
X157890000Y-120980000D01*
X156672190Y-120980000D01*
X156604069Y-120959998D01*
X156583095Y-120943095D01*
X156456905Y-120816905D01*
X156422879Y-120754593D01*
X156420000Y-120727810D01*
X156420000Y-120000000D01*
X156220000Y-119800000D01*
X153972190Y-119800000D01*
X153904069Y-119779998D01*
X153883095Y-119763095D01*
X153756905Y-119636905D01*
X153722879Y-119574593D01*
X153720000Y-119547810D01*
X153720000Y-118732190D01*
X153740002Y-118664069D01*
X153756905Y-118643095D01*
X153883095Y-118516905D01*
X153945407Y-118482879D01*
X153972190Y-118480000D01*
X156420000Y-118480000D01*
X156620000Y-118280000D01*
X156620000Y-117732190D01*
X156640002Y-117664069D01*
X156656905Y-117643095D01*
X156820000Y-117480000D01*
X156820000Y-115232190D01*
X156840002Y-115164069D01*
X156856905Y-115143095D01*
X156983095Y-115016905D01*
X157045407Y-114982879D01*
X157072190Y-114980000D01*
X160867810Y-114980000D01*
X160935931Y-115000002D01*
G37*
%TD.AperFunction*%
%TD*%
M02*
