%TF.GenerationSoftware,KiCad,Pcbnew,(6.0.7)*%
%TF.CreationDate,2024-06-12T19:26:07+01:00*%
%TF.ProjectId,BaroAxel_Brain,4261726f-4178-4656-9c5f-427261696e2e,1.0*%
%TF.SameCoordinates,Original*%
%TF.FileFunction,Legend,Bot*%
%TF.FilePolarity,Positive*%
%FSLAX46Y46*%
G04 Gerber Fmt 4.6, Leading zero omitted, Abs format (unit mm)*
G04 Created by KiCad (PCBNEW (6.0.7)) date 2024-06-12 19:26:07*
%MOMM*%
%LPD*%
G01*
G04 APERTURE LIST*
%ADD10C,0.150000*%
%ADD11C,0.400000*%
%ADD12C,0.100000*%
%ADD13C,0.300000*%
G04 APERTURE END LIST*
D10*
X152550000Y-136050000D02*
G75*
G03*
X153550000Y-135050000I0J1000000D01*
G01*
X144550000Y-136050000D02*
X152550000Y-136050000D01*
X153550000Y-133050000D02*
G75*
G03*
X152550000Y-132050000I-1000000J0D01*
G01*
X143550000Y-133050000D02*
X143550000Y-135050000D01*
X144550000Y-132050000D02*
G75*
G03*
X143550000Y-133050000I0J-1000000D01*
G01*
X143550000Y-135050000D02*
G75*
G03*
X144550000Y-136050000I1000000J0D01*
G01*
X152550000Y-132050000D02*
X144550000Y-132050000D01*
X153550000Y-135050000D02*
X153550000Y-133050000D01*
G36*
X164530000Y-108630000D02*
G01*
X159530000Y-108630000D01*
X159530000Y-103630000D01*
X164530000Y-103630000D01*
X164530000Y-108630000D01*
G37*
X164530000Y-108630000D02*
X159530000Y-108630000D01*
X159530000Y-103630000D01*
X164530000Y-103630000D01*
X164530000Y-108630000D01*
D11*
X164507142Y-122921428D02*
X163907142Y-122921428D01*
X163650000Y-123864285D02*
X164507142Y-123864285D01*
X164507142Y-122064285D01*
X163650000Y-122064285D01*
X162621428Y-123864285D02*
X162792857Y-123778571D01*
X162878571Y-123607142D01*
X162878571Y-122064285D01*
X161250000Y-123778571D02*
X161421428Y-123864285D01*
X161764285Y-123864285D01*
X161935714Y-123778571D01*
X162021428Y-123607142D01*
X162021428Y-122921428D01*
X161935714Y-122750000D01*
X161764285Y-122664285D01*
X161421428Y-122664285D01*
X161250000Y-122750000D01*
X161164285Y-122921428D01*
X161164285Y-123092857D01*
X162021428Y-123264285D01*
X159621428Y-123778571D02*
X159792857Y-123864285D01*
X160135714Y-123864285D01*
X160307142Y-123778571D01*
X160392857Y-123692857D01*
X160478571Y-123521428D01*
X160478571Y-123007142D01*
X160392857Y-122835714D01*
X160307142Y-122750000D01*
X160135714Y-122664285D01*
X159792857Y-122664285D01*
X159621428Y-122750000D01*
X159107142Y-122664285D02*
X158421428Y-122664285D01*
X158850000Y-122064285D02*
X158850000Y-123607142D01*
X158764285Y-123778571D01*
X158592857Y-123864285D01*
X158421428Y-123864285D01*
X157821428Y-123864285D02*
X157821428Y-122664285D01*
X157821428Y-123007142D02*
X157735714Y-122835714D01*
X157650000Y-122750000D01*
X157478571Y-122664285D01*
X157307142Y-122664285D01*
X156450000Y-123864285D02*
X156621428Y-123778571D01*
X156707142Y-123692857D01*
X156792857Y-123521428D01*
X156792857Y-123007142D01*
X156707142Y-122835714D01*
X156621428Y-122750000D01*
X156450000Y-122664285D01*
X156192857Y-122664285D01*
X156021428Y-122750000D01*
X155935714Y-122835714D01*
X155850000Y-123007142D01*
X155850000Y-123521428D01*
X155935714Y-123692857D01*
X156021428Y-123778571D01*
X156192857Y-123864285D01*
X156450000Y-123864285D01*
X153792857Y-123778571D02*
X153535714Y-123864285D01*
X153107142Y-123864285D01*
X152935714Y-123778571D01*
X152850000Y-123692857D01*
X152764285Y-123521428D01*
X152764285Y-123350000D01*
X152850000Y-123178571D01*
X152935714Y-123092857D01*
X153107142Y-123007142D01*
X153450000Y-122921428D01*
X153621428Y-122835714D01*
X153707142Y-122750000D01*
X153792857Y-122578571D01*
X153792857Y-122407142D01*
X153707142Y-122235714D01*
X153621428Y-122150000D01*
X153450000Y-122064285D01*
X153021428Y-122064285D01*
X152764285Y-122150000D01*
X151221428Y-123778571D02*
X151392857Y-123864285D01*
X151735714Y-123864285D01*
X151907142Y-123778571D01*
X151992857Y-123692857D01*
X152078571Y-123521428D01*
X152078571Y-123007142D01*
X151992857Y-122835714D01*
X151907142Y-122750000D01*
X151735714Y-122664285D01*
X151392857Y-122664285D01*
X151221428Y-122750000D01*
X150450000Y-123864285D02*
X150450000Y-122664285D01*
X150450000Y-122064285D02*
X150535714Y-122150000D01*
X150450000Y-122235714D01*
X150364285Y-122150000D01*
X150450000Y-122064285D01*
X150450000Y-122235714D01*
X148907142Y-123778571D02*
X149078571Y-123864285D01*
X149421428Y-123864285D01*
X149592857Y-123778571D01*
X149678571Y-123607142D01*
X149678571Y-122921428D01*
X149592857Y-122750000D01*
X149421428Y-122664285D01*
X149078571Y-122664285D01*
X148907142Y-122750000D01*
X148821428Y-122921428D01*
X148821428Y-123092857D01*
X149678571Y-123264285D01*
X148050000Y-122664285D02*
X148050000Y-123864285D01*
X148050000Y-122835714D02*
X147964285Y-122750000D01*
X147792857Y-122664285D01*
X147535714Y-122664285D01*
X147364285Y-122750000D01*
X147278571Y-122921428D01*
X147278571Y-123864285D01*
X146678571Y-122664285D02*
X145992857Y-122664285D01*
X146421428Y-122064285D02*
X146421428Y-123607142D01*
X146335714Y-123778571D01*
X146164285Y-123864285D01*
X145992857Y-123864285D01*
X145392857Y-123864285D02*
X145392857Y-122664285D01*
X145392857Y-122064285D02*
X145478571Y-122150000D01*
X145392857Y-122235714D01*
X145307142Y-122150000D01*
X145392857Y-122064285D01*
X145392857Y-122235714D01*
X144792857Y-122664285D02*
X144107142Y-122664285D01*
X144535714Y-123864285D02*
X144535714Y-122321428D01*
X144450000Y-122150000D01*
X144278571Y-122064285D01*
X144107142Y-122064285D01*
X143507142Y-123864285D02*
X143507142Y-122664285D01*
X143507142Y-122064285D02*
X143592857Y-122150000D01*
X143507142Y-122235714D01*
X143421428Y-122150000D01*
X143507142Y-122064285D01*
X143507142Y-122235714D01*
X141878571Y-123778571D02*
X142050000Y-123864285D01*
X142392857Y-123864285D01*
X142564285Y-123778571D01*
X142650000Y-123692857D01*
X142735714Y-123521428D01*
X142735714Y-123007142D01*
X142650000Y-122835714D01*
X142564285Y-122750000D01*
X142392857Y-122664285D01*
X142050000Y-122664285D01*
X141878571Y-122750000D01*
X138707142Y-123692857D02*
X138792857Y-123778571D01*
X139050000Y-123864285D01*
X139221428Y-123864285D01*
X139478571Y-123778571D01*
X139650000Y-123607142D01*
X139735714Y-123435714D01*
X139821428Y-123092857D01*
X139821428Y-122835714D01*
X139735714Y-122492857D01*
X139650000Y-122321428D01*
X139478571Y-122150000D01*
X139221428Y-122064285D01*
X139050000Y-122064285D01*
X138792857Y-122150000D01*
X138707142Y-122235714D01*
X137678571Y-123864285D02*
X137850000Y-123778571D01*
X137935714Y-123607142D01*
X137935714Y-122064285D01*
X136221428Y-122664285D02*
X136221428Y-123864285D01*
X136992857Y-122664285D02*
X136992857Y-123607142D01*
X136907142Y-123778571D01*
X136735714Y-123864285D01*
X136478571Y-123864285D01*
X136307142Y-123778571D01*
X136221428Y-123692857D01*
X135364285Y-123864285D02*
X135364285Y-122064285D01*
X135364285Y-122750000D02*
X135192857Y-122664285D01*
X134850000Y-122664285D01*
X134678571Y-122750000D01*
X134592857Y-122835714D01*
X134507142Y-123007142D01*
X134507142Y-123521428D01*
X134592857Y-123692857D01*
X134678571Y-123778571D01*
X134850000Y-123864285D01*
X135192857Y-123864285D01*
X135364285Y-123778571D01*
D12*
X152820000Y-100172857D02*
X152791428Y-100115714D01*
X152791428Y-100030000D01*
X152820000Y-99944285D01*
X152877142Y-99887142D01*
X152934285Y-99858571D01*
X153048571Y-99830000D01*
X153134285Y-99830000D01*
X153248571Y-99858571D01*
X153305714Y-99887142D01*
X153362857Y-99944285D01*
X153391428Y-100030000D01*
X153391428Y-100087142D01*
X153362857Y-100172857D01*
X153334285Y-100201428D01*
X153134285Y-100201428D01*
X153134285Y-100087142D01*
X153391428Y-100458571D02*
X152791428Y-100458571D01*
X153391428Y-100801428D01*
X152791428Y-100801428D01*
X153391428Y-101087142D02*
X152791428Y-101087142D01*
X152791428Y-101230000D01*
X152820000Y-101315714D01*
X152877142Y-101372857D01*
X152934285Y-101401428D01*
X153048571Y-101430000D01*
X153134285Y-101430000D01*
X153248571Y-101401428D01*
X153305714Y-101372857D01*
X153362857Y-101315714D01*
X153391428Y-101230000D01*
X153391428Y-101087142D01*
X134377142Y-114472857D02*
X134291428Y-114501428D01*
X134148571Y-114501428D01*
X134091428Y-114472857D01*
X134062857Y-114444285D01*
X134034285Y-114387142D01*
X134034285Y-114330000D01*
X134062857Y-114272857D01*
X134091428Y-114244285D01*
X134148571Y-114215714D01*
X134262857Y-114187142D01*
X134320000Y-114158571D01*
X134348571Y-114130000D01*
X134377142Y-114072857D01*
X134377142Y-114015714D01*
X134348571Y-113958571D01*
X134320000Y-113930000D01*
X134262857Y-113901428D01*
X134120000Y-113901428D01*
X134034285Y-113930000D01*
X133834285Y-113901428D02*
X133691428Y-114501428D01*
X133577142Y-114072857D01*
X133462857Y-114501428D01*
X133320000Y-113901428D01*
X133091428Y-114501428D02*
X133091428Y-113901428D01*
X132948571Y-113901428D01*
X132862857Y-113930000D01*
X132805714Y-113987142D01*
X132777142Y-114044285D01*
X132748571Y-114158571D01*
X132748571Y-114244285D01*
X132777142Y-114358571D01*
X132805714Y-114415714D01*
X132862857Y-114472857D01*
X132948571Y-114501428D01*
X133091428Y-114501428D01*
X132148571Y-114444285D02*
X132177142Y-114472857D01*
X132262857Y-114501428D01*
X132320000Y-114501428D01*
X132405714Y-114472857D01*
X132462857Y-114415714D01*
X132491428Y-114358571D01*
X132520000Y-114244285D01*
X132520000Y-114158571D01*
X132491428Y-114044285D01*
X132462857Y-113987142D01*
X132405714Y-113930000D01*
X132320000Y-113901428D01*
X132262857Y-113901428D01*
X132177142Y-113930000D01*
X132148571Y-113958571D01*
X131605714Y-114501428D02*
X131891428Y-114501428D01*
X131891428Y-113901428D01*
X131405714Y-114501428D02*
X131405714Y-113901428D01*
X131062857Y-114501428D02*
X131320000Y-114158571D01*
X131062857Y-113901428D02*
X131405714Y-114244285D01*
D10*
X164355714Y-102242380D02*
X163784285Y-102242380D01*
X164070000Y-103242380D02*
X164070000Y-102242380D01*
X163070000Y-103194761D02*
X163165238Y-103242380D01*
X163355714Y-103242380D01*
X163450952Y-103194761D01*
X163498571Y-103099523D01*
X163498571Y-102718571D01*
X163450952Y-102623333D01*
X163355714Y-102575714D01*
X163165238Y-102575714D01*
X163070000Y-102623333D01*
X163022380Y-102718571D01*
X163022380Y-102813809D01*
X163498571Y-102909047D01*
X162641428Y-103194761D02*
X162546190Y-103242380D01*
X162355714Y-103242380D01*
X162260476Y-103194761D01*
X162212857Y-103099523D01*
X162212857Y-103051904D01*
X162260476Y-102956666D01*
X162355714Y-102909047D01*
X162498571Y-102909047D01*
X162593809Y-102861428D01*
X162641428Y-102766190D01*
X162641428Y-102718571D01*
X162593809Y-102623333D01*
X162498571Y-102575714D01*
X162355714Y-102575714D01*
X162260476Y-102623333D01*
X161927142Y-102575714D02*
X161546190Y-102575714D01*
X161784285Y-102242380D02*
X161784285Y-103099523D01*
X161736666Y-103194761D01*
X161641428Y-103242380D01*
X161546190Y-103242380D01*
X160831904Y-103194761D02*
X160927142Y-103242380D01*
X161117619Y-103242380D01*
X161212857Y-103194761D01*
X161260476Y-103099523D01*
X161260476Y-102718571D01*
X161212857Y-102623333D01*
X161117619Y-102575714D01*
X160927142Y-102575714D01*
X160831904Y-102623333D01*
X160784285Y-102718571D01*
X160784285Y-102813809D01*
X161260476Y-102909047D01*
X159927142Y-103242380D02*
X159927142Y-102242380D01*
X159927142Y-103194761D02*
X160022380Y-103242380D01*
X160212857Y-103242380D01*
X160308095Y-103194761D01*
X160355714Y-103147142D01*
X160403333Y-103051904D01*
X160403333Y-102766190D01*
X160355714Y-102670952D01*
X160308095Y-102623333D01*
X160212857Y-102575714D01*
X160022380Y-102575714D01*
X159927142Y-102623333D01*
D12*
X133177142Y-105972857D02*
X132720000Y-105972857D01*
X132948571Y-106201428D02*
X132948571Y-105744285D01*
X132491428Y-105601428D02*
X132120000Y-105601428D01*
X132320000Y-105830000D01*
X132234285Y-105830000D01*
X132177142Y-105858571D01*
X132148571Y-105887142D01*
X132120000Y-105944285D01*
X132120000Y-106087142D01*
X132148571Y-106144285D01*
X132177142Y-106172857D01*
X132234285Y-106201428D01*
X132405714Y-106201428D01*
X132462857Y-106172857D01*
X132491428Y-106144285D01*
X131948571Y-105601428D02*
X131748571Y-106201428D01*
X131548571Y-105601428D01*
X131405714Y-105601428D02*
X131034285Y-105601428D01*
X131234285Y-105830000D01*
X131148571Y-105830000D01*
X131091428Y-105858571D01*
X131062857Y-105887142D01*
X131034285Y-105944285D01*
X131034285Y-106087142D01*
X131062857Y-106144285D01*
X131091428Y-106172857D01*
X131148571Y-106201428D01*
X131320000Y-106201428D01*
X131377142Y-106172857D01*
X131405714Y-106144285D01*
D10*
X164081904Y-125470000D02*
X164177142Y-125422380D01*
X164320000Y-125422380D01*
X164462857Y-125470000D01*
X164558095Y-125565238D01*
X164605714Y-125660476D01*
X164653333Y-125850952D01*
X164653333Y-125993809D01*
X164605714Y-126184285D01*
X164558095Y-126279523D01*
X164462857Y-126374761D01*
X164320000Y-126422380D01*
X164224761Y-126422380D01*
X164081904Y-126374761D01*
X164034285Y-126327142D01*
X164034285Y-125993809D01*
X164224761Y-125993809D01*
X163605714Y-126422380D02*
X163605714Y-125422380D01*
X163034285Y-126422380D01*
X163034285Y-125422380D01*
X162558095Y-126422380D02*
X162558095Y-125422380D01*
X162320000Y-125422380D01*
X162177142Y-125470000D01*
X162081904Y-125565238D01*
X162034285Y-125660476D01*
X161986666Y-125850952D01*
X161986666Y-125993809D01*
X162034285Y-126184285D01*
X162081904Y-126279523D01*
X162177142Y-126374761D01*
X162320000Y-126422380D01*
X162558095Y-126422380D01*
D12*
X133591428Y-108772857D02*
X133505714Y-108801428D01*
X133362857Y-108801428D01*
X133305714Y-108772857D01*
X133277142Y-108744285D01*
X133248571Y-108687142D01*
X133248571Y-108630000D01*
X133277142Y-108572857D01*
X133305714Y-108544285D01*
X133362857Y-108515714D01*
X133477142Y-108487142D01*
X133534285Y-108458571D01*
X133562857Y-108430000D01*
X133591428Y-108372857D01*
X133591428Y-108315714D01*
X133562857Y-108258571D01*
X133534285Y-108230000D01*
X133477142Y-108201428D01*
X133334285Y-108201428D01*
X133248571Y-108230000D01*
X133048571Y-108201428D02*
X132905714Y-108801428D01*
X132791428Y-108372857D01*
X132677142Y-108801428D01*
X132534285Y-108201428D01*
X132305714Y-108801428D02*
X132305714Y-108201428D01*
X132162857Y-108201428D01*
X132077142Y-108230000D01*
X132020000Y-108287142D01*
X131991428Y-108344285D01*
X131962857Y-108458571D01*
X131962857Y-108544285D01*
X131991428Y-108658571D01*
X132020000Y-108715714D01*
X132077142Y-108772857D01*
X132162857Y-108801428D01*
X132305714Y-108801428D01*
X131705714Y-108801428D02*
X131705714Y-108201428D01*
X131305714Y-108201428D02*
X131191428Y-108201428D01*
X131134285Y-108230000D01*
X131077142Y-108287142D01*
X131048571Y-108401428D01*
X131048571Y-108601428D01*
X131077142Y-108715714D01*
X131134285Y-108772857D01*
X131191428Y-108801428D01*
X131305714Y-108801428D01*
X131362857Y-108772857D01*
X131420000Y-108715714D01*
X131448571Y-108601428D01*
X131448571Y-108401428D01*
X131420000Y-108287142D01*
X131362857Y-108230000D01*
X131305714Y-108201428D01*
X133177142Y-119472857D02*
X132720000Y-119472857D01*
X132948571Y-119701428D02*
X132948571Y-119244285D01*
X132491428Y-119101428D02*
X132120000Y-119101428D01*
X132320000Y-119330000D01*
X132234285Y-119330000D01*
X132177142Y-119358571D01*
X132148571Y-119387142D01*
X132120000Y-119444285D01*
X132120000Y-119587142D01*
X132148571Y-119644285D01*
X132177142Y-119672857D01*
X132234285Y-119701428D01*
X132405714Y-119701428D01*
X132462857Y-119672857D01*
X132491428Y-119644285D01*
X131948571Y-119101428D02*
X131748571Y-119701428D01*
X131548571Y-119101428D01*
X131405714Y-119101428D02*
X131034285Y-119101428D01*
X131234285Y-119330000D01*
X131148571Y-119330000D01*
X131091428Y-119358571D01*
X131062857Y-119387142D01*
X131034285Y-119444285D01*
X131034285Y-119587142D01*
X131062857Y-119644285D01*
X131091428Y-119672857D01*
X131148571Y-119701428D01*
X131320000Y-119701428D01*
X131377142Y-119672857D01*
X131405714Y-119644285D01*
X132277142Y-124830000D02*
X132334285Y-124801428D01*
X132420000Y-124801428D01*
X132505714Y-124830000D01*
X132562857Y-124887142D01*
X132591428Y-124944285D01*
X132620000Y-125058571D01*
X132620000Y-125144285D01*
X132591428Y-125258571D01*
X132562857Y-125315714D01*
X132505714Y-125372857D01*
X132420000Y-125401428D01*
X132362857Y-125401428D01*
X132277142Y-125372857D01*
X132248571Y-125344285D01*
X132248571Y-125144285D01*
X132362857Y-125144285D01*
X131991428Y-125401428D02*
X131991428Y-124801428D01*
X131648571Y-125401428D01*
X131648571Y-124801428D01*
X131362857Y-125401428D02*
X131362857Y-124801428D01*
X131220000Y-124801428D01*
X131134285Y-124830000D01*
X131077142Y-124887142D01*
X131048571Y-124944285D01*
X131020000Y-125058571D01*
X131020000Y-125144285D01*
X131048571Y-125258571D01*
X131077142Y-125315714D01*
X131134285Y-125372857D01*
X131220000Y-125401428D01*
X131362857Y-125401428D01*
D10*
X164705714Y-129041428D02*
X163943809Y-129041428D01*
X164324761Y-129422380D02*
X164324761Y-128660476D01*
X162991428Y-128422380D02*
X163467619Y-128422380D01*
X163515238Y-128898571D01*
X163467619Y-128850952D01*
X163372380Y-128803333D01*
X163134285Y-128803333D01*
X163039047Y-128850952D01*
X162991428Y-128898571D01*
X162943809Y-128993809D01*
X162943809Y-129231904D01*
X162991428Y-129327142D01*
X163039047Y-129374761D01*
X163134285Y-129422380D01*
X163372380Y-129422380D01*
X163467619Y-129374761D01*
X163515238Y-129327142D01*
X162658095Y-128422380D02*
X162324761Y-129422380D01*
X161991428Y-128422380D01*
D12*
X139020000Y-100172857D02*
X138991428Y-100115714D01*
X138991428Y-100030000D01*
X139020000Y-99944285D01*
X139077142Y-99887142D01*
X139134285Y-99858571D01*
X139248571Y-99830000D01*
X139334285Y-99830000D01*
X139448571Y-99858571D01*
X139505714Y-99887142D01*
X139562857Y-99944285D01*
X139591428Y-100030000D01*
X139591428Y-100087142D01*
X139562857Y-100172857D01*
X139534285Y-100201428D01*
X139334285Y-100201428D01*
X139334285Y-100087142D01*
X139591428Y-100458571D02*
X138991428Y-100458571D01*
X139591428Y-100801428D01*
X138991428Y-100801428D01*
X139591428Y-101087142D02*
X138991428Y-101087142D01*
X138991428Y-101230000D01*
X139020000Y-101315714D01*
X139077142Y-101372857D01*
X139134285Y-101401428D01*
X139248571Y-101430000D01*
X139334285Y-101430000D01*
X139448571Y-101401428D01*
X139505714Y-101372857D01*
X139562857Y-101315714D01*
X139591428Y-101230000D01*
X139591428Y-101087142D01*
X158762857Y-99872857D02*
X158762857Y-100330000D01*
X158991428Y-100101428D02*
X158534285Y-100101428D01*
X158391428Y-100558571D02*
X158391428Y-100930000D01*
X158620000Y-100730000D01*
X158620000Y-100815714D01*
X158648571Y-100872857D01*
X158677142Y-100901428D01*
X158734285Y-100930000D01*
X158877142Y-100930000D01*
X158934285Y-100901428D01*
X158962857Y-100872857D01*
X158991428Y-100815714D01*
X158991428Y-100644285D01*
X158962857Y-100587142D01*
X158934285Y-100558571D01*
X158391428Y-101101428D02*
X158991428Y-101301428D01*
X158391428Y-101501428D01*
X158391428Y-101644285D02*
X158391428Y-102015714D01*
X158620000Y-101815714D01*
X158620000Y-101901428D01*
X158648571Y-101958571D01*
X158677142Y-101987142D01*
X158734285Y-102015714D01*
X158877142Y-102015714D01*
X158934285Y-101987142D01*
X158962857Y-101958571D01*
X158991428Y-101901428D01*
X158991428Y-101730000D01*
X158962857Y-101672857D01*
X158934285Y-101644285D01*
X145362857Y-99872857D02*
X145362857Y-100330000D01*
X145591428Y-100101428D02*
X145134285Y-100101428D01*
X144991428Y-100558571D02*
X144991428Y-100930000D01*
X145220000Y-100730000D01*
X145220000Y-100815714D01*
X145248571Y-100872857D01*
X145277142Y-100901428D01*
X145334285Y-100930000D01*
X145477142Y-100930000D01*
X145534285Y-100901428D01*
X145562857Y-100872857D01*
X145591428Y-100815714D01*
X145591428Y-100644285D01*
X145562857Y-100587142D01*
X145534285Y-100558571D01*
X144991428Y-101101428D02*
X145591428Y-101301428D01*
X144991428Y-101501428D01*
X144991428Y-101644285D02*
X144991428Y-102015714D01*
X145220000Y-101815714D01*
X145220000Y-101901428D01*
X145248571Y-101958571D01*
X145277142Y-101987142D01*
X145334285Y-102015714D01*
X145477142Y-102015714D01*
X145534285Y-101987142D01*
X145562857Y-101958571D01*
X145591428Y-101901428D01*
X145591428Y-101730000D01*
X145562857Y-101672857D01*
X145534285Y-101644285D01*
X136820000Y-99901428D02*
X136820000Y-100187142D01*
X136991428Y-99844285D02*
X136391428Y-100044285D01*
X136991428Y-100244285D01*
X136991428Y-100444285D02*
X136391428Y-100444285D01*
X136391428Y-100587142D01*
X136420000Y-100672857D01*
X136477142Y-100730000D01*
X136534285Y-100758571D01*
X136648571Y-100787142D01*
X136734285Y-100787142D01*
X136848571Y-100758571D01*
X136905714Y-100730000D01*
X136962857Y-100672857D01*
X136991428Y-100587142D01*
X136991428Y-100444285D01*
X136934285Y-101387142D02*
X136962857Y-101358571D01*
X136991428Y-101272857D01*
X136991428Y-101215714D01*
X136962857Y-101130000D01*
X136905714Y-101072857D01*
X136848571Y-101044285D01*
X136734285Y-101015714D01*
X136648571Y-101015714D01*
X136534285Y-101044285D01*
X136477142Y-101072857D01*
X136420000Y-101130000D01*
X136391428Y-101215714D01*
X136391428Y-101272857D01*
X136420000Y-101358571D01*
X136448571Y-101387142D01*
X136448571Y-101615714D02*
X136420000Y-101644285D01*
X136391428Y-101701428D01*
X136391428Y-101844285D01*
X136420000Y-101901428D01*
X136448571Y-101930000D01*
X136505714Y-101958571D01*
X136562857Y-101958571D01*
X136648571Y-101930000D01*
X136991428Y-101587142D01*
X136991428Y-101958571D01*
D13*
X153998571Y-126034285D02*
X154070000Y-125962857D01*
X154212857Y-125891428D01*
X154355714Y-125891428D01*
X154498571Y-125962857D01*
X154570000Y-126034285D01*
X154641428Y-126177142D01*
X154641428Y-126320000D01*
X154570000Y-126462857D01*
X154498571Y-126534285D01*
X154355714Y-126605714D01*
X154212857Y-126605714D01*
X154070000Y-126534285D01*
X153998571Y-126462857D01*
X153998571Y-125891428D02*
X153998571Y-126462857D01*
X153927142Y-126534285D01*
X153855714Y-126534285D01*
X153712857Y-126462857D01*
X153641428Y-126320000D01*
X153641428Y-125962857D01*
X153784285Y-125748571D01*
X153998571Y-125605714D01*
X154284285Y-125534285D01*
X154570000Y-125605714D01*
X154784285Y-125748571D01*
X154927142Y-125962857D01*
X154998571Y-126248571D01*
X154927142Y-126534285D01*
X154784285Y-126748571D01*
X154570000Y-126891428D01*
X154284285Y-126962857D01*
X153998571Y-126891428D01*
X153784285Y-126748571D01*
X152427142Y-126677142D02*
X152570000Y-126748571D01*
X152855714Y-126748571D01*
X152998571Y-126677142D01*
X153070000Y-126534285D01*
X153070000Y-125962857D01*
X152998571Y-125820000D01*
X152855714Y-125748571D01*
X152570000Y-125748571D01*
X152427142Y-125820000D01*
X152355714Y-125962857D01*
X152355714Y-126105714D01*
X153070000Y-126248571D01*
X151498571Y-126748571D02*
X151641428Y-126677142D01*
X151712857Y-126534285D01*
X151712857Y-125248571D01*
X150355714Y-126677142D02*
X150498571Y-126748571D01*
X150784285Y-126748571D01*
X150927142Y-126677142D01*
X150998571Y-126534285D01*
X150998571Y-125962857D01*
X150927142Y-125820000D01*
X150784285Y-125748571D01*
X150498571Y-125748571D01*
X150355714Y-125820000D01*
X150284285Y-125962857D01*
X150284285Y-126105714D01*
X150998571Y-126248571D01*
X148998571Y-126677142D02*
X149141428Y-126748571D01*
X149427142Y-126748571D01*
X149570000Y-126677142D01*
X149641428Y-126605714D01*
X149712857Y-126462857D01*
X149712857Y-126034285D01*
X149641428Y-125891428D01*
X149570000Y-125820000D01*
X149427142Y-125748571D01*
X149141428Y-125748571D01*
X148998571Y-125820000D01*
X148570000Y-125748571D02*
X147998571Y-125748571D01*
X148355714Y-125248571D02*
X148355714Y-126534285D01*
X148284285Y-126677142D01*
X148141428Y-126748571D01*
X147998571Y-126748571D01*
X147498571Y-126748571D02*
X147498571Y-125748571D01*
X147498571Y-126034285D02*
X147427142Y-125891428D01*
X147355714Y-125820000D01*
X147212857Y-125748571D01*
X147070000Y-125748571D01*
X146355714Y-126748571D02*
X146498571Y-126677142D01*
X146570000Y-126605714D01*
X146641428Y-126462857D01*
X146641428Y-126034285D01*
X146570000Y-125891428D01*
X146498571Y-125820000D01*
X146355714Y-125748571D01*
X146141428Y-125748571D01*
X145998571Y-125820000D01*
X145927142Y-125891428D01*
X145855714Y-126034285D01*
X145855714Y-126462857D01*
X145927142Y-126605714D01*
X145998571Y-126677142D01*
X146141428Y-126748571D01*
X146355714Y-126748571D01*
X145212857Y-126605714D02*
X145141428Y-126677142D01*
X145212857Y-126748571D01*
X145284285Y-126677142D01*
X145212857Y-126605714D01*
X145212857Y-126748571D01*
X144570000Y-126677142D02*
X144427142Y-126748571D01*
X144141428Y-126748571D01*
X143998571Y-126677142D01*
X143927142Y-126534285D01*
X143927142Y-126462857D01*
X143998571Y-126320000D01*
X144141428Y-126248571D01*
X144355714Y-126248571D01*
X144498571Y-126177142D01*
X144570000Y-126034285D01*
X144570000Y-125962857D01*
X144498571Y-125820000D01*
X144355714Y-125748571D01*
X144141428Y-125748571D01*
X143998571Y-125820000D01*
X142641428Y-126677142D02*
X142784285Y-126748571D01*
X143070000Y-126748571D01*
X143212857Y-126677142D01*
X143284285Y-126605714D01*
X143355714Y-126462857D01*
X143355714Y-126034285D01*
X143284285Y-125891428D01*
X143212857Y-125820000D01*
X143070000Y-125748571D01*
X142784285Y-125748571D01*
X142641428Y-125820000D01*
D12*
X150591428Y-99901428D02*
X149991428Y-99901428D01*
X149991428Y-100130000D01*
X150020000Y-100187142D01*
X150048571Y-100215714D01*
X150105714Y-100244285D01*
X150191428Y-100244285D01*
X150248571Y-100215714D01*
X150277142Y-100187142D01*
X150305714Y-100130000D01*
X150305714Y-99901428D01*
X149991428Y-100444285D02*
X150591428Y-100587142D01*
X150162857Y-100701428D01*
X150591428Y-100815714D01*
X149991428Y-100958571D01*
X150591428Y-101187142D02*
X149991428Y-101187142D01*
X150420000Y-101387142D01*
X149991428Y-101587142D01*
X150591428Y-101587142D01*
X150048571Y-101844285D02*
X150020000Y-101872857D01*
X149991428Y-101930000D01*
X149991428Y-102072857D01*
X150020000Y-102130000D01*
X150048571Y-102158571D01*
X150105714Y-102187142D01*
X150162857Y-102187142D01*
X150248571Y-102158571D01*
X150591428Y-101815714D01*
X150591428Y-102187142D01*
X131620000Y-122201428D02*
X131820000Y-121915714D01*
X131962857Y-122201428D02*
X131962857Y-121601428D01*
X131734285Y-121601428D01*
X131677142Y-121630000D01*
X131648571Y-121658571D01*
X131620000Y-121715714D01*
X131620000Y-121801428D01*
X131648571Y-121858571D01*
X131677142Y-121887142D01*
X131734285Y-121915714D01*
X131962857Y-121915714D01*
X131420000Y-121601428D02*
X131020000Y-122201428D01*
X131020000Y-121601428D02*
X131420000Y-122201428D01*
X142920000Y-99901428D02*
X142920000Y-100187142D01*
X143091428Y-99844285D02*
X142491428Y-100044285D01*
X143091428Y-100244285D01*
X143091428Y-100444285D02*
X142491428Y-100444285D01*
X142491428Y-100587142D01*
X142520000Y-100672857D01*
X142577142Y-100730000D01*
X142634285Y-100758571D01*
X142748571Y-100787142D01*
X142834285Y-100787142D01*
X142948571Y-100758571D01*
X143005714Y-100730000D01*
X143062857Y-100672857D01*
X143091428Y-100587142D01*
X143091428Y-100444285D01*
X143034285Y-101387142D02*
X143062857Y-101358571D01*
X143091428Y-101272857D01*
X143091428Y-101215714D01*
X143062857Y-101130000D01*
X143005714Y-101072857D01*
X142948571Y-101044285D01*
X142834285Y-101015714D01*
X142748571Y-101015714D01*
X142634285Y-101044285D01*
X142577142Y-101072857D01*
X142520000Y-101130000D01*
X142491428Y-101215714D01*
X142491428Y-101272857D01*
X142520000Y-101358571D01*
X142548571Y-101387142D01*
X143091428Y-101958571D02*
X143091428Y-101615714D01*
X143091428Y-101787142D02*
X142491428Y-101787142D01*
X142577142Y-101730000D01*
X142634285Y-101672857D01*
X142662857Y-101615714D01*
X132327142Y-111430000D02*
X132384285Y-111401428D01*
X132470000Y-111401428D01*
X132555714Y-111430000D01*
X132612857Y-111487142D01*
X132641428Y-111544285D01*
X132670000Y-111658571D01*
X132670000Y-111744285D01*
X132641428Y-111858571D01*
X132612857Y-111915714D01*
X132555714Y-111972857D01*
X132470000Y-112001428D01*
X132412857Y-112001428D01*
X132327142Y-111972857D01*
X132298571Y-111944285D01*
X132298571Y-111744285D01*
X132412857Y-111744285D01*
X132041428Y-112001428D02*
X132041428Y-111401428D01*
X131698571Y-112001428D01*
X131698571Y-111401428D01*
X131412857Y-112001428D02*
X131412857Y-111401428D01*
X131270000Y-111401428D01*
X131184285Y-111430000D01*
X131127142Y-111487142D01*
X131098571Y-111544285D01*
X131070000Y-111658571D01*
X131070000Y-111744285D01*
X131098571Y-111858571D01*
X131127142Y-111915714D01*
X131184285Y-111972857D01*
X131270000Y-112001428D01*
X131412857Y-112001428D01*
X131877142Y-127301428D02*
X131534285Y-127301428D01*
X131705714Y-127901428D02*
X131705714Y-127301428D01*
X131391428Y-127301428D02*
X130991428Y-127901428D01*
X130991428Y-127301428D02*
X131391428Y-127901428D01*
X156491428Y-99901428D02*
X155891428Y-99901428D01*
X155891428Y-100130000D01*
X155920000Y-100187142D01*
X155948571Y-100215714D01*
X156005714Y-100244285D01*
X156091428Y-100244285D01*
X156148571Y-100215714D01*
X156177142Y-100187142D01*
X156205714Y-100130000D01*
X156205714Y-99901428D01*
X155891428Y-100444285D02*
X156491428Y-100587142D01*
X156062857Y-100701428D01*
X156491428Y-100815714D01*
X155891428Y-100958571D01*
X156491428Y-101187142D02*
X155891428Y-101187142D01*
X156320000Y-101387142D01*
X155891428Y-101587142D01*
X156491428Y-101587142D01*
X156491428Y-102187142D02*
X156491428Y-101844285D01*
X156491428Y-102015714D02*
X155891428Y-102015714D01*
X155977142Y-101958571D01*
X156034285Y-101901428D01*
X156062857Y-101844285D01*
D10*
X153549047Y-139192380D02*
X153549047Y-139906666D01*
X153596666Y-140049523D01*
X153691904Y-140144761D01*
X153834761Y-140192380D01*
X153930000Y-140192380D01*
X152596666Y-140192380D02*
X153072857Y-140192380D01*
X153072857Y-139192380D01*
X151691904Y-140097142D02*
X151739523Y-140144761D01*
X151882380Y-140192380D01*
X151977619Y-140192380D01*
X152120476Y-140144761D01*
X152215714Y-140049523D01*
X152263333Y-139954285D01*
X152310952Y-139763809D01*
X152310952Y-139620952D01*
X152263333Y-139430476D01*
X152215714Y-139335238D01*
X152120476Y-139240000D01*
X151977619Y-139192380D01*
X151882380Y-139192380D01*
X151739523Y-139240000D01*
X151691904Y-139287619D01*
X150977619Y-139192380D02*
X150977619Y-139906666D01*
X151025238Y-140049523D01*
X151120476Y-140144761D01*
X151263333Y-140192380D01*
X151358571Y-140192380D01*
X150025238Y-140192380D02*
X150501428Y-140192380D01*
X150501428Y-139192380D01*
X149120476Y-140097142D02*
X149168095Y-140144761D01*
X149310952Y-140192380D01*
X149406190Y-140192380D01*
X149549047Y-140144761D01*
X149644285Y-140049523D01*
X149691904Y-139954285D01*
X149739523Y-139763809D01*
X149739523Y-139620952D01*
X149691904Y-139430476D01*
X149644285Y-139335238D01*
X149549047Y-139240000D01*
X149406190Y-139192380D01*
X149310952Y-139192380D01*
X149168095Y-139240000D01*
X149120476Y-139287619D01*
X148406190Y-139192380D02*
X148406190Y-139906666D01*
X148453809Y-140049523D01*
X148549047Y-140144761D01*
X148691904Y-140192380D01*
X148787142Y-140192380D01*
X147453809Y-140192380D02*
X147930000Y-140192380D01*
X147930000Y-139192380D01*
X146549047Y-140097142D02*
X146596666Y-140144761D01*
X146739523Y-140192380D01*
X146834761Y-140192380D01*
X146977619Y-140144761D01*
X147072857Y-140049523D01*
X147120476Y-139954285D01*
X147168095Y-139763809D01*
X147168095Y-139620952D01*
X147120476Y-139430476D01*
X147072857Y-139335238D01*
X146977619Y-139240000D01*
X146834761Y-139192380D01*
X146739523Y-139192380D01*
X146596666Y-139240000D01*
X146549047Y-139287619D01*
X145834761Y-139192380D02*
X145834761Y-139906666D01*
X145882380Y-140049523D01*
X145977619Y-140144761D01*
X146120476Y-140192380D01*
X146215714Y-140192380D01*
X144882380Y-140192380D02*
X145358571Y-140192380D01*
X145358571Y-139192380D01*
X143977619Y-140097142D02*
X144025238Y-140144761D01*
X144168095Y-140192380D01*
X144263333Y-140192380D01*
X144406190Y-140144761D01*
X144501428Y-140049523D01*
X144549047Y-139954285D01*
X144596666Y-139763809D01*
X144596666Y-139620952D01*
X144549047Y-139430476D01*
X144501428Y-139335238D01*
X144406190Y-139240000D01*
X144263333Y-139192380D01*
X144168095Y-139192380D01*
X144025238Y-139240000D01*
X143977619Y-139287619D01*
%TO.C,G\u002A\u002A\u002A*%
G36*
X148583122Y-119972508D02*
G01*
X148582883Y-120103158D01*
X148582668Y-120221003D01*
X148582444Y-120326749D01*
X148582173Y-120421104D01*
X148581821Y-120504776D01*
X148581353Y-120578472D01*
X148580732Y-120642901D01*
X148579924Y-120698770D01*
X148578893Y-120746786D01*
X148577603Y-120787658D01*
X148576020Y-120822092D01*
X148574107Y-120850798D01*
X148571829Y-120874481D01*
X148569152Y-120893851D01*
X148566038Y-120909614D01*
X148562454Y-120922479D01*
X148558363Y-120933153D01*
X148553730Y-120942343D01*
X148548520Y-120950758D01*
X148542698Y-120959105D01*
X148536227Y-120968091D01*
X148529072Y-120978426D01*
X148497967Y-121016593D01*
X148451539Y-121053714D01*
X148395786Y-121080792D01*
X148331094Y-121097592D01*
X148314857Y-121099255D01*
X148285442Y-121100792D01*
X148245509Y-121102047D01*
X148196801Y-121103026D01*
X148141062Y-121103733D01*
X148080037Y-121104175D01*
X148015470Y-121104356D01*
X147949104Y-121104282D01*
X147882683Y-121103959D01*
X147817952Y-121103393D01*
X147756654Y-121102588D01*
X147700533Y-121101550D01*
X147651334Y-121100284D01*
X147610800Y-121098797D01*
X147580676Y-121097094D01*
X147562705Y-121095179D01*
X147510711Y-121082528D01*
X147454014Y-121058258D01*
X147407255Y-121024426D01*
X147370035Y-120980641D01*
X147341952Y-120926514D01*
X147322607Y-120861656D01*
X147321345Y-120855124D01*
X147319874Y-120845170D01*
X147318555Y-120832750D01*
X147317378Y-120817149D01*
X147316337Y-120797652D01*
X147315423Y-120773545D01*
X147314629Y-120744113D01*
X147313946Y-120708642D01*
X147313367Y-120666417D01*
X147312884Y-120616724D01*
X147312487Y-120558848D01*
X147312171Y-120492075D01*
X147311926Y-120415690D01*
X147311745Y-120328979D01*
X147311620Y-120231228D01*
X147311542Y-120121721D01*
X147311505Y-119999744D01*
X147311499Y-119864583D01*
X147311516Y-119735662D01*
X147311563Y-119613320D01*
X147311646Y-119503484D01*
X147311759Y-119417873D01*
X147814319Y-119417873D01*
X147814323Y-119488666D01*
X147814413Y-119570178D01*
X147814577Y-119663204D01*
X147814802Y-119768539D01*
X147815076Y-119886977D01*
X147816840Y-120639056D01*
X147832649Y-120654884D01*
X147839502Y-120660971D01*
X147847885Y-120665498D01*
X147859958Y-120668464D01*
X147878273Y-120670258D01*
X147905383Y-120671272D01*
X147943839Y-120671895D01*
X147953980Y-120672014D01*
X147994591Y-120672214D01*
X148024162Y-120671593D01*
X148045050Y-120669857D01*
X148059611Y-120666712D01*
X148070202Y-120661864D01*
X148079179Y-120655018D01*
X148079265Y-120654942D01*
X148081161Y-120652610D01*
X148082849Y-120648739D01*
X148084339Y-120642554D01*
X148085645Y-120633284D01*
X148086779Y-120620156D01*
X148087752Y-120602398D01*
X148088577Y-120579237D01*
X148089266Y-120549901D01*
X148089831Y-120513618D01*
X148090283Y-120469615D01*
X148090637Y-120417120D01*
X148090902Y-120355361D01*
X148091092Y-120283565D01*
X148091219Y-120200959D01*
X148091295Y-120106772D01*
X148091331Y-120000231D01*
X148091340Y-119880564D01*
X148091340Y-119116893D01*
X148074283Y-119099835D01*
X148058834Y-119088520D01*
X148030849Y-119081956D01*
X148024587Y-119081761D01*
X148001438Y-119081046D01*
X147971266Y-119080116D01*
X147938956Y-119079123D01*
X147932811Y-119078946D01*
X147896083Y-119078807D01*
X147869964Y-119081228D01*
X147851652Y-119087039D01*
X147838345Y-119097066D01*
X147827240Y-119112139D01*
X147825526Y-119115056D01*
X147823524Y-119119231D01*
X147821758Y-119124585D01*
X147820214Y-119131913D01*
X147818882Y-119142011D01*
X147817749Y-119155672D01*
X147816801Y-119173692D01*
X147816026Y-119196867D01*
X147815413Y-119225990D01*
X147814948Y-119261857D01*
X147814619Y-119305264D01*
X147814413Y-119357004D01*
X147814319Y-119417873D01*
X147311759Y-119417873D01*
X147311775Y-119405440D01*
X147311956Y-119318474D01*
X147312198Y-119241874D01*
X147312510Y-119174925D01*
X147312900Y-119116915D01*
X147313375Y-119067130D01*
X147313944Y-119024857D01*
X147314614Y-118989382D01*
X147315395Y-118959993D01*
X147316295Y-118935974D01*
X147317320Y-118916615D01*
X147318481Y-118901200D01*
X147319784Y-118889016D01*
X147321238Y-118879351D01*
X147322851Y-118871490D01*
X147330019Y-118845120D01*
X147353301Y-118789560D01*
X147385647Y-118744252D01*
X147427584Y-118708700D01*
X147479639Y-118682408D01*
X147542339Y-118664881D01*
X147545658Y-118664289D01*
X147563062Y-118662214D01*
X147588280Y-118660485D01*
X147622182Y-118659084D01*
X147665636Y-118657991D01*
X147719511Y-118657191D01*
X147784676Y-118656663D01*
X147862000Y-118656391D01*
X147952353Y-118656357D01*
X147989466Y-118656396D01*
X148072070Y-118656595D01*
X148142510Y-118657015D01*
X148202022Y-118657749D01*
X148251842Y-118658890D01*
X148293205Y-118660532D01*
X148327347Y-118662767D01*
X148355503Y-118665689D01*
X148378909Y-118669390D01*
X148398801Y-118673965D01*
X148416413Y-118679506D01*
X148432982Y-118686106D01*
X148449743Y-118693859D01*
X148461896Y-118700295D01*
X148503023Y-118731687D01*
X148536796Y-118773509D01*
X148562053Y-118824056D01*
X148577631Y-118881621D01*
X148578689Y-118891907D01*
X148579762Y-118912957D01*
X148580704Y-118944298D01*
X148581516Y-118986258D01*
X148582199Y-119039165D01*
X148582757Y-119103346D01*
X148583190Y-119179130D01*
X148583500Y-119266845D01*
X148583689Y-119366818D01*
X148583760Y-119479378D01*
X148583713Y-119604852D01*
X148583551Y-119743568D01*
X148583303Y-119880564D01*
X148583275Y-119895855D01*
X148583122Y-119972508D01*
G37*
G36*
X151798252Y-118652248D02*
G01*
X151866612Y-118652854D01*
X151947662Y-118653823D01*
X151982868Y-118654287D01*
X152056080Y-118655393D01*
X152117362Y-118656658D01*
X152168094Y-118658241D01*
X152209655Y-118660302D01*
X152243427Y-118662999D01*
X152270788Y-118666494D01*
X152293119Y-118670945D01*
X152311800Y-118676512D01*
X152328210Y-118683355D01*
X152343730Y-118691634D01*
X152359739Y-118701509D01*
X152386118Y-118720700D01*
X152424857Y-118761170D01*
X152454538Y-118811434D01*
X152454918Y-118812260D01*
X152460421Y-118824928D01*
X152464727Y-118837370D01*
X152468066Y-118851603D01*
X152470667Y-118869645D01*
X152472759Y-118893512D01*
X152474571Y-118925221D01*
X152476333Y-118966789D01*
X152478274Y-119020233D01*
X152478592Y-119030636D01*
X152479316Y-119065406D01*
X152479958Y-119112525D01*
X152480516Y-119170893D01*
X152480987Y-119239411D01*
X152481367Y-119316978D01*
X152481653Y-119402495D01*
X152481842Y-119494861D01*
X152481931Y-119592978D01*
X152481916Y-119695744D01*
X152481794Y-119802061D01*
X152481562Y-119910827D01*
X152481217Y-120020944D01*
X152480804Y-120131436D01*
X152480343Y-120245954D01*
X152479885Y-120347995D01*
X152479417Y-120438322D01*
X152478926Y-120517694D01*
X152478401Y-120586872D01*
X152477826Y-120646617D01*
X152477192Y-120697690D01*
X152476483Y-120740850D01*
X152475688Y-120776859D01*
X152474795Y-120806477D01*
X152473789Y-120830465D01*
X152472659Y-120849583D01*
X152471392Y-120864592D01*
X152469976Y-120876253D01*
X152468396Y-120885326D01*
X152466642Y-120892572D01*
X152465578Y-120896302D01*
X152443084Y-120954875D01*
X152412501Y-121002329D01*
X152373208Y-121039257D01*
X152324583Y-121066253D01*
X152266004Y-121083910D01*
X152262906Y-121084513D01*
X152238697Y-121088065D01*
X152205318Y-121091714D01*
X152166760Y-121095064D01*
X152127016Y-121097718D01*
X152116592Y-121098237D01*
X152080016Y-121099529D01*
X152033212Y-121100633D01*
X151978859Y-121101509D01*
X151919635Y-121102122D01*
X151858217Y-121102431D01*
X151797284Y-121102400D01*
X151761898Y-121102266D01*
X151705913Y-121101977D01*
X151661558Y-121101562D01*
X151627355Y-121100933D01*
X151601827Y-121100000D01*
X151583499Y-121098675D01*
X151570894Y-121096869D01*
X151562535Y-121094493D01*
X151556945Y-121091458D01*
X151552648Y-121087675D01*
X151551908Y-121086786D01*
X151546229Y-121074118D01*
X151539008Y-121050646D01*
X151530635Y-121018397D01*
X151521504Y-120979401D01*
X151512007Y-120935686D01*
X151502535Y-120889279D01*
X151493480Y-120842208D01*
X151485235Y-120796503D01*
X151478191Y-120754191D01*
X151472741Y-120717301D01*
X151469277Y-120687860D01*
X151468190Y-120667897D01*
X151469874Y-120659441D01*
X151472226Y-120658785D01*
X151486794Y-120657350D01*
X151512717Y-120656039D01*
X151548227Y-120654904D01*
X151591556Y-120653994D01*
X151640935Y-120653360D01*
X151694596Y-120653052D01*
X151701319Y-120653036D01*
X151766987Y-120652772D01*
X151820273Y-120652185D01*
X151862566Y-120651052D01*
X151895255Y-120649147D01*
X151919728Y-120646248D01*
X151937374Y-120642129D01*
X151949581Y-120636567D01*
X151957739Y-120629336D01*
X151963236Y-120620212D01*
X151967460Y-120608972D01*
X151967903Y-120607406D01*
X151969332Y-120598716D01*
X151970583Y-120584500D01*
X151971662Y-120564059D01*
X151972576Y-120536697D01*
X151973331Y-120501715D01*
X151973933Y-120458417D01*
X151974390Y-120406103D01*
X151974707Y-120344077D01*
X151974892Y-120271641D01*
X151974951Y-120188097D01*
X151974890Y-120092748D01*
X151974716Y-119984895D01*
X151974435Y-119863842D01*
X151972572Y-119145705D01*
X151956750Y-119129877D01*
X151956127Y-119129255D01*
X151951659Y-119125143D01*
X151946408Y-119121835D01*
X151938918Y-119119227D01*
X151927730Y-119117218D01*
X151911389Y-119115707D01*
X151888436Y-119114592D01*
X151857414Y-119113770D01*
X151816865Y-119113141D01*
X151765333Y-119112602D01*
X151701361Y-119112053D01*
X151698506Y-119112029D01*
X151633144Y-119111387D01*
X151580423Y-119110641D01*
X151539133Y-119109731D01*
X151508063Y-119108601D01*
X151486004Y-119107195D01*
X151471746Y-119105454D01*
X151464079Y-119103321D01*
X151461792Y-119100741D01*
X151461842Y-119099951D01*
X151463469Y-119088359D01*
X151467164Y-119065271D01*
X151472621Y-119032501D01*
X151479534Y-118991865D01*
X151487600Y-118945178D01*
X151496511Y-118894256D01*
X151505773Y-118841867D01*
X151514118Y-118795629D01*
X151520889Y-118760003D01*
X151526498Y-118733374D01*
X151531359Y-118714123D01*
X151535886Y-118700632D01*
X151540490Y-118691283D01*
X151545584Y-118684459D01*
X151551583Y-118678541D01*
X151554943Y-118675607D01*
X151563395Y-118669548D01*
X151573677Y-118664530D01*
X151586996Y-118660478D01*
X151604558Y-118657318D01*
X151627571Y-118654974D01*
X151657240Y-118653370D01*
X151694772Y-118652431D01*
X151741374Y-118652082D01*
X151798252Y-118652248D01*
G37*
G36*
X141974145Y-121103503D02*
G01*
X141897444Y-121103160D01*
X141810582Y-121102748D01*
X141735814Y-121102336D01*
X141672123Y-121101893D01*
X141618496Y-121101387D01*
X141573916Y-121100786D01*
X141537369Y-121100058D01*
X141507841Y-121099172D01*
X141484316Y-121098094D01*
X141465778Y-121096794D01*
X141451214Y-121095239D01*
X141439609Y-121093398D01*
X141429946Y-121091238D01*
X141421211Y-121088728D01*
X141412390Y-121085836D01*
X141373820Y-121070417D01*
X141332096Y-121045469D01*
X141298663Y-121013644D01*
X141272747Y-120973681D01*
X141253577Y-120924323D01*
X141240379Y-120864308D01*
X141232382Y-120792379D01*
X141231403Y-120775347D01*
X141230057Y-120741234D01*
X141228746Y-120696472D01*
X141227509Y-120642945D01*
X141227455Y-120640071D01*
X141718755Y-120640071D01*
X141735812Y-120657129D01*
X141737581Y-120658886D01*
X141743946Y-120664490D01*
X141751304Y-120668526D01*
X141761806Y-120671251D01*
X141777603Y-120672921D01*
X141800846Y-120673796D01*
X141833687Y-120674132D01*
X141878275Y-120674186D01*
X142003680Y-120674186D01*
X142003680Y-120104602D01*
X141986787Y-120100362D01*
X141981785Y-120099619D01*
X141963070Y-120098541D01*
X141934807Y-120097965D01*
X141899859Y-120097935D01*
X141861086Y-120098492D01*
X141752278Y-120100862D01*
X141735516Y-120120361D01*
X141718755Y-120139859D01*
X141718755Y-120640071D01*
X141227455Y-120640071D01*
X141226383Y-120582535D01*
X141225408Y-120517126D01*
X141224619Y-120448599D01*
X141224056Y-120378838D01*
X141223823Y-120340285D01*
X141223469Y-120269471D01*
X141223325Y-120210620D01*
X141223424Y-120162425D01*
X141223802Y-120123578D01*
X141224496Y-120092770D01*
X141225539Y-120068694D01*
X141226968Y-120050042D01*
X141228818Y-120035506D01*
X141231123Y-120023779D01*
X141233920Y-120013552D01*
X141236355Y-120006121D01*
X141255849Y-119963888D01*
X141282026Y-119927570D01*
X141312125Y-119901135D01*
X141317733Y-119897334D01*
X141331076Y-119886539D01*
X141336453Y-119879215D01*
X141334951Y-119873910D01*
X141328700Y-119857891D01*
X141318706Y-119834362D01*
X141306181Y-119806247D01*
X141301236Y-119795432D01*
X141290238Y-119771580D01*
X141280919Y-119750872D01*
X141273140Y-119731997D01*
X141266763Y-119713644D01*
X141261649Y-119694502D01*
X141260530Y-119688540D01*
X141722230Y-119688540D01*
X141741728Y-119705330D01*
X141742006Y-119705570D01*
X141749524Y-119711566D01*
X141757487Y-119715906D01*
X141768136Y-119718857D01*
X141783715Y-119720686D01*
X141806466Y-119721661D01*
X141838631Y-119722051D01*
X141882453Y-119722121D01*
X142003680Y-119722121D01*
X142003680Y-119074372D01*
X141893916Y-119076837D01*
X141859623Y-119077774D01*
X141821350Y-119079732D01*
X141793083Y-119083018D01*
X141772544Y-119088287D01*
X141757452Y-119096192D01*
X141745526Y-119107386D01*
X141734488Y-119122522D01*
X141731843Y-119127202D01*
X141729218Y-119134384D01*
X141727114Y-119144589D01*
X141725476Y-119159178D01*
X141724247Y-119179510D01*
X141723369Y-119206943D01*
X141722785Y-119242838D01*
X141722438Y-119288553D01*
X141722272Y-119345448D01*
X141722230Y-119414883D01*
X141722230Y-119688540D01*
X141260530Y-119688540D01*
X141257661Y-119673259D01*
X141254659Y-119648606D01*
X141252506Y-119619231D01*
X141251064Y-119583823D01*
X141250194Y-119541072D01*
X141249758Y-119489666D01*
X141249618Y-119428294D01*
X141249635Y-119355646D01*
X141249671Y-119270411D01*
X141249690Y-119199985D01*
X141249781Y-119125928D01*
X141249981Y-119063614D01*
X141250323Y-119011861D01*
X141250842Y-118969487D01*
X141251572Y-118935307D01*
X141252549Y-118908140D01*
X141253806Y-118886801D01*
X141255378Y-118870108D01*
X141257300Y-118856878D01*
X141259605Y-118845928D01*
X141262329Y-118836074D01*
X141270570Y-118812135D01*
X141296537Y-118761542D01*
X141331143Y-118721560D01*
X141374760Y-118691713D01*
X141375415Y-118691374D01*
X141387573Y-118685249D01*
X141399388Y-118679916D01*
X141411875Y-118675311D01*
X141426054Y-118671372D01*
X141442941Y-118668035D01*
X141463554Y-118665237D01*
X141488909Y-118662916D01*
X141520025Y-118661008D01*
X141557917Y-118659450D01*
X141603605Y-118658179D01*
X141658105Y-118657133D01*
X141722434Y-118656247D01*
X141797609Y-118655460D01*
X141884648Y-118654708D01*
X141984569Y-118653928D01*
X142490137Y-118650065D01*
X142490137Y-121105784D01*
X141974145Y-121103503D01*
G37*
G36*
X145123953Y-119877972D02*
G01*
X145123951Y-119986900D01*
X145123936Y-120130318D01*
X145123904Y-120260866D01*
X145123847Y-120379150D01*
X145123759Y-120485774D01*
X145123635Y-120581343D01*
X145123469Y-120666461D01*
X145123254Y-120741733D01*
X145122985Y-120807764D01*
X145122655Y-120865157D01*
X145122259Y-120914518D01*
X145121790Y-120956452D01*
X145121243Y-120991562D01*
X145120611Y-121020453D01*
X145119889Y-121043731D01*
X145119070Y-121061998D01*
X145118148Y-121075861D01*
X145117118Y-121085923D01*
X145115974Y-121092789D01*
X145114708Y-121097064D01*
X145113316Y-121099352D01*
X145111792Y-121100258D01*
X145102922Y-121100837D01*
X145081376Y-121101412D01*
X145048412Y-121101967D01*
X145005276Y-121102491D01*
X144953213Y-121102972D01*
X144893467Y-121103400D01*
X144827284Y-121103761D01*
X144755908Y-121104046D01*
X144680585Y-121104242D01*
X144668373Y-121104266D01*
X144580588Y-121104428D01*
X144505510Y-121104493D01*
X144442085Y-121104379D01*
X144389256Y-121104004D01*
X144345967Y-121103286D01*
X144311162Y-121102144D01*
X144283786Y-121100495D01*
X144262782Y-121098259D01*
X144247095Y-121095352D01*
X144235669Y-121091694D01*
X144227449Y-121087203D01*
X144221377Y-121081797D01*
X144216399Y-121075393D01*
X144211459Y-121067912D01*
X144209328Y-121063751D01*
X144204094Y-121048342D01*
X144197450Y-121022960D01*
X144189264Y-120986978D01*
X144179403Y-120939773D01*
X144167734Y-120880720D01*
X144154124Y-120809194D01*
X144138440Y-120724569D01*
X144125372Y-120653338D01*
X144348424Y-120653236D01*
X144361710Y-120653229D01*
X144425077Y-120653102D01*
X144476218Y-120652666D01*
X144516545Y-120651698D01*
X144547468Y-120649979D01*
X144570398Y-120647286D01*
X144586745Y-120643397D01*
X144597920Y-120638092D01*
X144605333Y-120631148D01*
X144610396Y-120622345D01*
X144614519Y-120611461D01*
X144615133Y-120608870D01*
X144616316Y-120598520D01*
X144617388Y-120580999D01*
X144618353Y-120555791D01*
X144619215Y-120522378D01*
X144619979Y-120480242D01*
X144620650Y-120428866D01*
X144621233Y-120367732D01*
X144621731Y-120296322D01*
X144622149Y-120214119D01*
X144622492Y-120120605D01*
X144622765Y-120015264D01*
X144622972Y-119897576D01*
X144623117Y-119767024D01*
X144623205Y-119623092D01*
X144623598Y-118658865D01*
X145123953Y-118658865D01*
X145123953Y-119877972D01*
G37*
G36*
X149571559Y-121098099D02*
G01*
X149571559Y-120758311D01*
X149571555Y-120718334D01*
X149571498Y-120646860D01*
X149571338Y-120587324D01*
X149571026Y-120538412D01*
X149570513Y-120498812D01*
X149569750Y-120467208D01*
X149568687Y-120442288D01*
X149567277Y-120422738D01*
X149565470Y-120407245D01*
X149563217Y-120394494D01*
X149560470Y-120383171D01*
X149557179Y-120371964D01*
X149542798Y-120325405D01*
X149512291Y-120366458D01*
X149506282Y-120374776D01*
X149498000Y-120387541D01*
X149490209Y-120401906D01*
X149482279Y-120419548D01*
X149473577Y-120442141D01*
X149463472Y-120471363D01*
X149451332Y-120508888D01*
X149436526Y-120556394D01*
X149418423Y-120615555D01*
X149410197Y-120642568D01*
X149383557Y-120730061D01*
X149360555Y-120805442D01*
X149340843Y-120869623D01*
X149324072Y-120923519D01*
X149309892Y-120968043D01*
X149297955Y-121004109D01*
X149287912Y-121032630D01*
X149279413Y-121054521D01*
X149272111Y-121070695D01*
X149265656Y-121082065D01*
X149259699Y-121089546D01*
X149253891Y-121094052D01*
X149247884Y-121096495D01*
X149241328Y-121097790D01*
X149233875Y-121098850D01*
X149228053Y-121099569D01*
X149206263Y-121101084D01*
X149175047Y-121102298D01*
X149136349Y-121103217D01*
X149092112Y-121103846D01*
X149044281Y-121104192D01*
X148994797Y-121104260D01*
X148945606Y-121104057D01*
X148898651Y-121103587D01*
X148855874Y-121102857D01*
X148819220Y-121101872D01*
X148790633Y-121100639D01*
X148772055Y-121099163D01*
X148765431Y-121097450D01*
X148766510Y-121093128D01*
X148771459Y-121076593D01*
X148780071Y-121048920D01*
X148791960Y-121011318D01*
X148806739Y-120964996D01*
X148824024Y-120911161D01*
X148843427Y-120851023D01*
X148864562Y-120785789D01*
X148887045Y-120716668D01*
X148903394Y-120666462D01*
X148924923Y-120600237D01*
X148944830Y-120538869D01*
X148962730Y-120483553D01*
X148978238Y-120435481D01*
X148990970Y-120395847D01*
X149000541Y-120365844D01*
X149006565Y-120346666D01*
X149008659Y-120339507D01*
X149004116Y-120335992D01*
X148989648Y-120329101D01*
X148968700Y-120320769D01*
X148950205Y-120313570D01*
X148895866Y-120286662D01*
X148854092Y-120255494D01*
X148824195Y-120219465D01*
X148805485Y-120177972D01*
X148804892Y-120174955D01*
X148803446Y-120157970D01*
X148802146Y-120128788D01*
X148800991Y-120088639D01*
X148799981Y-120038755D01*
X148799116Y-119980365D01*
X148798395Y-119914699D01*
X148797817Y-119842989D01*
X148797382Y-119766463D01*
X148797089Y-119686353D01*
X148796939Y-119603889D01*
X148796933Y-119551529D01*
X149285672Y-119551529D01*
X149285695Y-119629504D01*
X149285850Y-119695276D01*
X149286239Y-119749932D01*
X149286966Y-119794557D01*
X149288133Y-119830237D01*
X149289843Y-119858057D01*
X149292200Y-119879105D01*
X149295306Y-119894465D01*
X149299263Y-119905224D01*
X149304176Y-119912468D01*
X149310146Y-119917281D01*
X149317277Y-119920751D01*
X149325672Y-119923963D01*
X149326074Y-119924109D01*
X149341473Y-119926847D01*
X149367157Y-119928707D01*
X149399698Y-119929708D01*
X149435668Y-119929874D01*
X149471639Y-119929224D01*
X149504184Y-119927781D01*
X149529873Y-119925565D01*
X149545279Y-119922598D01*
X149560167Y-119912864D01*
X149568174Y-119893612D01*
X149568575Y-119889322D01*
X149569232Y-119871397D01*
X149569770Y-119841663D01*
X149570182Y-119801476D01*
X149570463Y-119752193D01*
X149570604Y-119695172D01*
X149570601Y-119631768D01*
X149570445Y-119563340D01*
X149570131Y-119491243D01*
X149568085Y-119110953D01*
X149552228Y-119095128D01*
X149551148Y-119094061D01*
X149544117Y-119088120D01*
X149535648Y-119084033D01*
X149523251Y-119081461D01*
X149504433Y-119080061D01*
X149476701Y-119079491D01*
X149437563Y-119079409D01*
X149416739Y-119079545D01*
X149371004Y-119081060D01*
X149336993Y-119084501D01*
X149313191Y-119090178D01*
X149298081Y-119098399D01*
X149290148Y-119109474D01*
X149289664Y-119112991D01*
X149288858Y-119129321D01*
X149288109Y-119157493D01*
X149287434Y-119196197D01*
X149286847Y-119244127D01*
X149286363Y-119299974D01*
X149285997Y-119362430D01*
X149285764Y-119430189D01*
X149285678Y-119501941D01*
X149285672Y-119551529D01*
X148796933Y-119551529D01*
X148796929Y-119520301D01*
X148797061Y-119436819D01*
X148797333Y-119354673D01*
X148797745Y-119275095D01*
X148798297Y-119199313D01*
X148798987Y-119128559D01*
X148799816Y-119064063D01*
X148800783Y-119007054D01*
X148801887Y-118958764D01*
X148803128Y-118920422D01*
X148804505Y-118893260D01*
X148806018Y-118878506D01*
X148807439Y-118871573D01*
X148825697Y-118813729D01*
X148853344Y-118763740D01*
X148889346Y-118723120D01*
X148932664Y-118693383D01*
X148942916Y-118688289D01*
X148955451Y-118682691D01*
X148968699Y-118677857D01*
X148983674Y-118673731D01*
X149001389Y-118670258D01*
X149022859Y-118667379D01*
X149049100Y-118665040D01*
X149081124Y-118663184D01*
X149119946Y-118661755D01*
X149166581Y-118660696D01*
X149222043Y-118659951D01*
X149287347Y-118659464D01*
X149363506Y-118659178D01*
X149451535Y-118659037D01*
X149552448Y-118658986D01*
X150051067Y-118658865D01*
X150051067Y-121098099D01*
X149571559Y-121098099D01*
G37*
G36*
X156048385Y-121105048D02*
G01*
X155571746Y-121105048D01*
X155482034Y-121105017D01*
X155404955Y-121104893D01*
X155339528Y-121104608D01*
X155284767Y-121104098D01*
X155239690Y-121103297D01*
X155203313Y-121102139D01*
X155174651Y-121100557D01*
X155152722Y-121098487D01*
X155136542Y-121095862D01*
X155125127Y-121092616D01*
X155117493Y-121088685D01*
X155112657Y-121084001D01*
X155109635Y-121078500D01*
X155107444Y-121072115D01*
X155105993Y-121065954D01*
X155102217Y-121047267D01*
X155096751Y-121018761D01*
X155089980Y-120982573D01*
X155082288Y-120940837D01*
X155074060Y-120895687D01*
X155065681Y-120849258D01*
X155057535Y-120803686D01*
X155050008Y-120761104D01*
X155043483Y-120723647D01*
X155038346Y-120693451D01*
X155034982Y-120672650D01*
X155033775Y-120663378D01*
X155033981Y-120662482D01*
X155037545Y-120660045D01*
X155046477Y-120658038D01*
X155061996Y-120656405D01*
X155085320Y-120655089D01*
X155117669Y-120654032D01*
X155160260Y-120653179D01*
X155214312Y-120652472D01*
X155281045Y-120651854D01*
X155335389Y-120651397D01*
X155390306Y-120650836D01*
X155433866Y-120650195D01*
X155467466Y-120649388D01*
X155492503Y-120648333D01*
X155510376Y-120646944D01*
X155522481Y-120645138D01*
X155530217Y-120642830D01*
X155534982Y-120639937D01*
X155538172Y-120636374D01*
X155539158Y-120634772D01*
X155541620Y-120627551D01*
X155543602Y-120615393D01*
X155545150Y-120597018D01*
X155546312Y-120571146D01*
X155547134Y-120536497D01*
X155547663Y-120491791D01*
X155547946Y-120435747D01*
X155548030Y-120367085D01*
X155548030Y-120111286D01*
X155144966Y-120111286D01*
X155144966Y-119680424D01*
X155548030Y-119680424D01*
X155548030Y-119405343D01*
X155547989Y-119338693D01*
X155547834Y-119284412D01*
X155547501Y-119241126D01*
X155546924Y-119207459D01*
X155546040Y-119182036D01*
X155544784Y-119163482D01*
X155543092Y-119150422D01*
X155540899Y-119141481D01*
X155538140Y-119135284D01*
X155534751Y-119130456D01*
X155521473Y-119114050D01*
X155264653Y-119110575D01*
X155007832Y-119107100D01*
X155037886Y-118955346D01*
X155040306Y-118943076D01*
X155049667Y-118894802D01*
X155058477Y-118848152D01*
X155066183Y-118806128D01*
X155072233Y-118771727D01*
X155076075Y-118747949D01*
X155081517Y-118717648D01*
X155089579Y-118691330D01*
X155100085Y-118673848D01*
X155115960Y-118655390D01*
X155582173Y-118653509D01*
X156048385Y-118651628D01*
X156048385Y-121105048D01*
G37*
G36*
X145731155Y-118653745D02*
G01*
X145777055Y-118654119D01*
X145850090Y-118654799D01*
X145911182Y-118655522D01*
X145961591Y-118656337D01*
X146002577Y-118657290D01*
X146035402Y-118658431D01*
X146061323Y-118659808D01*
X146081603Y-118661468D01*
X146097501Y-118663461D01*
X146110276Y-118665833D01*
X146121190Y-118668633D01*
X146126040Y-118670077D01*
X146179747Y-118691447D01*
X146223147Y-118720358D01*
X146257458Y-118758123D01*
X146283896Y-118806053D01*
X146303677Y-118865461D01*
X146304842Y-118870292D01*
X146306442Y-118878402D01*
X146307877Y-118888204D01*
X146309157Y-118900417D01*
X146310289Y-118915758D01*
X146311282Y-118934946D01*
X146312143Y-118958698D01*
X146312883Y-118987732D01*
X146313508Y-119022767D01*
X146314028Y-119064520D01*
X146314451Y-119113710D01*
X146314784Y-119171055D01*
X146315038Y-119237272D01*
X146315219Y-119313080D01*
X146315337Y-119399196D01*
X146315400Y-119496339D01*
X146315417Y-119605227D01*
X146315395Y-119726577D01*
X146315343Y-119861108D01*
X146315342Y-119863354D01*
X146315268Y-119998343D01*
X146315171Y-120120162D01*
X146315041Y-120229530D01*
X146314872Y-120327163D01*
X146314653Y-120413778D01*
X146314376Y-120490095D01*
X146314033Y-120556830D01*
X146313616Y-120614701D01*
X146313116Y-120664426D01*
X146312524Y-120706722D01*
X146311833Y-120742307D01*
X146311032Y-120771898D01*
X146310115Y-120796213D01*
X146309072Y-120815971D01*
X146307895Y-120831887D01*
X146306576Y-120844681D01*
X146305105Y-120855070D01*
X146303475Y-120863770D01*
X146293737Y-120902899D01*
X146271600Y-120961739D01*
X146242618Y-121008852D01*
X146206407Y-121044674D01*
X146162584Y-121069646D01*
X146110766Y-121084205D01*
X146109641Y-121084368D01*
X146094619Y-121085427D01*
X146067397Y-121086444D01*
X146029449Y-121087396D01*
X145982250Y-121088257D01*
X145927273Y-121089005D01*
X145865993Y-121089616D01*
X145799884Y-121090066D01*
X145730419Y-121090332D01*
X145381345Y-121091149D01*
X145377610Y-121075513D01*
X145377221Y-121073793D01*
X145374242Y-121059628D01*
X145369032Y-121034208D01*
X145361966Y-120999380D01*
X145353417Y-120956994D01*
X145343760Y-120908897D01*
X145333369Y-120856938D01*
X145292862Y-120654000D01*
X145534845Y-120651932D01*
X145548002Y-120651819D01*
X145609868Y-120651264D01*
X145659558Y-120650705D01*
X145698522Y-120650042D01*
X145728208Y-120649174D01*
X145750066Y-120648002D01*
X145765544Y-120646423D01*
X145776092Y-120644337D01*
X145783160Y-120641645D01*
X145788195Y-120638245D01*
X145792647Y-120634036D01*
X145808468Y-120618209D01*
X145810680Y-120043339D01*
X145810930Y-119966275D01*
X145811101Y-119832049D01*
X145810877Y-119710954D01*
X145810247Y-119602493D01*
X145809202Y-119506166D01*
X145807732Y-119421478D01*
X145805828Y-119347929D01*
X145803481Y-119285024D01*
X145800681Y-119232263D01*
X145797418Y-119189150D01*
X145793682Y-119155186D01*
X145789869Y-119126828D01*
X145621959Y-119118631D01*
X145601335Y-119117654D01*
X145547749Y-119115353D01*
X145494673Y-119113379D01*
X145445449Y-119111840D01*
X145403419Y-119110846D01*
X145371925Y-119110505D01*
X145355545Y-119110495D01*
X145325903Y-119110163D01*
X145307051Y-119109124D01*
X145296809Y-119107044D01*
X145292997Y-119103585D01*
X145293433Y-119098414D01*
X145293788Y-119097049D01*
X145296642Y-119083937D01*
X145301655Y-119059489D01*
X145308464Y-119025524D01*
X145316708Y-118983861D01*
X145326022Y-118936320D01*
X145336045Y-118884720D01*
X145338684Y-118871086D01*
X145348592Y-118820061D01*
X145357709Y-118773361D01*
X145365668Y-118732849D01*
X145372101Y-118700391D01*
X145376641Y-118677851D01*
X145378921Y-118667095D01*
X145382816Y-118651002D01*
X145731155Y-118653745D01*
G37*
G36*
X150688554Y-118653253D02*
G01*
X150765427Y-118653500D01*
X151204285Y-118655390D01*
X151220111Y-118671168D01*
X151223809Y-118675987D01*
X151230556Y-118689191D01*
X151238921Y-118710392D01*
X151249272Y-118740682D01*
X151261974Y-118781155D01*
X151277395Y-118832904D01*
X151295901Y-118897023D01*
X151355865Y-119107100D01*
X151193398Y-119108963D01*
X151030930Y-119110826D01*
X151030930Y-121105048D01*
X150804730Y-121105048D01*
X150789718Y-121105046D01*
X150725618Y-121104927D01*
X150673734Y-121104467D01*
X150632673Y-121103449D01*
X150601044Y-121101658D01*
X150577452Y-121098876D01*
X150560506Y-121094886D01*
X150548813Y-121089473D01*
X150540981Y-121082420D01*
X150535617Y-121073510D01*
X150531328Y-121062526D01*
X150531205Y-121062129D01*
X150530015Y-121052950D01*
X150528937Y-121034190D01*
X150527967Y-121005488D01*
X150527104Y-120966486D01*
X150526343Y-120916822D01*
X150525683Y-120856139D01*
X150525120Y-120784075D01*
X150524651Y-120700271D01*
X150524274Y-120604367D01*
X150523986Y-120496004D01*
X150523783Y-120374822D01*
X150523664Y-120240460D01*
X150523625Y-120092560D01*
X150523625Y-119144690D01*
X150506567Y-119127633D01*
X150500920Y-119122241D01*
X150494677Y-119117927D01*
X150486235Y-119114835D01*
X150473644Y-119112760D01*
X150454954Y-119111499D01*
X150428214Y-119110850D01*
X150391476Y-119110610D01*
X150342788Y-119110575D01*
X150322194Y-119110566D01*
X150278427Y-119110421D01*
X150246221Y-119109983D01*
X150223892Y-119109111D01*
X150209760Y-119107661D01*
X150202142Y-119105490D01*
X150199357Y-119102455D01*
X150199723Y-119098414D01*
X150200577Y-119095389D01*
X150204756Y-119079997D01*
X150211805Y-119053729D01*
X150221264Y-119018310D01*
X150232670Y-118975467D01*
X150245565Y-118926928D01*
X150259486Y-118874419D01*
X150266572Y-118847785D01*
X150280107Y-118797596D01*
X150292489Y-118752557D01*
X150303248Y-118714328D01*
X150311913Y-118684568D01*
X150318014Y-118664938D01*
X150321081Y-118657097D01*
X150321633Y-118656883D01*
X150332271Y-118655975D01*
X150355355Y-118655177D01*
X150389694Y-118654500D01*
X150434097Y-118653953D01*
X150487375Y-118653545D01*
X150548338Y-118653286D01*
X150615794Y-118653185D01*
X150688554Y-118653253D01*
G37*
G36*
X153685634Y-121053644D02*
G01*
X153662044Y-121079398D01*
X153638455Y-121105152D01*
X152751191Y-121101574D01*
X152711544Y-120886143D01*
X152706736Y-120859946D01*
X152697335Y-120808296D01*
X152688930Y-120761540D01*
X152681829Y-120721434D01*
X152676341Y-120689731D01*
X152672775Y-120668185D01*
X152671441Y-120658550D01*
X152671744Y-120656086D01*
X152674053Y-120653377D01*
X152679741Y-120651223D01*
X152690124Y-120649562D01*
X152706516Y-120648329D01*
X152730232Y-120647462D01*
X152762587Y-120646898D01*
X152804897Y-120646573D01*
X152858475Y-120646424D01*
X152924637Y-120646389D01*
X153178290Y-120646389D01*
X153178290Y-120118449D01*
X152778700Y-120114761D01*
X152776862Y-119901067D01*
X152775025Y-119687374D01*
X153178290Y-119687374D01*
X153178290Y-119110575D01*
X152914213Y-119110575D01*
X152848743Y-119110544D01*
X152793291Y-119110408D01*
X152749206Y-119110108D01*
X152715197Y-119109584D01*
X152689976Y-119108778D01*
X152672253Y-119107628D01*
X152660739Y-119106076D01*
X152654145Y-119104063D01*
X152651182Y-119101528D01*
X152650561Y-119098414D01*
X152650846Y-119095811D01*
X152653222Y-119080801D01*
X152657737Y-119054670D01*
X152664073Y-119019186D01*
X152671912Y-118976116D01*
X152680937Y-118927230D01*
X152690829Y-118874296D01*
X152730674Y-118662340D01*
X153682120Y-118662340D01*
X153685634Y-121053644D01*
G37*
G36*
X151075893Y-103005549D02*
G01*
X151217399Y-103005612D01*
X151346376Y-103005723D01*
X151463376Y-103005886D01*
X151568953Y-103006105D01*
X151663661Y-103006384D01*
X151748052Y-103006726D01*
X151822680Y-103007136D01*
X151888099Y-103007616D01*
X151944862Y-103008172D01*
X151993521Y-103008807D01*
X152034631Y-103009524D01*
X152068745Y-103010327D01*
X152096416Y-103011220D01*
X152118198Y-103012208D01*
X152134643Y-103013293D01*
X152146306Y-103014479D01*
X152179423Y-103019053D01*
X152334669Y-103047207D01*
X152484129Y-103085973D01*
X152629431Y-103135969D01*
X152772204Y-103197812D01*
X152914076Y-103272118D01*
X153056676Y-103359504D01*
X153093496Y-103384118D01*
X153222460Y-103478652D01*
X153339869Y-103578907D01*
X153447105Y-103686238D01*
X153545553Y-103801999D01*
X153636596Y-103927546D01*
X153667211Y-103974573D01*
X153750397Y-104119195D01*
X153821581Y-104270656D01*
X153880854Y-104429158D01*
X153928303Y-104594905D01*
X153929412Y-104599469D01*
X153937530Y-104635048D01*
X153946979Y-104679961D01*
X153957831Y-104734608D01*
X153970155Y-104799390D01*
X153984025Y-104874707D01*
X153999510Y-104960960D01*
X154016683Y-105058548D01*
X154035613Y-105167871D01*
X154056373Y-105289331D01*
X154079034Y-105423326D01*
X154103667Y-105570259D01*
X154130343Y-105730528D01*
X154143451Y-105809315D01*
X154161055Y-105914622D01*
X154180363Y-106029656D01*
X154201008Y-106152254D01*
X154222625Y-106280252D01*
X154244846Y-106411486D01*
X154267305Y-106543794D01*
X154289636Y-106675012D01*
X154311473Y-106802975D01*
X154332449Y-106925521D01*
X154352197Y-107040487D01*
X154372888Y-107160701D01*
X154393685Y-107281553D01*
X154412641Y-107391742D01*
X154429999Y-107492701D01*
X154446005Y-107585862D01*
X154460902Y-107672661D01*
X154474936Y-107754529D01*
X154488351Y-107832902D01*
X154501390Y-107909211D01*
X154514300Y-107984890D01*
X154527324Y-108061373D01*
X154540706Y-108140094D01*
X154554692Y-108222485D01*
X154569526Y-108309980D01*
X154585452Y-108404013D01*
X154602714Y-108506017D01*
X154621558Y-108617425D01*
X154642228Y-108739671D01*
X154664968Y-108874188D01*
X154675900Y-108938824D01*
X154696012Y-109057590D01*
X154717310Y-109183180D01*
X154739404Y-109313312D01*
X154761906Y-109445706D01*
X154784429Y-109578080D01*
X154806584Y-109708154D01*
X154827982Y-109833646D01*
X154848236Y-109952276D01*
X154866958Y-110061763D01*
X154883759Y-110159824D01*
X154892662Y-110211802D01*
X154909283Y-110309156D01*
X154927672Y-110417214D01*
X154947512Y-110534088D01*
X154968483Y-110657893D01*
X154990267Y-110786741D01*
X155012545Y-110918745D01*
X155034998Y-111052018D01*
X155057309Y-111184674D01*
X155079158Y-111314826D01*
X155100227Y-111440586D01*
X155120197Y-111560069D01*
X155132865Y-111635949D01*
X155154887Y-111767732D01*
X155175354Y-111890026D01*
X155194531Y-112004377D01*
X155212680Y-112112330D01*
X155230067Y-112215429D01*
X155246955Y-112315220D01*
X155263607Y-112413249D01*
X155280287Y-112511060D01*
X155297259Y-112610199D01*
X155314788Y-112712211D01*
X155333135Y-112818642D01*
X155352566Y-112931035D01*
X155373344Y-113050938D01*
X155395732Y-113179894D01*
X155419996Y-113319450D01*
X155446397Y-113471149D01*
X155448338Y-113482305D01*
X155464081Y-113573284D01*
X155481037Y-113672052D01*
X155498688Y-113775542D01*
X155516515Y-113880685D01*
X155533999Y-113984413D01*
X155550622Y-114083659D01*
X155565863Y-114175354D01*
X155579205Y-114256430D01*
X155583612Y-114283376D01*
X155603047Y-114401946D01*
X155622587Y-114520756D01*
X155642038Y-114638642D01*
X155661206Y-114754441D01*
X155679895Y-114866990D01*
X155697912Y-114975126D01*
X155715062Y-115077685D01*
X155731151Y-115173505D01*
X155745984Y-115261421D01*
X155759368Y-115340272D01*
X155771106Y-115408893D01*
X155781006Y-115466121D01*
X155788872Y-115510794D01*
X155789053Y-115511808D01*
X155797830Y-115561937D01*
X155804312Y-115602323D01*
X155808845Y-115636799D01*
X155811779Y-115669197D01*
X155813462Y-115703349D01*
X155814243Y-115743087D01*
X155814471Y-115792244D01*
X155814319Y-115833449D01*
X155813234Y-115885990D01*
X155810970Y-115929458D01*
X155807357Y-115966742D01*
X155802225Y-116000725D01*
X155782459Y-116095353D01*
X155744398Y-116226587D01*
X155694957Y-116350547D01*
X155633619Y-116468316D01*
X155559868Y-116580974D01*
X155473188Y-116689601D01*
X155402707Y-116763298D01*
X155309527Y-116844164D01*
X155207465Y-116917316D01*
X155098616Y-116981537D01*
X154985079Y-117035606D01*
X154868949Y-117078306D01*
X154752325Y-117108418D01*
X154737199Y-117111425D01*
X154720307Y-117114614D01*
X154703299Y-117117539D01*
X154685546Y-117120215D01*
X154666422Y-117122657D01*
X154645302Y-117124878D01*
X154621558Y-117126892D01*
X154594565Y-117128714D01*
X154563696Y-117130357D01*
X154528324Y-117131837D01*
X154487823Y-117133166D01*
X154441567Y-117134360D01*
X154388929Y-117135432D01*
X154329283Y-117136396D01*
X154262002Y-117137267D01*
X154186460Y-117138058D01*
X154102031Y-117138785D01*
X154008088Y-117139460D01*
X153904005Y-117140098D01*
X153789156Y-117140713D01*
X153662913Y-117141320D01*
X153524650Y-117141932D01*
X153373742Y-117142564D01*
X153209562Y-117143230D01*
X153141982Y-117143501D01*
X152930590Y-117144350D01*
X152732523Y-117145143D01*
X152547343Y-117145878D01*
X152374610Y-117146554D01*
X152213887Y-117147171D01*
X152064734Y-117147727D01*
X151926713Y-117148221D01*
X151799385Y-117148652D01*
X151682311Y-117149019D01*
X151575052Y-117149320D01*
X151477170Y-117149556D01*
X151388226Y-117149724D01*
X151307782Y-117149823D01*
X151235397Y-117149854D01*
X151170635Y-117149813D01*
X151113055Y-117149701D01*
X151062220Y-117149515D01*
X151017691Y-117149256D01*
X150979028Y-117148922D01*
X150945793Y-117148512D01*
X150917547Y-117148025D01*
X150893853Y-117147459D01*
X150874270Y-117146814D01*
X150858360Y-117146088D01*
X150845684Y-117145281D01*
X150835804Y-117144391D01*
X150828282Y-117143418D01*
X150822677Y-117142359D01*
X150818551Y-117141215D01*
X150815467Y-117139984D01*
X150812984Y-117138664D01*
X150810665Y-117137256D01*
X150809229Y-117136360D01*
X150791282Y-117122377D01*
X150778191Y-117107747D01*
X150778085Y-117107575D01*
X150773434Y-117097416D01*
X150764496Y-117075627D01*
X150751790Y-117043545D01*
X150735831Y-117002508D01*
X150717138Y-116953855D01*
X150696226Y-116898925D01*
X150673615Y-116839054D01*
X150649820Y-116775582D01*
X150637894Y-116743688D01*
X150615048Y-116682720D01*
X150587650Y-116609733D01*
X150555927Y-116525330D01*
X150520106Y-116430111D01*
X150480414Y-116324680D01*
X150437078Y-116209637D01*
X150390324Y-116085585D01*
X150340381Y-115953124D01*
X150287473Y-115812858D01*
X150231830Y-115665387D01*
X150173676Y-115511314D01*
X150113240Y-115351239D01*
X150050748Y-115185766D01*
X149986427Y-115015495D01*
X149920504Y-114841029D01*
X149853206Y-114662969D01*
X149788847Y-114492709D01*
X151096140Y-114487686D01*
X151250787Y-114487069D01*
X151417085Y-114486344D01*
X151569961Y-114485605D01*
X151709672Y-114484851D01*
X151836473Y-114484078D01*
X151950622Y-114483285D01*
X152052373Y-114482469D01*
X152141984Y-114481627D01*
X152219709Y-114480757D01*
X152285807Y-114479857D01*
X152340531Y-114478924D01*
X152384139Y-114477956D01*
X152416887Y-114476950D01*
X152439031Y-114475904D01*
X152450827Y-114474815D01*
X152451337Y-114474730D01*
X152510031Y-114459031D01*
X152563389Y-114433226D01*
X152609433Y-114398793D01*
X152646184Y-114357209D01*
X152671664Y-114309952D01*
X152675423Y-114299777D01*
X152683338Y-114273251D01*
X152688502Y-114245289D01*
X152690849Y-114214164D01*
X152690313Y-114178148D01*
X152686829Y-114135517D01*
X152680332Y-114084542D01*
X152670755Y-114023498D01*
X152658034Y-113950657D01*
X152651474Y-113914196D01*
X152640079Y-113850333D01*
X152628147Y-113782781D01*
X152615536Y-113710706D01*
X152602103Y-113633272D01*
X152587706Y-113549643D01*
X152572203Y-113458983D01*
X152555452Y-113360457D01*
X152537310Y-113253228D01*
X152517635Y-113136462D01*
X152496285Y-113009322D01*
X152473117Y-112870974D01*
X152447988Y-112720580D01*
X152420758Y-112557305D01*
X152409212Y-112488096D01*
X152390809Y-112378034D01*
X152371791Y-112264577D01*
X152352479Y-112149625D01*
X152333193Y-112035080D01*
X152314255Y-111922841D01*
X152295985Y-111814809D01*
X152278704Y-111712887D01*
X152262734Y-111618973D01*
X152248394Y-111534970D01*
X152236007Y-111462777D01*
X152234154Y-111452013D01*
X152222769Y-111385640D01*
X152209384Y-111307307D01*
X152194251Y-111218490D01*
X152177618Y-111120666D01*
X152159737Y-111015313D01*
X152140857Y-110903906D01*
X152121229Y-110787922D01*
X152101102Y-110668838D01*
X152080726Y-110548132D01*
X152060353Y-110427279D01*
X152040231Y-110307756D01*
X152020612Y-110191040D01*
X152014305Y-110153497D01*
X151980566Y-109952835D01*
X151944842Y-109740666D01*
X151907446Y-109518821D01*
X151868686Y-109289134D01*
X151828873Y-109053439D01*
X151788317Y-108813567D01*
X151747328Y-108571354D01*
X151706217Y-108328630D01*
X151665293Y-108087231D01*
X151624868Y-107848988D01*
X151585250Y-107615735D01*
X151546750Y-107389306D01*
X151509679Y-107171533D01*
X151495763Y-107089743D01*
X151478295Y-106986873D01*
X151459941Y-106878589D01*
X151441163Y-106767623D01*
X151422420Y-106656704D01*
X151404176Y-106548563D01*
X151386891Y-106445930D01*
X151371027Y-106351537D01*
X151357044Y-106268113D01*
X151345248Y-106198003D01*
X151332933Y-106125639D01*
X151321225Y-106057674D01*
X151310359Y-105995437D01*
X151300573Y-105940260D01*
X151292102Y-105893474D01*
X151285182Y-105856409D01*
X151280050Y-105830396D01*
X151276942Y-105816766D01*
X151261224Y-105771288D01*
X151232507Y-105716455D01*
X151195726Y-105672683D01*
X151150216Y-105639392D01*
X151095313Y-105616004D01*
X151030351Y-105601938D01*
X151024832Y-105601445D01*
X151004284Y-105600596D01*
X150970584Y-105599876D01*
X150923675Y-105599285D01*
X150863499Y-105598821D01*
X150789998Y-105598486D01*
X150703117Y-105598279D01*
X150602796Y-105598201D01*
X150488979Y-105598250D01*
X150361608Y-105598428D01*
X150220626Y-105598734D01*
X150065976Y-105599168D01*
X149897599Y-105599730D01*
X149715439Y-105600420D01*
X149519439Y-105601239D01*
X149433016Y-105601601D01*
X149310216Y-105602081D01*
X149174925Y-105602575D01*
X149027934Y-105603081D01*
X148870035Y-105603596D01*
X148702020Y-105604119D01*
X148524679Y-105604648D01*
X148338804Y-105605181D01*
X148145188Y-105605716D01*
X147944620Y-105606251D01*
X147737894Y-105606784D01*
X147525800Y-105607313D01*
X147309130Y-105607836D01*
X147088676Y-105608351D01*
X146865229Y-105608856D01*
X146639580Y-105609350D01*
X146412521Y-105609830D01*
X146184844Y-105610294D01*
X145957339Y-105610740D01*
X145730800Y-105611166D01*
X145506016Y-105611571D01*
X145283780Y-105611953D01*
X145064883Y-105612308D01*
X142069699Y-105617033D01*
X141582689Y-104325104D01*
X141095679Y-103033174D01*
X141951006Y-103028838D01*
X142011739Y-103028539D01*
X142117202Y-103028053D01*
X142235501Y-103027543D01*
X142366029Y-103027010D01*
X142508177Y-103026457D01*
X142661339Y-103025885D01*
X142824906Y-103025295D01*
X142998271Y-103024689D01*
X143180827Y-103024069D01*
X143371965Y-103023436D01*
X143571079Y-103022792D01*
X143777560Y-103022138D01*
X143990801Y-103021476D01*
X144210194Y-103020807D01*
X144435133Y-103020134D01*
X144665008Y-103019457D01*
X144899213Y-103018779D01*
X145137139Y-103018101D01*
X145378180Y-103017424D01*
X145621728Y-103016750D01*
X145867175Y-103016081D01*
X146113913Y-103015418D01*
X146361335Y-103014763D01*
X146608833Y-103014118D01*
X146855800Y-103013483D01*
X147101628Y-103012862D01*
X147345710Y-103012254D01*
X147587437Y-103011663D01*
X147826203Y-103011088D01*
X148061399Y-103010533D01*
X148292418Y-103009999D01*
X148518653Y-103009486D01*
X148739495Y-103008998D01*
X148954338Y-103008535D01*
X149162573Y-103008099D01*
X149363594Y-103007691D01*
X149556791Y-103007313D01*
X149741559Y-103006968D01*
X149917288Y-103006655D01*
X150083372Y-103006378D01*
X150239203Y-103006137D01*
X150384174Y-103005935D01*
X150517676Y-103005772D01*
X150639102Y-103005650D01*
X150747845Y-103005571D01*
X150843297Y-103005537D01*
X150921304Y-103005531D01*
X151075893Y-103005549D01*
G37*
G36*
X146084301Y-106240321D02*
G01*
X146221045Y-106240374D01*
X146353754Y-106240477D01*
X146481771Y-106240628D01*
X146604439Y-106240825D01*
X146721100Y-106241065D01*
X146831097Y-106241346D01*
X146933771Y-106241664D01*
X147028466Y-106242018D01*
X147114522Y-106242404D01*
X147191284Y-106242821D01*
X147258093Y-106243265D01*
X147314291Y-106243734D01*
X147359221Y-106244225D01*
X147392225Y-106244737D01*
X147412646Y-106245265D01*
X147419825Y-106245809D01*
X147419834Y-106245826D01*
X147421348Y-106253461D01*
X147425093Y-106274384D01*
X147431002Y-106308199D01*
X147439007Y-106354509D01*
X147449043Y-106412916D01*
X147461042Y-106483025D01*
X147474937Y-106564437D01*
X147490662Y-106656756D01*
X147508150Y-106759585D01*
X147527334Y-106872528D01*
X147548147Y-106995186D01*
X147570522Y-107127163D01*
X147594392Y-107268063D01*
X147619692Y-107417487D01*
X147646353Y-107575040D01*
X147674309Y-107740324D01*
X147703493Y-107912942D01*
X147733838Y-108092498D01*
X147765277Y-108278594D01*
X147797745Y-108470833D01*
X147831173Y-108668819D01*
X147865495Y-108872154D01*
X147900644Y-109080441D01*
X147936553Y-109293284D01*
X147973156Y-109510286D01*
X148010385Y-109731049D01*
X148048174Y-109955177D01*
X148086456Y-110182273D01*
X148125164Y-110411939D01*
X148164232Y-110643779D01*
X148203591Y-110877396D01*
X148243177Y-111112393D01*
X148282921Y-111348372D01*
X148322757Y-111584937D01*
X148362618Y-111821692D01*
X148402437Y-112058238D01*
X148442148Y-112294179D01*
X148481683Y-112529119D01*
X148520976Y-112762659D01*
X148559960Y-112994404D01*
X148598568Y-113223955D01*
X148636733Y-113450917D01*
X148674389Y-113674892D01*
X148711468Y-113895484D01*
X148747904Y-114112294D01*
X148783630Y-114324927D01*
X148818579Y-114532986D01*
X148852684Y-114736072D01*
X148885879Y-114933791D01*
X148918096Y-115125743D01*
X148949268Y-115311534D01*
X148979330Y-115490765D01*
X149008214Y-115663039D01*
X149035853Y-115827960D01*
X149062180Y-115985131D01*
X149087129Y-116134154D01*
X149110633Y-116274633D01*
X149132624Y-116406171D01*
X149153036Y-116528371D01*
X149171803Y-116640836D01*
X149188857Y-116743169D01*
X149204132Y-116834972D01*
X149217560Y-116915850D01*
X149229075Y-116985404D01*
X149238611Y-117043239D01*
X149246099Y-117088956D01*
X149251474Y-117122160D01*
X149254668Y-117142453D01*
X149255615Y-117149438D01*
X149250994Y-117149783D01*
X149233149Y-117150235D01*
X149202437Y-117150701D01*
X149159437Y-117151179D01*
X149104726Y-117151667D01*
X149038880Y-117152161D01*
X148962478Y-117152659D01*
X148876095Y-117153159D01*
X148780310Y-117153656D01*
X148675700Y-117154150D01*
X148562841Y-117154637D01*
X148442312Y-117155114D01*
X148314689Y-117155578D01*
X148180549Y-117156028D01*
X148040471Y-117156460D01*
X147895030Y-117156872D01*
X147744805Y-117157260D01*
X147590372Y-117157623D01*
X147432308Y-117157957D01*
X147275884Y-117158270D01*
X147105519Y-117158612D01*
X146934150Y-117158956D01*
X146762709Y-117159302D01*
X146592128Y-117159646D01*
X146423337Y-117159988D01*
X146257269Y-117160324D01*
X146094854Y-117160654D01*
X145937024Y-117160976D01*
X145784711Y-117161287D01*
X145638845Y-117161585D01*
X145500358Y-117161870D01*
X145370182Y-117162138D01*
X145249247Y-117162388D01*
X145138486Y-117162618D01*
X145038829Y-117162826D01*
X144951209Y-117163011D01*
X144876555Y-117163169D01*
X144139226Y-117164747D01*
X144111561Y-117144707D01*
X144104072Y-117138756D01*
X144085562Y-117119853D01*
X144073085Y-117101273D01*
X144068603Y-117090601D01*
X144059384Y-117067434D01*
X144045935Y-117033002D01*
X144028543Y-116988060D01*
X144007495Y-116933369D01*
X143983077Y-116869686D01*
X143955576Y-116797769D01*
X143925278Y-116718375D01*
X143892470Y-116632264D01*
X143857439Y-116540193D01*
X143820471Y-116442920D01*
X143781852Y-116341203D01*
X143741870Y-116235800D01*
X143700810Y-116127469D01*
X143658960Y-116016969D01*
X143616605Y-115905057D01*
X143574034Y-115792491D01*
X143531531Y-115680029D01*
X143489384Y-115568430D01*
X143447879Y-115458452D01*
X143407304Y-115350851D01*
X143367943Y-115246387D01*
X143330085Y-115145818D01*
X143294015Y-115049901D01*
X143260020Y-114959395D01*
X143228387Y-114875057D01*
X143199402Y-114797646D01*
X143173352Y-114727920D01*
X143150524Y-114666636D01*
X143131203Y-114614553D01*
X143115677Y-114572429D01*
X143104233Y-114541021D01*
X143097156Y-114521089D01*
X143094733Y-114513389D01*
X143098594Y-114513131D01*
X143115402Y-114512796D01*
X143144909Y-114512471D01*
X143186426Y-114512158D01*
X143239269Y-114511860D01*
X143302750Y-114511577D01*
X143376183Y-114511313D01*
X143458882Y-114511067D01*
X143550161Y-114510844D01*
X143649332Y-114510643D01*
X143755711Y-114510468D01*
X143868610Y-114510320D01*
X143987343Y-114510200D01*
X144111223Y-114510110D01*
X144239565Y-114510053D01*
X144371682Y-114510030D01*
X144438972Y-114510022D01*
X144618586Y-114509945D01*
X144784315Y-114509788D01*
X144936169Y-114509550D01*
X145074158Y-114509232D01*
X145198292Y-114508833D01*
X145308582Y-114508353D01*
X145405037Y-114507792D01*
X145487668Y-114507151D01*
X145556484Y-114506429D01*
X145611495Y-114505626D01*
X145652712Y-114504741D01*
X145680145Y-114503776D01*
X145693803Y-114502730D01*
X145749298Y-114488837D01*
X145806148Y-114462573D01*
X145855223Y-114426426D01*
X145895381Y-114381702D01*
X145925480Y-114329704D01*
X145944377Y-114271738D01*
X145950930Y-114209107D01*
X145950866Y-114206992D01*
X145949131Y-114189810D01*
X145945229Y-114161044D01*
X145939428Y-114122399D01*
X145931997Y-114075574D01*
X145923205Y-114022275D01*
X145913321Y-113964201D01*
X145902612Y-113903057D01*
X145891924Y-113842636D01*
X145870618Y-113720981D01*
X145847245Y-113586066D01*
X145821795Y-113437832D01*
X145794257Y-113276221D01*
X145764623Y-113101173D01*
X145732881Y-112912629D01*
X145699022Y-112710530D01*
X145663035Y-112494817D01*
X145624911Y-112265431D01*
X145616201Y-112213043D01*
X145597163Y-112099139D01*
X145576472Y-111976059D01*
X145554616Y-111846664D01*
X145532082Y-111713816D01*
X145509356Y-111580376D01*
X145486927Y-111449207D01*
X145465279Y-111323169D01*
X145444901Y-111205124D01*
X145426279Y-111097935D01*
X145417621Y-111048148D01*
X145402036Y-110957969D01*
X145384626Y-110856647D01*
X145365661Y-110745770D01*
X145345409Y-110626923D01*
X145324137Y-110501691D01*
X145302115Y-110371660D01*
X145279611Y-110238416D01*
X145256893Y-110103544D01*
X145234230Y-109968630D01*
X145211890Y-109835260D01*
X145190141Y-109705020D01*
X145169253Y-109579494D01*
X145153529Y-109484849D01*
X145130871Y-109348573D01*
X145109428Y-109219761D01*
X145089001Y-109097238D01*
X145069392Y-108979828D01*
X145050400Y-108866356D01*
X145031827Y-108755646D01*
X145013473Y-108646523D01*
X144995140Y-108537811D01*
X144976629Y-108428334D01*
X144957739Y-108316917D01*
X144938273Y-108202385D01*
X144918030Y-108083562D01*
X144896813Y-107959272D01*
X144874421Y-107828340D01*
X144850656Y-107689590D01*
X144825318Y-107541847D01*
X144798209Y-107383935D01*
X144769129Y-107214679D01*
X144737879Y-107032903D01*
X144731535Y-106995960D01*
X144713900Y-106892690D01*
X144697289Y-106794570D01*
X144681839Y-106702452D01*
X144667689Y-106617192D01*
X144654977Y-106539644D01*
X144643842Y-106470660D01*
X144634421Y-106411095D01*
X144626853Y-106361804D01*
X144621276Y-106323639D01*
X144617828Y-106297455D01*
X144616648Y-106284107D01*
X144616648Y-106240315D01*
X146016539Y-106240315D01*
X146084301Y-106240321D01*
G37*
G36*
X154832243Y-121105048D02*
G01*
X154400716Y-121105048D01*
X154350335Y-121105051D01*
X154266029Y-121105036D01*
X154194058Y-121104917D01*
X154133404Y-121104605D01*
X154083046Y-121104008D01*
X154041965Y-121103037D01*
X154009142Y-121101601D01*
X153983558Y-121099608D01*
X153964193Y-121096969D01*
X153950027Y-121093594D01*
X153940042Y-121089390D01*
X153933218Y-121084269D01*
X153928536Y-121078140D01*
X153924976Y-121070911D01*
X153921518Y-121062493D01*
X153921268Y-121061843D01*
X153917707Y-121048797D01*
X153912103Y-121024248D01*
X153904863Y-120990152D01*
X153896393Y-120948462D01*
X153887098Y-120901135D01*
X153877386Y-120850124D01*
X153841149Y-120656813D01*
X154086518Y-120654988D01*
X154331888Y-120653163D01*
X154331888Y-118658865D01*
X154832243Y-118658865D01*
X154832243Y-121105048D01*
G37*
G36*
X143207567Y-119652380D02*
G01*
X143207730Y-119739692D01*
X143207985Y-119868700D01*
X143208239Y-119984909D01*
X143208502Y-120088996D01*
X143208785Y-120181638D01*
X143209095Y-120263512D01*
X143209444Y-120335296D01*
X143209841Y-120397666D01*
X143210295Y-120451299D01*
X143210815Y-120496873D01*
X143211412Y-120535065D01*
X143212096Y-120566551D01*
X143212874Y-120592010D01*
X143213758Y-120612117D01*
X143214757Y-120627550D01*
X143215880Y-120638986D01*
X143217137Y-120647102D01*
X143218537Y-120652576D01*
X143220091Y-120656084D01*
X143221807Y-120658303D01*
X143223389Y-120659759D01*
X143233335Y-120665353D01*
X143249517Y-120669454D01*
X143274489Y-120672543D01*
X143310805Y-120675103D01*
X143333734Y-120676209D01*
X143377413Y-120676538D01*
X143409949Y-120673608D01*
X143433042Y-120667195D01*
X143448392Y-120657077D01*
X143449497Y-120655551D01*
X143450948Y-120651722D01*
X143452260Y-120645348D01*
X143453442Y-120635764D01*
X143454502Y-120622299D01*
X143455449Y-120604287D01*
X143456291Y-120581059D01*
X143457037Y-120551947D01*
X143457696Y-120516285D01*
X143458276Y-120473402D01*
X143458786Y-120422633D01*
X143459235Y-120363308D01*
X143459631Y-120294760D01*
X143459983Y-120216321D01*
X143460299Y-120127322D01*
X143460589Y-120027097D01*
X143460860Y-119914977D01*
X143461122Y-119790293D01*
X143461383Y-119652379D01*
X143463191Y-118658865D01*
X143970355Y-118658865D01*
X143970355Y-119731269D01*
X143970350Y-119786751D01*
X143970272Y-119950377D01*
X143970098Y-120100156D01*
X143969829Y-120236127D01*
X143969463Y-120358328D01*
X143969002Y-120466799D01*
X143968443Y-120561578D01*
X143967788Y-120642705D01*
X143967036Y-120710217D01*
X143966186Y-120764155D01*
X143965239Y-120804557D01*
X143964195Y-120831461D01*
X143963052Y-120844907D01*
X143950745Y-120899601D01*
X143928969Y-120959328D01*
X143900275Y-121007324D01*
X143864399Y-121043913D01*
X143821079Y-121069423D01*
X143770052Y-121084178D01*
X143758728Y-121085729D01*
X143731140Y-121088346D01*
X143693882Y-121091036D01*
X143649537Y-121093639D01*
X143600688Y-121095992D01*
X143549918Y-121097934D01*
X143518155Y-121098913D01*
X143442266Y-121100709D01*
X143365826Y-121101821D01*
X143290440Y-121102273D01*
X143217712Y-121102087D01*
X143149248Y-121101287D01*
X143086652Y-121099896D01*
X143031528Y-121097938D01*
X142985481Y-121095436D01*
X142950116Y-121092413D01*
X142927037Y-121088892D01*
X142865904Y-121069719D01*
X142815593Y-121042341D01*
X142775452Y-121006088D01*
X142744707Y-120960260D01*
X142722585Y-120904159D01*
X142721152Y-120899175D01*
X142718137Y-120887640D01*
X142715402Y-120875122D01*
X142712933Y-120860940D01*
X142710718Y-120844415D01*
X142708743Y-120824867D01*
X142706993Y-120801616D01*
X142705457Y-120773983D01*
X142704118Y-120741287D01*
X142702966Y-120702850D01*
X142701984Y-120657991D01*
X142701161Y-120606030D01*
X142700482Y-120546289D01*
X142699934Y-120478086D01*
X142699503Y-120400743D01*
X142699176Y-120313580D01*
X142698939Y-120215916D01*
X142698778Y-120107073D01*
X142698680Y-119986370D01*
X142698631Y-119853128D01*
X142698618Y-119706667D01*
X142698618Y-118658865D01*
X143205737Y-118658865D01*
X143207567Y-119652380D01*
G37*
G36*
X142998886Y-109090717D02*
G01*
X143083113Y-109090763D01*
X143158480Y-109090838D01*
X143224266Y-109090942D01*
X143279753Y-109091076D01*
X143324220Y-109091238D01*
X143356947Y-109091429D01*
X143377216Y-109091647D01*
X143384305Y-109091893D01*
X143385427Y-109094609D01*
X143391053Y-109109119D01*
X143401182Y-109135577D01*
X143415568Y-109173334D01*
X143433966Y-109221741D01*
X143456130Y-109280149D01*
X143481815Y-109347909D01*
X143510774Y-109424373D01*
X143542763Y-109508892D01*
X143577535Y-109600817D01*
X143614846Y-109699500D01*
X143654449Y-109804292D01*
X143696099Y-109914544D01*
X143739551Y-110029607D01*
X143784559Y-110148832D01*
X143830877Y-110271572D01*
X143859613Y-110347733D01*
X143905219Y-110468602D01*
X143949384Y-110585648D01*
X143991861Y-110698216D01*
X144032402Y-110805650D01*
X144070760Y-110907293D01*
X144106687Y-111002491D01*
X144139936Y-111090587D01*
X144170259Y-111170926D01*
X144197409Y-111242851D01*
X144221138Y-111305708D01*
X144241198Y-111358839D01*
X144257343Y-111401589D01*
X144269323Y-111433303D01*
X144276893Y-111453325D01*
X144279805Y-111460998D01*
X144280142Y-111462279D01*
X144279489Y-111464331D01*
X144276474Y-111466116D01*
X144270211Y-111467656D01*
X144259811Y-111468975D01*
X144244388Y-111470094D01*
X144223053Y-111471037D01*
X144194919Y-111471826D01*
X144159099Y-111472484D01*
X144114705Y-111473033D01*
X144060850Y-111473496D01*
X143996646Y-111473895D01*
X143921206Y-111474254D01*
X143833642Y-111474594D01*
X143733066Y-111474939D01*
X143729312Y-111474952D01*
X143546828Y-111475555D01*
X143377716Y-111476113D01*
X143221457Y-111476624D01*
X143077533Y-111477084D01*
X142945428Y-111477491D01*
X142824624Y-111477844D01*
X142714603Y-111478139D01*
X142614848Y-111478374D01*
X142524841Y-111478547D01*
X142444065Y-111478656D01*
X142372001Y-111478697D01*
X142308134Y-111478670D01*
X142251944Y-111478570D01*
X142202915Y-111478397D01*
X142160529Y-111478147D01*
X142124269Y-111477818D01*
X142093616Y-111477409D01*
X142068054Y-111476915D01*
X142047065Y-111476335D01*
X142030131Y-111475667D01*
X142016735Y-111474909D01*
X142006360Y-111474057D01*
X141998487Y-111473109D01*
X141992599Y-111472064D01*
X141988179Y-111470918D01*
X141984709Y-111469670D01*
X141981672Y-111468317D01*
X141978550Y-111466856D01*
X141973428Y-111464303D01*
X141950328Y-111448511D01*
X141931679Y-111429917D01*
X141928769Y-111425141D01*
X141919932Y-111406769D01*
X141907098Y-111377121D01*
X141890736Y-111337371D01*
X141871319Y-111288691D01*
X141849317Y-111232255D01*
X141825202Y-111169234D01*
X141799445Y-111100802D01*
X141783768Y-111058871D01*
X141761682Y-110999889D01*
X141735622Y-110930376D01*
X141706085Y-110851651D01*
X141673567Y-110765034D01*
X141638563Y-110671845D01*
X141601570Y-110573402D01*
X141563082Y-110471026D01*
X141523596Y-110366036D01*
X141483608Y-110259751D01*
X141443613Y-110153492D01*
X141404108Y-110048578D01*
X141394305Y-110022549D01*
X141356891Y-109923163D01*
X141320378Y-109826109D01*
X141285130Y-109732358D01*
X141251511Y-109642878D01*
X141219885Y-109558641D01*
X141190615Y-109480617D01*
X141164066Y-109409776D01*
X141140601Y-109347088D01*
X141120584Y-109293524D01*
X141104379Y-109250054D01*
X141092350Y-109217649D01*
X141084861Y-109197278D01*
X141046985Y-109093037D01*
X142214460Y-109091280D01*
X142221664Y-109091269D01*
X142347761Y-109091095D01*
X142470036Y-109090953D01*
X142587768Y-109090843D01*
X142700240Y-109090765D01*
X142806729Y-109090718D01*
X142906518Y-109090702D01*
X142998886Y-109090717D01*
G37*
G36*
X148314252Y-133538437D02*
G01*
X148332317Y-133601049D01*
X148346817Y-133648846D01*
X148358437Y-133683861D01*
X148367862Y-133708125D01*
X148375776Y-133723669D01*
X148382863Y-133732527D01*
X148389809Y-133736729D01*
X148397298Y-133738308D01*
X148404337Y-133739250D01*
X148415305Y-133742999D01*
X148422260Y-133752734D01*
X148426382Y-133772771D01*
X148428850Y-133807425D01*
X148430846Y-133861012D01*
X148434826Y-133980220D01*
X147910348Y-133980220D01*
X147910348Y-133735989D01*
X148005977Y-133735989D01*
X147998247Y-133692377D01*
X147994113Y-133668836D01*
X147987158Y-133637863D01*
X147976791Y-133619709D01*
X147958054Y-133610963D01*
X147925989Y-133608217D01*
X147875638Y-133608059D01*
X147772715Y-133608059D01*
X147760121Y-133666782D01*
X147755499Y-133688700D01*
X147749767Y-133717329D01*
X147747527Y-133730747D01*
X147748705Y-133731918D01*
X147764902Y-133734825D01*
X147794047Y-133735989D01*
X147840568Y-133735989D01*
X147840568Y-133980220D01*
X147247436Y-133980220D01*
X147247436Y-133737534D01*
X147279418Y-133733854D01*
X147279982Y-133733789D01*
X147287889Y-133732422D01*
X147295015Y-133728952D01*
X147302055Y-133721347D01*
X147309701Y-133707572D01*
X147318647Y-133685597D01*
X147329587Y-133653386D01*
X147343214Y-133608909D01*
X147360222Y-133550132D01*
X147381304Y-133475023D01*
X147387490Y-133452653D01*
X147805677Y-133452653D01*
X147813362Y-133454570D01*
X147838648Y-133456230D01*
X147875458Y-133456868D01*
X147906471Y-133456029D01*
X147935659Y-133451377D01*
X147944753Y-133442331D01*
X147942290Y-133423061D01*
X147935923Y-133387811D01*
X147926856Y-133342567D01*
X147916282Y-133292801D01*
X147905393Y-133243981D01*
X147895381Y-133201580D01*
X147887439Y-133171067D01*
X147882760Y-133157913D01*
X147881589Y-133156874D01*
X147869729Y-133156339D01*
X147868579Y-133159208D01*
X147863160Y-133179739D01*
X147854759Y-133215447D01*
X147844519Y-133261050D01*
X147833580Y-133311267D01*
X147823085Y-133360817D01*
X147814175Y-133404419D01*
X147807992Y-133436791D01*
X147805677Y-133452653D01*
X147387490Y-133452653D01*
X147407153Y-133381548D01*
X147438464Y-133267675D01*
X147565528Y-132805175D01*
X147839458Y-132808288D01*
X148113387Y-132811401D01*
X148240558Y-133273107D01*
X148264691Y-133360641D01*
X148287325Y-133442331D01*
X148291938Y-133458978D01*
X148314252Y-133538437D01*
G37*
G36*
X144909798Y-133049817D02*
G01*
X144828388Y-133049817D01*
X144828388Y-133735989D01*
X144909798Y-133735989D01*
X144909798Y-133980220D01*
X143979395Y-133980220D01*
X143979395Y-133596429D01*
X144270146Y-133596429D01*
X144270146Y-133735989D01*
X144409707Y-133735989D01*
X144409707Y-133049817D01*
X144270146Y-133049817D01*
X144270146Y-132805586D01*
X144909798Y-132805586D01*
X144909798Y-133049817D01*
G37*
G36*
X149573500Y-133431222D02*
G01*
X149564958Y-133528807D01*
X149549269Y-133620672D01*
X149526985Y-133701189D01*
X149498658Y-133764731D01*
X149479905Y-133793715D01*
X149415410Y-133864997D01*
X149333686Y-133922757D01*
X149236802Y-133965728D01*
X149126825Y-133992641D01*
X149120934Y-133993518D01*
X149061490Y-133997983D01*
X148990258Y-133997650D01*
X148915961Y-133993032D01*
X148847319Y-133984642D01*
X148793053Y-133972995D01*
X148696555Y-133936041D01*
X148612587Y-133884235D01*
X148545230Y-133818077D01*
X148493952Y-133736717D01*
X148472744Y-133678896D01*
X148898901Y-133678896D01*
X148927447Y-133707443D01*
X148945771Y-133721372D01*
X148988661Y-133735377D01*
X149034748Y-133732974D01*
X149074970Y-133713775D01*
X149078527Y-133710861D01*
X149086383Y-133703189D01*
X149092355Y-133693110D01*
X149096753Y-133677645D01*
X149099886Y-133653815D01*
X149102062Y-133618643D01*
X149103592Y-133569148D01*
X149104783Y-133502352D01*
X149105945Y-133415277D01*
X149106677Y-133329348D01*
X149106296Y-133241315D01*
X149104440Y-133175346D01*
X149101090Y-133130800D01*
X149096224Y-133107033D01*
X149093181Y-133100592D01*
X149065200Y-133070592D01*
X149023775Y-133054437D01*
X148975024Y-133054766D01*
X148955631Y-133058984D01*
X148937517Y-133065981D01*
X148923733Y-133077728D01*
X148913688Y-133096868D01*
X148906791Y-133126046D01*
X148902455Y-133167905D01*
X148900087Y-133225091D01*
X148899099Y-133300248D01*
X148898901Y-133396020D01*
X148898901Y-133678896D01*
X148472744Y-133678896D01*
X148458222Y-133639302D01*
X148437509Y-133524981D01*
X148431282Y-133392903D01*
X148431305Y-133389482D01*
X148436728Y-133271891D01*
X148451676Y-133172556D01*
X148477138Y-133088175D01*
X148514102Y-133015446D01*
X148563558Y-132951067D01*
X148567916Y-132946378D01*
X148640448Y-132885050D01*
X148727704Y-132836969D01*
X148823658Y-132805507D01*
X148825026Y-132805206D01*
X148873519Y-132798270D01*
X148936650Y-132794212D01*
X149006874Y-132793013D01*
X149076644Y-132794655D01*
X149138414Y-132799120D01*
X149184638Y-132806389D01*
X149215353Y-132814574D01*
X149316311Y-132854806D01*
X149400883Y-132911545D01*
X149469030Y-132984753D01*
X149520718Y-133074395D01*
X149555909Y-133180432D01*
X149566942Y-133241403D01*
X149574009Y-133329348D01*
X149574346Y-133333545D01*
X149573500Y-133431222D01*
G37*
G36*
X153167124Y-135050183D02*
G01*
X153167124Y-135296449D01*
X152757165Y-135291597D01*
X152706549Y-135290977D01*
X152596572Y-135289336D01*
X152506108Y-135287253D01*
X152432488Y-135284364D01*
X152373046Y-135280309D01*
X152325112Y-135274724D01*
X152286019Y-135267247D01*
X152253098Y-135257517D01*
X152223681Y-135245172D01*
X152195100Y-135229848D01*
X152164687Y-135211185D01*
X152119953Y-135175598D01*
X152083642Y-135124676D01*
X152063099Y-135060665D01*
X152056849Y-134980403D01*
X152057338Y-134958847D01*
X152063011Y-134916438D01*
X152492582Y-134916438D01*
X152493039Y-134946638D01*
X152496523Y-134979872D01*
X152505199Y-135002340D01*
X152521129Y-135021637D01*
X152537476Y-135035470D01*
X152565586Y-135047061D01*
X152606416Y-135050183D01*
X152625471Y-135049752D01*
X152655622Y-135046959D01*
X152670909Y-135042430D01*
X152673470Y-135032767D01*
X152676157Y-135003738D01*
X152677987Y-134960669D01*
X152678663Y-134908685D01*
X152678663Y-134782693D01*
X152614169Y-134782693D01*
X152610274Y-134782702D01*
X152570061Y-134785134D01*
X152543310Y-134793737D01*
X152521129Y-134811239D01*
X152510052Y-134823542D01*
X152498973Y-134843976D01*
X152493836Y-134872410D01*
X152492582Y-134916438D01*
X152063011Y-134916438D01*
X152066613Y-134889516D01*
X152089432Y-134834901D01*
X152128168Y-134792125D01*
X152185196Y-134758309D01*
X152262889Y-134730576D01*
X152292989Y-134720978D01*
X152319538Y-134710268D01*
X152329762Y-134702869D01*
X152327687Y-134699924D01*
X152309903Y-134690868D01*
X152279851Y-134681128D01*
X152227775Y-134658030D01*
X152175574Y-134619164D01*
X152131343Y-134571395D01*
X152102509Y-134521414D01*
X152100496Y-134515925D01*
X152093595Y-134483539D01*
X152504212Y-134483539D01*
X152504382Y-134496584D01*
X152509776Y-134549044D01*
X152522317Y-134582394D01*
X152527661Y-134589309D01*
X152543551Y-134601221D01*
X152568492Y-134606835D01*
X152609542Y-134608242D01*
X152678663Y-134608242D01*
X152678663Y-134364011D01*
X152614698Y-134364011D01*
X152589125Y-134364791D01*
X152547141Y-134373104D01*
X152521143Y-134393341D01*
X152507908Y-134428991D01*
X152504212Y-134483539D01*
X152093595Y-134483539D01*
X152086427Y-134449897D01*
X152086663Y-134379279D01*
X152100447Y-134312237D01*
X152127023Y-134256935D01*
X152140148Y-134240062D01*
X152195139Y-134191828D01*
X152265950Y-134154984D01*
X152347982Y-134132129D01*
X152354383Y-134131188D01*
X152390660Y-134128079D01*
X152446009Y-134125332D01*
X152517174Y-134123039D01*
X152600900Y-134121289D01*
X152693930Y-134120173D01*
X152793008Y-134119781D01*
X153167124Y-134119781D01*
X153167124Y-134364011D01*
X153097344Y-134364011D01*
X153097344Y-135050183D01*
X153167124Y-135050183D01*
G37*
G36*
X152015751Y-133735989D02*
G01*
X152015751Y-133980220D01*
X151492399Y-133980220D01*
X151492399Y-133735989D01*
X151588028Y-133735989D01*
X151580299Y-133692377D01*
X151576165Y-133668836D01*
X151569209Y-133637863D01*
X151558842Y-133619709D01*
X151540105Y-133610963D01*
X151508041Y-133608217D01*
X151457689Y-133608059D01*
X151354766Y-133608059D01*
X151342172Y-133666782D01*
X151337550Y-133688700D01*
X151331818Y-133717329D01*
X151329579Y-133730747D01*
X151330756Y-133731918D01*
X151346953Y-133734825D01*
X151376099Y-133735989D01*
X151422619Y-133735989D01*
X151422619Y-133980220D01*
X150829487Y-133980220D01*
X150829487Y-133737534D01*
X150861470Y-133733854D01*
X150862022Y-133733790D01*
X150869931Y-133732423D01*
X150877061Y-133728950D01*
X150884108Y-133721342D01*
X150891765Y-133707564D01*
X150900728Y-133685585D01*
X150911690Y-133653372D01*
X150925348Y-133608893D01*
X150942396Y-133550117D01*
X150963528Y-133475010D01*
X150971579Y-133445968D01*
X151389563Y-133445968D01*
X151396735Y-133453344D01*
X151417323Y-133456317D01*
X151456248Y-133456868D01*
X151489187Y-133455681D01*
X151516714Y-133451935D01*
X151527289Y-133446519D01*
X151527255Y-133445840D01*
X151524579Y-133428807D01*
X151518432Y-133395365D01*
X151509934Y-133351189D01*
X151500205Y-133301955D01*
X151490363Y-133253338D01*
X151481531Y-133211013D01*
X151474826Y-133180655D01*
X151467313Y-133159430D01*
X151458778Y-133157703D01*
X151448850Y-133176587D01*
X151437097Y-133216912D01*
X151423082Y-133279510D01*
X151414558Y-133320618D01*
X151404201Y-133370130D01*
X151396005Y-133408818D01*
X151391230Y-133430701D01*
X151390888Y-133432210D01*
X151389563Y-133445968D01*
X150971579Y-133445968D01*
X150989439Y-133381540D01*
X151020823Y-133267675D01*
X151148194Y-132805176D01*
X151422028Y-132808289D01*
X151695862Y-132811401D01*
X151870815Y-133446519D01*
X151950554Y-133735989D01*
X152015751Y-133735989D01*
G37*
G36*
X150689825Y-134859013D02*
G01*
X150708893Y-134926465D01*
X150723938Y-134979112D01*
X150734242Y-135014414D01*
X150739088Y-135029831D01*
X150750155Y-135042558D01*
X150776787Y-135050183D01*
X150806227Y-135050183D01*
X150806227Y-135164545D01*
X150805929Y-135195770D01*
X150804327Y-135240337D01*
X150801650Y-135272520D01*
X150798253Y-135286882D01*
X150795709Y-135287771D01*
X150774358Y-135289789D01*
X150734564Y-135291259D01*
X150679823Y-135292116D01*
X150613632Y-135292294D01*
X150539484Y-135291728D01*
X150288690Y-135288599D01*
X150285376Y-135169391D01*
X150282061Y-135050183D01*
X150378504Y-135050183D01*
X150370775Y-135006571D01*
X150366641Y-134983030D01*
X150359685Y-134952057D01*
X150349318Y-134933903D01*
X150330582Y-134925157D01*
X150298517Y-134922411D01*
X150248165Y-134922253D01*
X150145242Y-134922253D01*
X150132648Y-134980976D01*
X150128027Y-135002894D01*
X150122294Y-135031524D01*
X150120055Y-135044941D01*
X150121306Y-135046142D01*
X150137686Y-135049029D01*
X150166982Y-135050183D01*
X150213909Y-135050183D01*
X150210594Y-135169391D01*
X150207280Y-135288599D01*
X149913622Y-135291706D01*
X149619963Y-135294814D01*
X149619963Y-135051728D01*
X149651033Y-135048048D01*
X149651428Y-135048003D01*
X149658096Y-135047392D01*
X149663993Y-135046066D01*
X149669655Y-135042357D01*
X149675619Y-135034595D01*
X149682420Y-135021109D01*
X149690595Y-135000231D01*
X149700679Y-134970290D01*
X149713209Y-134929618D01*
X149728720Y-134876543D01*
X149747748Y-134809398D01*
X149764694Y-134748543D01*
X150180061Y-134748543D01*
X150187219Y-134755913D01*
X150207801Y-134758883D01*
X150246724Y-134759433D01*
X150279665Y-134758181D01*
X150307191Y-134754232D01*
X150317765Y-134748524D01*
X150315765Y-134734450D01*
X150309797Y-134703788D01*
X150301247Y-134664206D01*
X150294008Y-134631482D01*
X150281760Y-134574367D01*
X150271347Y-134523924D01*
X150264533Y-134494435D01*
X150255918Y-134467457D01*
X150249102Y-134457052D01*
X150244439Y-134464736D01*
X150235910Y-134491075D01*
X150225345Y-134531728D01*
X150214040Y-134582074D01*
X150205385Y-134623230D01*
X150194891Y-134672721D01*
X150186592Y-134711391D01*
X150181763Y-134733265D01*
X150181413Y-134734794D01*
X150180061Y-134748543D01*
X149764694Y-134748543D01*
X149770829Y-134726512D01*
X149798500Y-134626216D01*
X149831296Y-134506839D01*
X149869754Y-134366713D01*
X149937652Y-134119368D01*
X150211950Y-134122482D01*
X150486247Y-134125596D01*
X150608539Y-134567537D01*
X150615652Y-134593229D01*
X150642487Y-134689855D01*
X150658862Y-134748524D01*
X150667451Y-134779296D01*
X150689825Y-134859013D01*
G37*
G36*
X149573443Y-134364011D02*
G01*
X149492033Y-134364011D01*
X149492033Y-135050183D01*
X149573443Y-135050183D01*
X149573443Y-135164545D01*
X149573153Y-135195794D01*
X149571595Y-135240302D01*
X149568992Y-135272398D01*
X149565690Y-135286661D01*
X149559378Y-135288107D01*
X149532602Y-135290137D01*
X149488042Y-135291873D01*
X149429008Y-135293225D01*
X149358809Y-135294102D01*
X149280754Y-135294414D01*
X149003571Y-135294414D01*
X149003571Y-135050183D01*
X149073351Y-135050183D01*
X149073351Y-134364011D01*
X149003571Y-134364011D01*
X149003571Y-134119781D01*
X149573443Y-134119781D01*
X149573443Y-134364011D01*
G37*
G36*
X150782967Y-133735989D02*
G01*
X150782967Y-133980220D01*
X150189835Y-133980220D01*
X150189835Y-133735989D01*
X150282875Y-133735989D01*
X150282875Y-133477487D01*
X150227633Y-133485771D01*
X150226563Y-133485931D01*
X150188081Y-133492648D01*
X150158800Y-133501698D01*
X150137432Y-133516070D01*
X150122693Y-133538756D01*
X150113295Y-133572743D01*
X150107951Y-133621021D01*
X150105376Y-133686579D01*
X150104283Y-133772408D01*
X150102610Y-133980194D01*
X149867101Y-133980207D01*
X149631593Y-133980220D01*
X149631593Y-133735989D01*
X149701373Y-133735989D01*
X149701417Y-133645857D01*
X149701487Y-133636172D01*
X149707245Y-133568986D01*
X149723516Y-133519412D01*
X149752094Y-133483852D01*
X149794774Y-133458708D01*
X149806595Y-133453433D01*
X149831032Y-133439918D01*
X149840816Y-133430160D01*
X149840753Y-133429515D01*
X149830403Y-133417394D01*
X149807683Y-133401813D01*
X149766434Y-133368604D01*
X149729497Y-133315138D01*
X149704477Y-133249969D01*
X149691727Y-133177736D01*
X149691666Y-133142372D01*
X150108855Y-133142372D01*
X150110587Y-133184484D01*
X150112069Y-133202799D01*
X150120675Y-133251199D01*
X150134562Y-133278650D01*
X150142329Y-133284365D01*
X150174180Y-133296139D01*
X150218320Y-133303205D01*
X150282875Y-133308558D01*
X150282875Y-133049817D01*
X150224196Y-133049817D01*
X150189255Y-133051622D01*
X150160186Y-133060431D01*
X150135666Y-133079669D01*
X150120536Y-133096687D01*
X150111557Y-133115674D01*
X150108855Y-133142372D01*
X149691666Y-133142372D01*
X149691599Y-133103078D01*
X149704443Y-133030635D01*
X149730613Y-132965046D01*
X149770459Y-132910951D01*
X149792091Y-132892297D01*
X149836816Y-132862446D01*
X149883211Y-132839320D01*
X149883330Y-132839273D01*
X149902045Y-132832139D01*
X149920336Y-132826350D01*
X149940835Y-132821735D01*
X149966173Y-132818124D01*
X149998983Y-132815347D01*
X150041895Y-132813233D01*
X150097540Y-132811613D01*
X150168551Y-132810316D01*
X150257558Y-132809171D01*
X150367193Y-132808009D01*
X150782967Y-132803785D01*
X150782967Y-133049817D01*
X150701557Y-133049817D01*
X150701557Y-133735989D01*
X150782967Y-133735989D01*
G37*
G36*
X153167124Y-133735989D02*
G01*
X153167124Y-133981798D01*
X152751350Y-133977459D01*
X152680357Y-133976684D01*
X152574768Y-133975231D01*
X152488252Y-133973329D01*
X152418156Y-133970625D01*
X152361830Y-133966770D01*
X152316623Y-133961413D01*
X152279883Y-133954203D01*
X152248959Y-133944789D01*
X152221201Y-133932821D01*
X152193957Y-133917947D01*
X152164576Y-133899817D01*
X152110476Y-133852668D01*
X152073394Y-133790172D01*
X152054346Y-133713217D01*
X152052937Y-133668365D01*
X152060423Y-133608629D01*
X152492582Y-133608629D01*
X152493472Y-133651934D01*
X152497505Y-133678956D01*
X152506738Y-133696628D01*
X152523226Y-133711885D01*
X152533393Y-133718980D01*
X152567818Y-133732088D01*
X152616266Y-133735989D01*
X152678663Y-133735989D01*
X152678663Y-133465703D01*
X152607153Y-133470875D01*
X152566447Y-133475732D01*
X152529232Y-133488544D01*
X152506693Y-133512327D01*
X152495566Y-133551006D01*
X152492582Y-133608503D01*
X152492582Y-133608629D01*
X152060423Y-133608629D01*
X152060598Y-133607236D01*
X152077045Y-133550728D01*
X152100251Y-133507916D01*
X152104262Y-133503341D01*
X152132857Y-133480318D01*
X152173525Y-133455591D01*
X152218597Y-133433078D01*
X152260404Y-133416694D01*
X152291278Y-133410357D01*
X152300230Y-133409788D01*
X152319925Y-133402338D01*
X152324396Y-133390615D01*
X152310146Y-133380205D01*
X152283490Y-133370981D01*
X152207802Y-133333554D01*
X152149811Y-133284025D01*
X152106708Y-133220184D01*
X152094557Y-133188149D01*
X152093099Y-133178801D01*
X152504212Y-133178801D01*
X152505125Y-133221887D01*
X152509178Y-133248776D01*
X152518409Y-133266370D01*
X152534856Y-133281574D01*
X152571386Y-133299883D01*
X152622081Y-133305678D01*
X152678663Y-133305678D01*
X152678663Y-133049817D01*
X152622081Y-133049817D01*
X152571925Y-133055464D01*
X152534856Y-133073921D01*
X152534451Y-133074240D01*
X152518165Y-133089424D01*
X152509055Y-133107135D01*
X152505083Y-133134275D01*
X152504212Y-133177748D01*
X152504212Y-133178801D01*
X152093099Y-133178801D01*
X152085063Y-133127297D01*
X152087012Y-133061546D01*
X152099880Y-132999552D01*
X152123140Y-132949967D01*
X152160276Y-132906647D01*
X152215802Y-132866082D01*
X152289057Y-132833270D01*
X152303054Y-132828731D01*
X152323464Y-132823877D01*
X152349112Y-132819949D01*
X152382571Y-132816809D01*
X152426418Y-132814317D01*
X152483226Y-132812335D01*
X152555570Y-132810725D01*
X152646025Y-132809347D01*
X152757165Y-132808063D01*
X153167124Y-132803765D01*
X153167124Y-133049817D01*
X153097344Y-133049817D01*
X153097344Y-133735989D01*
X153167124Y-133735989D01*
G37*
G36*
X151922710Y-135050183D02*
G01*
X152004121Y-135050183D01*
X152004121Y-135164545D01*
X152003823Y-135195773D01*
X152002226Y-135240333D01*
X151999558Y-135272506D01*
X151996172Y-135286856D01*
X151987197Y-135288535D01*
X151957560Y-135290242D01*
X151910469Y-135291465D01*
X151849146Y-135292150D01*
X151776815Y-135292247D01*
X151696699Y-135291702D01*
X151405174Y-135288599D01*
X151401859Y-135169391D01*
X151398545Y-135050183D01*
X151504029Y-135050183D01*
X151504029Y-134794323D01*
X151472046Y-134794388D01*
X151461202Y-134794680D01*
X151410853Y-134802830D01*
X151368389Y-134820055D01*
X151341374Y-134843513D01*
X151339528Y-134846672D01*
X151333222Y-134864999D01*
X151328374Y-134894754D01*
X151324717Y-134938896D01*
X151321985Y-135000381D01*
X151319913Y-135082166D01*
X151315730Y-135294414D01*
X150852747Y-135294414D01*
X150852747Y-135051728D01*
X150884730Y-135048048D01*
X150900022Y-135045410D01*
X150909938Y-135038580D01*
X150915875Y-135022832D01*
X150919607Y-134993399D01*
X150922911Y-134945513D01*
X150925749Y-134910665D01*
X150935214Y-134852272D01*
X150949241Y-134816468D01*
X150971075Y-134792380D01*
X151008113Y-134768725D01*
X151045190Y-134759433D01*
X151055804Y-134757526D01*
X151061175Y-134746044D01*
X151050101Y-134727822D01*
X151024276Y-134707097D01*
X151022021Y-134705658D01*
X150970361Y-134658688D01*
X150934908Y-134595403D01*
X150915882Y-134516372D01*
X150915703Y-134509271D01*
X151330444Y-134509271D01*
X151336210Y-134552352D01*
X151347683Y-134582394D01*
X151353027Y-134589309D01*
X151368917Y-134601221D01*
X151393859Y-134606835D01*
X151434908Y-134608242D01*
X151504029Y-134608242D01*
X151504029Y-134364011D01*
X151442971Y-134364189D01*
X151407649Y-134365203D01*
X151377441Y-134370687D01*
X151358169Y-134383594D01*
X151342950Y-134406859D01*
X151337067Y-134422288D01*
X151330644Y-134462725D01*
X151330444Y-134509271D01*
X150915703Y-134509271D01*
X150913505Y-134422161D01*
X150917740Y-134379021D01*
X150937403Y-134300895D01*
X150972845Y-134238429D01*
X151025544Y-134189442D01*
X151096978Y-134151758D01*
X151097390Y-134151591D01*
X151114936Y-134144853D01*
X151132375Y-134139412D01*
X151152305Y-134135127D01*
X151177322Y-134131859D01*
X151210021Y-134129468D01*
X151252999Y-134127816D01*
X151308852Y-134126761D01*
X151380176Y-134126165D01*
X151469568Y-134125887D01*
X151579624Y-134125788D01*
X151998306Y-134125596D01*
X151998306Y-134358196D01*
X151960508Y-134361841D01*
X151937999Y-134364011D01*
X151922710Y-134365485D01*
X151922710Y-135050183D01*
G37*
G36*
X145991392Y-133049817D02*
G01*
X145909981Y-133049817D01*
X145909981Y-133735989D01*
X145991392Y-133735989D01*
X145991392Y-133980220D01*
X144967948Y-133980220D01*
X144967948Y-133491759D01*
X145305220Y-133491759D01*
X145305220Y-133735989D01*
X145491300Y-133735989D01*
X145491300Y-133468498D01*
X145363370Y-133468498D01*
X145363370Y-133294048D01*
X145491300Y-133294048D01*
X145491300Y-133049817D01*
X145305220Y-133049817D01*
X145305220Y-133259158D01*
X144967948Y-133259158D01*
X144967948Y-132805586D01*
X145991392Y-132805586D01*
X145991392Y-133049817D01*
G37*
G36*
X146572894Y-132926929D02*
G01*
X146572858Y-132960706D01*
X146572215Y-133003401D01*
X146569972Y-133029588D01*
X146565123Y-133043553D01*
X146556665Y-133049580D01*
X146543595Y-133051952D01*
X146514297Y-133055632D01*
X146555534Y-133116690D01*
X146576235Y-133145550D01*
X146595606Y-133168822D01*
X146606880Y-133177748D01*
X146612313Y-133174145D01*
X146627879Y-133156122D01*
X146647892Y-133128815D01*
X146667810Y-133098857D01*
X146683091Y-133072881D01*
X146689194Y-133057521D01*
X146684854Y-133053054D01*
X146665934Y-133049817D01*
X146663020Y-133049757D01*
X146653606Y-133047187D01*
X146647648Y-133037809D01*
X146644363Y-133017511D01*
X146642965Y-132982179D01*
X146642674Y-132927702D01*
X146642674Y-132805586D01*
X147200915Y-132805586D01*
X147200915Y-133049817D01*
X147168933Y-133050418D01*
X147159105Y-133051879D01*
X147142998Y-133059648D01*
X147122422Y-133076225D01*
X147094890Y-133103972D01*
X147057918Y-133145252D01*
X147009020Y-133202427D01*
X146977936Y-133239302D01*
X146936378Y-133288884D01*
X146900820Y-133331629D01*
X146874281Y-133363904D01*
X146859777Y-133382078D01*
X146838465Y-133410320D01*
X146981118Y-133570247D01*
X146994493Y-133585217D01*
X147043349Y-133639186D01*
X147080370Y-133678329D01*
X147108169Y-133705004D01*
X147129357Y-133721567D01*
X147146544Y-133730375D01*
X147162344Y-133733784D01*
X147200915Y-133737393D01*
X147200915Y-133980220D01*
X146677564Y-133980220D01*
X146677564Y-133735989D01*
X146706639Y-133735989D01*
X146725739Y-133734215D01*
X146735714Y-133728825D01*
X146730725Y-133716900D01*
X146715219Y-133693252D01*
X146693817Y-133664780D01*
X146671279Y-133637488D01*
X146652366Y-133617378D01*
X146641838Y-133610453D01*
X146632913Y-133618350D01*
X146614069Y-133640777D01*
X146590720Y-133672024D01*
X146549333Y-133730174D01*
X146578558Y-133733854D01*
X146586644Y-133735017D01*
X146596925Y-133738975D01*
X146603178Y-133749055D01*
X146606404Y-133769543D01*
X146607606Y-133804722D01*
X146607784Y-133858877D01*
X146607784Y-133980220D01*
X146037912Y-133980220D01*
X146037912Y-133735989D01*
X146071459Y-133735989D01*
X146078011Y-133735525D01*
X146092127Y-133730883D01*
X146109251Y-133719424D01*
X146131724Y-133698907D01*
X146161885Y-133667092D01*
X146202074Y-133621739D01*
X146254632Y-133560607D01*
X146262004Y-133551955D01*
X146307098Y-133498495D01*
X146346164Y-133451293D01*
X146376909Y-133413184D01*
X146397038Y-133387006D01*
X146404258Y-133375594D01*
X146397935Y-133365554D01*
X146378426Y-133340703D01*
X146348136Y-133304179D01*
X146309510Y-133258926D01*
X146264995Y-133207891D01*
X146235253Y-133174243D01*
X146192164Y-133126352D01*
X146160014Y-133092481D01*
X146136145Y-133070261D01*
X146117898Y-133057324D01*
X146102615Y-133051299D01*
X146087637Y-133049817D01*
X146049542Y-133049817D01*
X146049542Y-132805586D01*
X146572894Y-132805586D01*
X146572894Y-132926929D01*
G37*
G36*
X148061538Y-134364011D02*
G01*
X147991758Y-134364011D01*
X147991758Y-134538462D01*
X147991832Y-134569717D01*
X147992383Y-134626335D01*
X147993385Y-134671753D01*
X147994732Y-134701953D01*
X147996320Y-134712912D01*
X147997859Y-134711292D01*
X148009891Y-134694620D01*
X148032395Y-134661802D01*
X148063783Y-134615203D01*
X148102471Y-134557185D01*
X148146871Y-134490112D01*
X148195397Y-134416346D01*
X148389913Y-134119781D01*
X148933791Y-134119781D01*
X148933791Y-134364011D01*
X148852029Y-134364011D01*
X148855113Y-134704190D01*
X148858196Y-135044368D01*
X148895993Y-135048013D01*
X148933791Y-135051657D01*
X148933791Y-135294414D01*
X148445329Y-135294414D01*
X148445329Y-135050183D01*
X148515110Y-135050183D01*
X148515110Y-134832536D01*
X148515089Y-134804659D01*
X148514711Y-134735216D01*
X148513698Y-134685535D01*
X148511840Y-134652989D01*
X148508928Y-134634954D01*
X148504752Y-134628805D01*
X148499104Y-134631917D01*
X148496315Y-134635416D01*
X148481456Y-134656577D01*
X148456416Y-134693719D01*
X148422872Y-134744303D01*
X148382502Y-134805792D01*
X148336983Y-134875646D01*
X148287993Y-134951328D01*
X148267600Y-134982897D01*
X148219677Y-135056786D01*
X148175831Y-135123984D01*
X148137761Y-135181912D01*
X148107163Y-135227996D01*
X148085736Y-135259657D01*
X148075176Y-135274322D01*
X148071726Y-135277928D01*
X148061717Y-135284392D01*
X148045744Y-135288830D01*
X148020350Y-135291516D01*
X147982078Y-135292719D01*
X147927469Y-135292712D01*
X147853067Y-135291767D01*
X147648672Y-135288599D01*
X147642590Y-134364011D01*
X147573077Y-134364011D01*
X147573077Y-134119781D01*
X148061538Y-134119781D01*
X148061538Y-134364011D01*
G37*
%TD*%
M02*
