M48
; DRILL file {KiCad (6.0.7)} date Wed Jun 12 19:25:54 2024
; FORMAT={-:-/ absolute / metric / decimal}
; #@! TF.CreationDate,2024-06-12T19:25:54+01:00
; #@! TF.GenerationSoftware,Kicad,Pcbnew,(6.0.7)
; #@! TF.FileFunction,MixedPlating,1,4
FMAT,2
METRIC
; #@! TA.AperFunction,Plated,PTH,ViaDrill
T1C0.200
; #@! TA.AperFunction,Plated,PTH,ViaDrill
T2C0.300
; #@! TA.AperFunction,Plated,PTH,ComponentDrill
T3C0.600
; #@! TA.AperFunction,Plated,PTH,ComponentDrill
T4C0.950
; #@! TA.AperFunction,Plated,PTH,ComponentDrill
T5C1.000
; #@! TA.AperFunction,Plated,PTH,ComponentDrill
T6C4.300
; #@! TA.AperFunction,NonPlated,NPTH,ComponentDrill
T7C0.800
; #@! TA.AperFunction,NonPlated,NPTH,ComponentDrill
T8C0.900
%
G90
G05
T1
X125.45Y-102.25
X125.45Y-130.95
X125.49Y-105.45
X125.49Y-108.7
X125.49Y-111.45
X125.49Y-114.7
X125.49Y-118.45
X125.49Y-121.95
X125.49Y-124.95
X125.49Y-128.2
X131.49Y-122.95
X131.74Y-106.7
X131.74Y-112.7
X131.74Y-115.7
X131.82Y-117.97
X131.82Y-120.22
X133.489Y-115.698
X133.49Y-112.7
X133.49Y-117.97
X133.49Y-120.22
X133.52Y-122.47
X133.56Y-110.04
X133.62Y-128.97
X133.62Y-131.17
X133.62Y-133.37
X133.62Y-135.97
X133.62Y-138.97
X134.24Y-106.7
X134.24Y-108.45
X134.51Y-110.09
X135.24Y-115.7
X135.24Y-117.95
X135.24Y-120.2
X135.24Y-122.45
X135.32Y-128.97
X135.32Y-131.17
X135.32Y-133.37
X135.32Y-135.97
X135.32Y-138.97
X135.72Y-110.3
X135.79Y-111.06
X136.49Y-94.45
X136.74Y-106.7
X137.99Y-115.7
X137.99Y-117.95
X137.99Y-120.2
X137.99Y-122.45
X138.42Y-135.97
X138.42Y-138.97
X138.7Y-112.07
X138.73Y-111.26
X138.74Y-108.45
X139.24Y-104.2
X139.68Y-110.59
X139.74Y-94.45
X139.99Y-99.2
X140.74Y-106.7
X140.74Y-108.45
X140.74Y-114.05
X140.74Y-115.7
X140.74Y-117.95
X140.74Y-120.2
X140.74Y-122.45
X142.24Y-94.45
X142.46Y-114.04
X142.49Y-115.7
X142.49Y-117.95
X142.49Y-120.2
X142.49Y-122.45
X142.52Y-128.97
X142.52Y-131.17
X142.52Y-133.37
X142.52Y-135.97
X142.63Y-103.92
X143.39Y-103.8
X144.42Y-128.97
X144.42Y-131.17
X144.48Y-122.44
X144.49Y-117.95
X144.49Y-120.21
X145.24Y-111.93
X145.54Y-108.7
X145.71Y-104.33
X145.74Y-94.45
X145.81Y-112.32
X146.98Y-111.15
X147.02Y-115.93
X147.02Y-116.73
X147.02Y-117.53
X147.12Y-105.67
X147.16Y-111.89
X147.72Y-102.07
X147.72Y-128.97
X147.72Y-131.17
X147.74Y-122.45
X147.82Y-115.93
X147.82Y-116.73
X147.82Y-117.53
X147.87Y-105.33
X147.92Y-109.27
X148.22Y-101.63
X148.52Y-108.17
X148.62Y-115.93
X148.62Y-116.73
X148.62Y-117.53
X148.73Y-102.16
X149.74Y-94.45
X150.22Y-101.37
X150.24Y-122.45
X150.32Y-128.97
X150.32Y-131.17
X151.57Y-106.57
X152.0Y-109.68
X152.74Y-114.7
X152.74Y-122.45
X152.87Y-108.62
X153.234Y-94.446
X153.24Y-118.2
X155.24Y-108.95
X155.24Y-110.45
X155.24Y-111.95
X155.24Y-113.2
X155.99Y-94.45
X155.99Y-114.7
X156.32Y-131.17
X156.32Y-133.97
X156.32Y-136.97
X156.99Y-108.95
X156.99Y-110.45
X156.99Y-111.95
X156.99Y-113.2
X158.728Y-106.19
X158.99Y-111.95
X158.99Y-113.2
X159.24Y-94.45
X159.42Y-131.17
X159.42Y-133.97
X159.42Y-136.97
X159.42Y-139.97
X160.74Y-106.2
X162.24Y-114.7
X162.42Y-131.17
X162.42Y-133.97
X162.42Y-136.97
X162.42Y-139.97
X164.99Y-113.2
X164.99Y-114.7
X164.99Y-116.7
X164.99Y-118.95
X164.99Y-120.95
X166.49Y-101.7
X166.49Y-103.95
X166.49Y-106.2
X166.49Y-108.2
X167.24Y-118.95
X167.24Y-120.95
X168.74Y-101.7
X168.74Y-103.95
X168.74Y-106.2
X169.49Y-120.95
X170.24Y-124.95
X170.24Y-129.7
X170.99Y-101.7
X170.99Y-103.95
X170.99Y-106.2
X171.74Y-120.95
T2
X136.98Y-110.97
X136.98Y-113.43
X137.67Y-101.07
X137.68Y-104.11
X141.55Y-111.05
X144.52Y-109.93
X144.97Y-115.48
X145.32Y-119.93
X147.01Y-120.92
X149.02Y-120.88
X149.52Y-112.73
X149.885Y-109.74
X149.92Y-119.93
X150.22Y-113.53
X150.73Y-115.46
X150.88Y-107.164
X150.92Y-109.72
X151.01Y-117.0
X151.02Y-119.83
X152.37Y-107.67
X153.37Y-107.67
X153.54Y-126.21
X154.39Y-122.1
X154.39Y-123.3
X154.39Y-124.6
X154.89Y-127.15
X155.69Y-124.6
X155.7Y-127.9
X156.22Y-104.47
X156.99Y-124.6
X157.02Y-102.62
X157.09Y-118.0
X157.09Y-120.0
X158.89Y-119.0
X160.03Y-109.82
X160.79Y-118.0
X160.79Y-120.0
X162.26Y-112.37
X167.54Y-111.48
X167.6Y-115.98
T3
X124.595Y-96.73
X124.595Y-136.73
X125.54Y-94.45
X125.54Y-99.01
X125.54Y-134.45
X125.54Y-139.01
X127.82Y-93.505
X127.82Y-99.955
X127.82Y-133.505
X127.82Y-139.955
X130.1Y-94.45
X130.1Y-99.01
X130.1Y-134.45
X130.1Y-139.01
X131.045Y-96.73
X131.045Y-136.73
X164.595Y-96.73
X164.595Y-136.73
X165.54Y-94.45
X165.54Y-99.01
X165.54Y-134.45
X165.54Y-139.01
X167.82Y-93.505
X167.82Y-99.955
X167.82Y-133.505
X167.82Y-139.955
X170.1Y-94.45
X170.1Y-99.01
X170.1Y-134.45
X170.1Y-139.01
X171.045Y-96.73
X171.045Y-136.73
T4
X128.27Y-106.28
X128.27Y-108.78
X128.27Y-111.28
X128.27Y-113.78
X128.27Y-119.68
X128.27Y-122.18
X128.27Y-124.68
X128.27Y-127.18
X137.37Y-97.08
X139.87Y-97.08
X142.37Y-97.08
X144.87Y-97.08
X150.77Y-97.08
X153.27Y-97.08
X155.77Y-97.08
X158.27Y-97.08
T5
X167.47Y-126.08
X167.47Y-128.58
T6
X127.82Y-96.73
X127.82Y-136.73
X167.82Y-96.73
X167.82Y-136.73
T7
X162.26Y-109.64
T8
X170.82Y-112.23
X170.82Y-115.23
T0
M30
